SplineFontDB: 3.0
FontName: OleoScriptSwashCaps-Regular
FullName: Oleo Script Swash Caps
FamilyName: Oleo Script Swash Caps
Weight: Book
Copyright: Copyright (c) 2012, Soytutype (contact@soytutype.com.ar|soytutype@gmail.com), with reserved fontname 'Oleo'
Version: 1.002
ItalicAngle: 0
UnderlinePosition: -50
UnderlineWidth: 50
Ascent: 800
Descent: 200
sfntRevision: 0x00010083
LayerCount: 2
Layer: 0 1 "Back"  1
Layer: 1 1 "Fore"  0
XUID: [1021 62 139367969 7356336]
FSType: 0
OS2Version: 3
OS2_WeightWidthSlopeOnly: 0
OS2_UseTypoMetrics: 1
CreationTime: 1328574420
ModificationTime: 1352734891
PfmFamily: 17
TTFWeight: 400
TTFWidth: 5
LineGap: 0
VLineGap: 0
Panose: 2 0 0 0 0 0 0 0 0 0
OS2TypoAscent: 1004
OS2TypoAOffset: 0
OS2TypoDescent: -379
OS2TypoDOffset: 0
OS2TypoLinegap: 0
OS2WinAscent: 1004
OS2WinAOffset: 0
OS2WinDescent: 379
OS2WinDOffset: 0
HheadAscent: 1004
HheadAOffset: 0
HheadDescent: -379
HheadDOffset: 0
OS2SubXSize: 650
OS2SubYSize: 600
OS2SubXOff: 0
OS2SubYOff: 75
OS2SupXSize: 650
OS2SupYSize: 600
OS2SupXOff: 0
OS2SupYOff: 350
OS2StrikeYSize: 50
OS2StrikeYPos: 265
OS2Vendor: 'pyrs'
OS2CodePages: 20000001.00000000
OS2UnicodeRanges: 800000ef.00000002.00000000.00000000
Lookup: 258 0 0 "'kern' Horizontal Kerning in Latin lookup 0"  {"'kern' Horizontal Kerning in Latin lookup 0 subtable"  } ['kern' ('latn' <'dflt' > ) ]
DEI: 91125
TtTable: prep
PUSHW_1
 511
SCANCTRL
PUSHB_1
 4
SCANTYPE
EndTTInstrs
ShortTable: maxp 16
  1
  0
  245
  92
  5
  0
  0
  2
  0
  1
  1
  0
  64
  0
  0
  0
EndShort
LangName: 1033 "" "" "" "Soytutype: Oleo Script Swash Caps: 2012" "" "Version 1.002" "" "Oleo Script is a trademark of Soytutype." "Soytutype" "Soytutype" "" "www.soytutype.com.ar" "www.soytutype.com.ar" "This Font Software is licensed under the SIL Open Font License, Version 1.1. This license is available with a FAQ at: http://scripts.sil.org/OFL." "http://scripts.sil.org/OFL" 
GaspTable: 1 65535 15 1
Encoding: UnicodeBmp
UnicodeInterp: none
NameList: AGL For New Fonts

StartChar: exclam
Encoding: 33 33 4
Width: 298
GlyphClass: 2
Flags: W
LayerCount: 2
Fore
SplineSet
53 9 m 128,-1,1
 34 30 34 30 34 65 c 128,-1,2
 34 100 34 100 60 125.5 c 128,-1,3
 86 151 86 151 121.5 151 c 128,-1,4
 157 151 157 151 176 130.5 c 128,-1,5
 195 110 195 110 195 75.5 c 128,-1,6
 195 41 195 41 168.5 14.5 c 128,-1,7
 142 -12 142 -12 107 -12 c 128,-1,0
 72 -12 72 -12 53 9 c 128,-1,1
288 664 m 0,8,9
 288 565 288 565 223 353 c 0,10,11
 218 336 218 336 204.5 291.5 c 128,-1,12
 191 247 191 247 184 223 c 1,13,14
 157 214 157 214 136.5 214 c 128,-1,15
 116 214 116 214 100 216 c 1,16,17
 136 433 136 433 136 599 c 1,18,-1
 130 683 l 1,19,20
 215 710 215 710 282 710 c 1,21,22
 288 701 288 701 288 664 c 0,8,9
EndSplineSet
EndChar

StartChar: quotedbl
Encoding: 34 34 5
Width: 370
GlyphClass: 2
Flags: W
LayerCount: 2
Fore
SplineSet
129 732 m 0,0,1
 207 732 207 732 207 674.5 c 128,-1,2
 207 617 207 617 124 431 c 1,3,-1
 80 438 l 1,4,-1
 99 730 l 1,5,6
 119 732 119 732 129 732 c 0,0,1
289 732 m 0,7,8
 367 732 367 732 367 674.5 c 128,-1,9
 367 617 367 617 284 431 c 1,10,-1
 240 438 l 1,11,-1
 259 730 l 1,12,13
 279 732 279 732 289 732 c 0,7,8
EndSplineSet
EndChar

StartChar: numbersign
Encoding: 35 35 6
Width: 593
GlyphClass: 2
Flags: W
LayerCount: 2
Fore
SplineSet
320 -12 m 2,0,-1
 311 -12 l 1,1,2
 312 20 312 20 336 166 c 1,3,4
 304 168 304 168 287 168 c 2,5,-1
 235 168 l 1,6,7
 218 77 218 77 212 6 c 1,8,9
 176 -12 176 -12 115 -12 c 2,10,-1
 105 -12 l 1,11,12
 106 30 106 30 134 165 c 1,13,14
 57 161 57 161 33 155 c 1,15,16
 23 187 23 187 20 246 c 1,17,18
 67 251 67 251 129 251 c 2,19,-1
 152 251 l 1,20,21
 167 320 167 320 175 366 c 1,22,23
 91 362 91 362 65 356 c 1,24,25
 52 388 52 388 46 447 c 1,26,27
 96 452 96 452 158 452 c 2,28,-1
 190 452 l 1,29,30
 203 530 203 530 203 557.5 c 128,-1,31
 203 585 203 585 201 593 c 1,32,33
 263 617 263 617 306 617 c 1,34,35
 310 604 310 604 310 578 c 128,-1,36
 310 552 310 552 291 450 c 1,37,-1
 381 446 l 1,38,39
 393 533 393 533 393 559 c 128,-1,40
 393 585 393 585 391 593 c 1,41,42
 454 617 454 617 496 617 c 1,43,44
 500 604 500 604 500 575 c 128,-1,45
 500 546 500 546 483 441 c 1,46,-1
 490 441 l 2,47,48
 545 441 545 441 587 447 c 1,49,50
 589 434 589 434 589 410 c 0,51,52
 589 355 589 355 549 355 c 0,53,54
 521 355 521 355 469 359 c 1,55,56
 466 340 466 340 459 300.5 c 128,-1,57
 452 261 452 261 449 240 c 1,58,-1
 461 240 l 2,59,60
 516 240 516 240 558 246 c 1,61,62
 560 226 560 226 560 209 c 0,63,64
 560 154 560 154 520 154 c 0,65,66
 490 154 490 154 436 158 c 1,67,68
 421 58 421 58 418 6 c 1,69,70
 381 -12 381 -12 320 -12 c 2,0,-1
316 369 m 2,71,-1
 275 369 l 1,72,73
 272 357 272 357 263.5 315 c 128,-1,74
 255 273 255 273 250 249 c 1,75,-1
 350 245 l 1,76,-1
 370 367 l 1,77,78
 334 369 334 369 316 369 c 2,71,-1
EndSplineSet
EndChar

StartChar: dollar
Encoding: 36 36 7
Width: 473
GlyphClass: 2
Flags: W
LayerCount: 2
Fore
SplineSet
432 196 m 0,0,1
 432 110 432 110 372.5 56 c 128,-1,2
 313 2 313 2 224 -9 c 1,3,4
 214 -84 214 -84 214 -118 c 1,5,6
 187 -118 187 -118 150 -105 c 1,7,-1
 167 -11 l 1,8,9
 103 -7 103 -7 62 26.5 c 128,-1,10
 21 60 21 60 16 84 c 1,11,12
 27 117 27 117 63 158 c 128,-1,13
 99 199 99 199 128 208 c 1,14,15
 179 175 179 175 223 61 c 1,16,17
 252 62 252 62 270 79.5 c 128,-1,18
 288 97 288 97 288 133.5 c 128,-1,19
 288 170 288 170 257.5 225.5 c 128,-1,20
 227 281 227 281 191 329.5 c 128,-1,21
 155 378 155 378 124.5 438.5 c 128,-1,22
 94 499 94 499 94 546 c 0,23,24
 94 622 94 622 156 666 c 128,-1,25
 218 710 218 710 305 710 c 2,26,-1
 311 710 l 1,27,28
 318 764 318 764 320 802 c 1,29,30
 347 802 347 802 384 789 c 1,31,-1
 368 701 l 1,32,33
 409 688 409 688 432.5 659.5 c 128,-1,34
 456 631 456 631 456 595.5 c 128,-1,35
 456 560 456 560 424 516 c 128,-1,36
 392 472 392 472 360 446 c 2,37,-1
 328 420 l 1,38,39
 340 404 340 404 357 379 c 128,-1,40
 374 354 374 354 403 294 c 128,-1,41
 432 234 432 234 432 196 c 0,0,1
380 555.5 m 128,-1,43
 391 574 391 574 391 594.5 c 128,-1,44
 391 615 391 615 367 629 c 128,-1,45
 343 643 343 643 309.5 643 c 128,-1,46
 276 643 276 643 253.5 627.5 c 128,-1,47
 231 612 231 612 231 590.5 c 128,-1,48
 231 569 231 569 245.5 540.5 c 128,-1,49
 260 512 260 512 274 493 c 2,50,-1
 289 474 l 1,51,52
 299 479 299 479 320.5 495 c 128,-1,53
 342 511 342 511 355.5 524 c 128,-1,42
 369 537 369 537 380 555.5 c 128,-1,43
EndSplineSet
EndChar

StartChar: percent
Encoding: 37 37 8
Width: 813
GlyphClass: 2
Flags: W
LayerCount: 2
Fore
SplineSet
326.5 696 m 128,-1,1
 356 657 356 657 356 597.5 c 128,-1,2
 356 538 356 538 337 483.5 c 128,-1,3
 318 429 318 429 271.5 389 c 128,-1,4
 225 349 225 349 163.5 349 c 128,-1,5
 102 349 102 349 71.5 387.5 c 128,-1,6
 41 426 41 426 41 489 c 0,7,8
 41 598 41 598 95.5 666.5 c 128,-1,9
 150 735 150 735 236 735 c 0,10,0
 297 735 297 735 326.5 696 c 128,-1,1
175 395 m 0,11,12
 211 395 211 395 232 494 c 0,13,14
 244 550 244 550 244 619.5 c 128,-1,15
 244 689 244 689 218 689 c 0,16,17
 185 689 185 689 164 590 c 1,18,19
 153 533 153 533 153 464 c 128,-1,20
 153 395 153 395 175 395 c 0,11,12
776.5 333 m 128,-1,22
 806 294 806 294 806 234.5 c 128,-1,23
 806 175 806 175 787 120.5 c 128,-1,24
 768 66 768 66 721.5 26 c 128,-1,25
 675 -14 675 -14 613.5 -14 c 128,-1,26
 552 -14 552 -14 521.5 24.5 c 128,-1,27
 491 63 491 63 491 126 c 0,28,29
 491 235 491 235 545.5 303.5 c 128,-1,30
 600 372 600 372 686 372 c 0,31,21
 747 372 747 372 776.5 333 c 128,-1,22
625 32 m 0,32,33
 661 32 661 32 682 131 c 0,34,35
 694 187 694 187 694 256.5 c 128,-1,36
 694 326 694 326 668 326 c 0,37,38
 635 326 635 326 614 226 c 0,39,40
 603 170 603 170 603 101 c 128,-1,41
 603 32 603 32 625 32 c 0,32,33
643 701 m 1,42,43
 596 594 596 594 528.5 468.5 c 128,-1,44
 461 343 461 343 406 229.5 c 128,-1,45
 351 116 351 116 309 -11 c 1,46,47
 292 -10 292 -10 266 0 c 0,48,49
 238 10 238 10 218 27 c 1,50,51
 265 160 265 160 378 381 c 128,-1,52
 491 602 491 602 542 734 c 1,53,54
 617 719 617 719 643 701 c 1,42,43
EndSplineSet
EndChar

StartChar: ampersand
Encoding: 38 38 9
Width: 815
GlyphClass: 2
Flags: W
LayerCount: 2
Fore
SplineSet
386 315 m 1,0,1
 392 286 392 286 416.5 286 c 128,-1,2
 441 286 441 286 479 306 c 128,-1,3
 517 326 517 326 550 349.5 c 128,-1,4
 583 373 583 373 626 393 c 128,-1,5
 669 413 669 413 709.5 413 c 128,-1,6
 750 413 750 413 779 386 c 128,-1,7
 808 359 808 359 808 314.5 c 128,-1,8
 808 270 808 270 777 236.5 c 128,-1,9
 746 203 746 203 700 203 c 0,10,11
 639 203 639 203 572 265 c 1,12,13
 573 255 573 255 573 236 c 0,14,15
 573 125 573 125 496 52.5 c 128,-1,16
 419 -20 419 -20 314 -20 c 0,17,18
 240 -20 240 -20 167 24 c 0,19,20
 130 47 130 47 106 89.5 c 128,-1,21
 82 132 82 132 82 188 c 0,22,23
 82 284 82 284 147.5 343.5 c 128,-1,24
 213 403 213 403 298 412 c 1,25,26
 175 444 175 444 175 549 c 0,27,28
 175 624 175 624 236 667 c 128,-1,29
 297 710 297 710 376.5 710 c 128,-1,30
 456 710 456 710 509.5 675.5 c 128,-1,31
 563 641 563 641 563 583 c 0,32,33
 563 546 563 546 540 519 c 128,-1,34
 517 492 517 492 481 492 c 128,-1,35
 445 492 445 492 420 513.5 c 128,-1,36
 395 535 395 535 395 572 c 0,37,38
 395 623 395 623 440 645 c 1,39,40
 426 647 426 647 419 647 c 0,41,42
 385 647 385 647 363 626 c 0,43,44
 328 593 328 593 328 553.5 c 128,-1,45
 328 514 328 514 337 491 c 128,-1,46
 346 468 346 468 363 456 c 0,47,48
 389 438 389 438 421 431 c 0,49,50
 422 431 422 431 423.5 430.5 c 128,-1,51
 425 430 425 430 426 430 c 2,52,-1
 417 382 l 1,53,-1
 411 382 l 2,54,55
 344 382 344 382 293 335 c 128,-1,56
 242 288 242 288 242 213.5 c 128,-1,57
 242 139 242 139 277.5 107 c 128,-1,58
 313 75 313 75 363 75 c 0,59,60
 429 75 429 75 471 128.5 c 128,-1,61
 513 182 513 182 525 256 c 1,62,63
 462 227 462 227 424 227 c 128,-1,64
 386 227 386 227 365.5 246 c 128,-1,65
 345 265 345 265 343 299 c 1,66,67
 357 313 357 313 386 315 c 1,0,1
737.5 323.5 m 128,-1,69
 728 333 728 333 702 333 c 128,-1,70
 676 333 676 333 618 304 c 1,71,72
 664 263 664 263 707 263 c 1,73,74
 724 264 724 264 735.5 275 c 128,-1,75
 747 286 747 286 747 300 c 128,-1,68
 747 314 747 314 737.5 323.5 c 128,-1,69
476 544 m 0,76,77
 503 544 503 544 503 589 c 0,78,79
 503 607 503 607 486 624 c 1,80,81
 470 619 470 619 459.5 605 c 128,-1,82
 449 591 449 591 449 575 c 128,-1,83
 449 559 449 559 457.5 551.5 c 128,-1,84
 466 544 466 544 476 544 c 0,76,77
EndSplineSet
EndChar

StartChar: quotesingle
Encoding: 39 39 10
Width: 216
GlyphClass: 2
Flags: W
LayerCount: 2
Fore
SplineSet
138 732 m 0,0,1
 216 732 216 732 216 674.5 c 128,-1,2
 216 617 216 617 133 431 c 1,3,-1
 89 438 l 1,4,-1
 108 730 l 1,5,6
 128 732 128 732 138 732 c 0,0,1
EndSplineSet
EndChar

StartChar: parenleft
Encoding: 40 40 11
Width: 345
GlyphClass: 2
Flags: W
LayerCount: 2
Fore
SplineSet
197 81 m 0,0,1
 197 -23 197 -23 208 -76 c 128,-1,2
 219 -129 219 -129 250 -184 c 1,3,-1
 205 -228 l 1,4,5
 188 -214 188 -214 163.5 -178 c 128,-1,6
 139 -142 139 -142 122.5 -102 c 128,-1,7
 106 -62 106 -62 92.5 8.5 c 128,-1,8
 79 79 79 79 79 179 c 128,-1,9
 79 279 79 279 106.5 381.5 c 128,-1,10
 134 484 134 484 172 546 c 128,-1,11
 210 608 210 608 251 653 c 128,-1,12
 292 698 292 698 317 716 c 128,-1,13
 342 734 342 734 346 734 c 1,14,-1
 383 684 l 1,15,16
 197 526 197 526 197 81 c 0,0,1
EndSplineSet
EndChar

StartChar: parenright
Encoding: 41 41 12
Width: 373
GlyphClass: 2
Flags: W
LayerCount: 2
Fore
SplineSet
192 422 m 0,0,1
 192 531 192 531 180.5 582 c 128,-1,2
 169 633 169 633 139 690 c 1,3,-1
 184 734 l 1,4,5
 201 720 201 720 225.5 684 c 128,-1,6
 250 648 250 648 266.5 608 c 128,-1,7
 283 568 283 568 296.5 497.5 c 128,-1,8
 310 427 310 427 310 327 c 128,-1,9
 310 227 310 227 282.5 124.5 c 128,-1,10
 255 22 255 22 217 -40 c 128,-1,11
 179 -102 179 -102 138 -147 c 128,-1,12
 97 -192 97 -192 72 -210 c 128,-1,13
 47 -228 47 -228 43 -228 c 1,14,-1
 6 -178 l 1,15,16
 192 -20 192 -20 192 422 c 0,0,1
EndSplineSet
EndChar

StartChar: asterisk
Encoding: 42 42 13
Width: 383
GlyphClass: 2
Flags: W
LayerCount: 2
Fore
SplineSet
266 529 m 1,0,1
 297 504 297 504 318.5 504 c 128,-1,2
 340 504 340 504 364 512 c 1,3,4
 376 505 376 505 385 485.5 c 128,-1,5
 394 466 394 466 394 452.5 c 128,-1,6
 394 439 394 439 393 435 c 1,7,8
 367 406 367 406 330 406 c 0,9,10
 322 406 322 406 311 411 c 128,-1,11
 300 416 300 416 271.5 448 c 128,-1,12
 243 480 243 480 226 512 c 1,13,14
 209 481 209 481 209 466 c 0,15,16
 209 442 209 442 222 415 c 1,17,-1
 227 406 l 1,18,19
 218 391 218 391 196.5 377 c 128,-1,20
 175 363 175 363 156 363 c 1,21,22
 139 373 139 373 127 392 c 128,-1,23
 115 411 115 411 115 430.5 c 128,-1,24
 115 450 115 450 142 482.5 c 128,-1,25
 169 515 169 515 201 541 c 1,26,27
 186 544 186 544 170 544 c 128,-1,28
 154 544 154 544 146 542 c 128,-1,29
 138 540 138 540 125.5 532 c 128,-1,30
 113 524 113 524 106 516 c 2,31,-1
 99 509 l 1,32,33
 82 512 82 512 61 528 c 128,-1,34
 40 544 40 544 38 563 c 1,35,36
 42 584 42 584 60.5 603.5 c 128,-1,37
 79 623 79 623 95.5 623 c 128,-1,38
 112 623 112 623 147.5 609 c 128,-1,39
 183 595 183 595 213 576 c 1,40,41
 211 614 211 614 206 624 c 0,42,43
 197 641 197 641 170 658 c 1,44,-1
 161 663 l 1,45,46
 161 687 161 687 171.5 708.5 c 128,-1,47
 182 730 182 730 197 736 c 1,48,49
 219 736 219 736 241.5 724 c 128,-1,50
 264 712 264 712 270 696 c 0,51,52
 272 688 272 688 272 677 c 0,53,54
 272 619 272 619 254 568 c 1,55,56
 286 584 286 584 294 594 c 0,57,58
 308 611 308 611 312 642 c 1,59,-1
 314 652 l 1,60,61
 332 658 332 658 357.5 658 c 128,-1,62
 383 658 383 658 395 646 c 1,63,64
 403 630 403 630 403 605 c 128,-1,65
 403 580 403 580 390 567 c 128,-1,66
 377 554 377 554 339.5 543 c 128,-1,67
 302 532 302 532 266 529 c 1,0,1
EndSplineSet
EndChar

StartChar: plus
Encoding: 43 43 14
Width: 503
GlyphClass: 2
Flags: W
LayerCount: 2
Fore
SplineSet
295 238 m 1,0,-1
 295 95 l 1,1,2
 275 86 275 86 212 86 c 2,3,-1
 203 86 l 1,4,-1
 203 238 l 1,5,-1
 64 238 l 1,6,7
 64 297 64 297 68 326 c 1,8,-1
 203 326 l 1,9,-1
 203 465 l 1,10,11
 235 473 235 473 294 473 c 1,12,-1
 294 326 l 1,13,-1
 442 326 l 1,14,15
 442 246 442 246 439 238 c 1,16,-1
 295 238 l 1,0,-1
EndSplineSet
EndChar

StartChar: comma
Encoding: 44 44 15
Width: 235
GlyphClass: 2
Flags: W
LayerCount: 2
Fore
SplineSet
24 16 m 1,0,1
 24 88 24 88 80 151 c 1,2,3
 132 151 132 151 166 120.5 c 128,-1,4
 200 90 200 90 200 49 c 0,5,6
 200 -53 200 -53 78 -192 c 1,7,-1
 36 -165 l 1,8,9
 98 -71 98 -71 103 -32 c 1,10,-1
 24 16 l 1,0,1
EndSplineSet
EndChar

StartChar: hyphen
Encoding: 45 45 16
Width: 369
GlyphClass: 2
Flags: W
LayerCount: 2
Fore
SplineSet
54 238 m 1,0,1
 54 300 54 300 57 323 c 1,2,-1
 332 323 l 1,3,4
 332 254 332 254 329 238 c 1,5,-1
 54 238 l 1,0,1
EndSplineSet
EndChar

StartChar: period
Encoding: 46 46 17
Width: 248
GlyphClass: 2
Flags: W
LayerCount: 2
Fore
SplineSet
62 9 m 128,-1,1
 43 30 43 30 43 65 c 128,-1,2
 43 100 43 100 69 125.5 c 128,-1,3
 95 151 95 151 130.5 151 c 128,-1,4
 166 151 166 151 185 130.5 c 128,-1,5
 204 110 204 110 204 75.5 c 128,-1,6
 204 41 204 41 177.5 14.5 c 128,-1,7
 151 -12 151 -12 116 -12 c 128,-1,0
 81 -12 81 -12 62 9 c 128,-1,1
EndSplineSet
EndChar

StartChar: slash
Encoding: 47 47 18
Width: 361
GlyphClass: 2
Flags: W
LayerCount: 2
Fore
SplineSet
381 715 m 1,0,1
 216 296 216 296 72 -110 c 1,2,3
 33 -110 33 -110 -5 -72 c 1,4,5
 168 408 168 408 299 748 c 1,6,7
 344 741 344 741 381 715 c 1,0,1
EndSplineSet
EndChar

StartChar: zero
Encoding: 48 48 19
Width: 570
GlyphClass: 2
Flags: W
LayerCount: 2
Fore
SplineSet
565 452 m 0,0,1
 565 284 565 284 490 144 c 0,2,3
 453 74 453 74 389.5 31 c 128,-1,4
 326 -12 326 -12 246 -12 c 0,5,6
 149 -12 149 -12 100 59.5 c 128,-1,7
 51 131 51 131 51 249 c 0,8,9
 51 453 51 453 140 581.5 c 128,-1,10
 229 710 229 710 369 710 c 0,11,12
 469 710 469 710 517 637.5 c 128,-1,13
 565 565 565 565 565 452 c 0,0,1
255 55 m 0,14,15
 300 55 300 55 333.5 113.5 c 128,-1,16
 367 172 367 172 382 256 c 0,17,18
 411 420 411 420 411 502.5 c 128,-1,19
 411 585 411 585 397.5 613.5 c 128,-1,20
 384 642 384 642 349.5 642 c 128,-1,21
 315 642 315 642 285.5 595 c 128,-1,22
 256 548 256 548 239 474 c 0,23,24
 205 328 205 328 205 178 c 0,25,26
 205 106 205 106 218 80.5 c 128,-1,27
 231 55 231 55 255 55 c 0,14,15
EndSplineSet
EndChar

StartChar: one
Encoding: 49 49 20
Width: 373
GlyphClass: 2
Flags: W
LayerCount: 2
Fore
SplineSet
100 -3 m 2,0,-1
 90 -3 l 1,1,2
 92 70 92 70 147 309.5 c 128,-1,3
 202 549 202 549 202 596 c 0,4,5
 202 619 202 619 201 624 c 1,6,7
 146 594 146 594 81 529 c 1,8,9
 69 535 69 535 56.5 550.5 c 128,-1,10
 44 566 44 566 38 578 c 2,11,-1
 32 590 l 1,12,-1
 199 697 l 1,13,14
 273 710 273 710 351 710 c 1,15,16
 363 690 363 690 363 646.5 c 128,-1,17
 363 603 363 603 338 494.5 c 128,-1,18
 313 386 313 386 286 252.5 c 128,-1,19
 259 119 259 119 256 17 c 1,20,21
 220 -3 220 -3 100 -3 c 2,0,-1
EndSplineSet
EndChar

StartChar: two
Encoding: 50 50 21
Width: 495
GlyphClass: 2
Flags: W
LayerCount: 2
Fore
SplineSet
372 -18 m 0,0,1
 337 -18 337 -18 267 22.5 c 128,-1,2
 197 63 197 63 151 76 c 1,3,4
 117 40 117 40 85.5 17.5 c 128,-1,5
 54 -5 54 -5 43 -5 c 128,-1,6
 32 -5 32 -5 3.5 30.5 c 128,-1,7
 -25 66 -25 66 -25 84.5 c 128,-1,8
 -25 103 -25 103 8.5 137.5 c 128,-1,9
 42 172 42 172 86 172 c 0,10,11
 113 172 113 172 139 166 c 1,12,13
 209 222 209 222 272 328.5 c 128,-1,14
 335 435 335 435 335 515 c 0,15,16
 335 560 335 560 308 585.5 c 128,-1,17
 281 611 281 611 242.5 611 c 128,-1,18
 204 611 204 611 167.5 586 c 128,-1,19
 131 561 131 561 105 517 c 1,20,-1
 59 537 l 1,21,22
 79 600 79 600 149.5 655 c 128,-1,23
 220 710 220 710 306.5 710 c 128,-1,24
 393 710 393 710 441.5 663 c 128,-1,25
 490 616 490 616 490 545 c 0,26,27
 490 494 490 494 460.5 433.5 c 128,-1,28
 431 373 431 373 385 318 c 0,29,30
 299 217 299 217 213 148 c 1,31,32
 338 114 338 114 406 114 c 0,33,34
 425 114 425 114 434 124.5 c 128,-1,35
 443 135 443 135 462 173 c 1,36,-1
 495 166 l 1,37,38
 485 -18 485 -18 372 -18 c 0,0,1
EndSplineSet
EndChar

StartChar: three
Encoding: 51 51 22
Width: 477
GlyphClass: 2
Flags: W
LayerCount: 2
Fore
SplineSet
150 662.5 m 128,-1,1
 211 710 211 710 291.5 710 c 128,-1,2
 372 710 372 710 421.5 666.5 c 128,-1,3
 471 623 471 623 471 561 c 128,-1,4
 471 499 471 499 425 451.5 c 128,-1,5
 379 404 379 404 310 386 c 1,6,7
 378 374 378 374 421.5 328 c 128,-1,8
 465 282 465 282 465 209 c 0,9,10
 465 117 465 117 388 52.5 c 128,-1,11
 311 -12 311 -12 208 -12 c 0,12,13
 96 -12 96 -12 30 54 c 0,14,15
 -5 88 -5 88 -5 135 c 0,16,17
 -5 150 -5 150 3 171.5 c 128,-1,18
 11 193 11 193 23 205 c 1,19,20
 33 207 33 207 45 207 c 0,21,22
 116 207 116 207 154 169 c 1,23,-1
 140 63 l 1,24,25
 154 52 154 52 187 52 c 0,26,27
 237 52 237 52 273.5 104.5 c 128,-1,28
 310 157 310 157 310 229 c 128,-1,29
 310 301 310 301 278 327.5 c 128,-1,30
 246 354 246 354 172 354 c 1,31,-1
 149 353 l 1,32,-1
 155 404 l 1,33,34
 204 409 204 409 228.5 420.5 c 128,-1,35
 253 432 253 432 274 448 c 0,36,37
 321 482 321 482 321 549 c 0,38,39
 321 591 321 591 298.5 611.5 c 128,-1,40
 276 632 276 632 245 632 c 0,41,42
 163 632 163 632 113 535 c 1,43,-1
 69 554 l 1,44,0
 89 615 89 615 150 662.5 c 128,-1,1
EndSplineSet
EndChar

StartChar: four
Encoding: 52 52 23
Width: 548
GlyphClass: 2
Flags: W
LayerCount: 2
Fore
SplineSet
510 158 m 0,0,1
 489 144 489 144 460 144 c 128,-1,2
 431 144 431 144 408 148 c 1,3,4
 398 73 398 73 398 16 c 1,5,6
 359 -4 359 -4 241 -4 c 2,7,-1
 231 -4 l 1,8,9
 231 40 231 40 259 177 c 1,10,11
 196 187 196 187 146.5 187 c 128,-1,12
 97 187 97 187 58 174 c 2,13,-1
 19 160 l 1,14,15
 19 160 19 160 18 160 c 0,16,17
 8 160 8 160 -7.5 182 c 128,-1,18
 -23 204 -23 204 -24 223 c 0,19,20
 -24 230 -24 230 -6 248 c 1,21,22
 151 471 151 471 312 693 c 1,23,24
 376 707 376 707 490 710 c 1,25,26
 503 690 503 690 503 653.5 c 128,-1,27
 503 617 503 617 491.5 559 c 128,-1,28
 480 501 480 501 459 411 c 128,-1,29
 438 321 438 321 427 263 c 1,30,31
 465 261 465 261 486.5 261 c 128,-1,32
 508 261 508 261 518 276 c 2,33,-1
 534 303 l 1,34,-1
 570 291 l 1,35,36
 555 187 555 187 510 158 c 0,0,1
281 280 m 1,37,38
 345 561 345 561 346 620 c 1,39,40
 254 514 254 514 120 292 c 1,41,42
 187 291 187 291 281 280 c 1,37,38
EndSplineSet
EndChar

StartChar: five
Encoding: 53 53 24
Width: 481
GlyphClass: 2
Flags: W
LayerCount: 2
Fore
SplineSet
219 695 m 1,0,-1
 434 704 l 1,1,2
 472 704 472 704 498 691 c 1,3,4
 504 677 504 677 504 652 c 0,5,6
 504 606 504 606 486 561 c 1,7,-1
 481 547 l 1,8,9
 434 580 434 580 366 580 c 0,10,11
 245 580 245 580 194 574 c 1,12,13
 182 528 182 528 171 462 c 1,14,15
 291 458 291 458 373 412 c 0,16,17
 417 388 417 388 442 343 c 128,-1,18
 467 298 467 298 467 236 c 0,19,20
 467 136 467 136 391 62 c 128,-1,21
 315 -12 315 -12 210 -12 c 0,22,23
 134 -12 134 -12 71 28.5 c 128,-1,24
 8 69 8 69 8 133 c 0,25,26
 8 180 8 180 32 207 c 1,27,28
 38 208 38 208 49 208 c 0,29,30
 120 208 120 208 160 166 c 1,31,-1
 153 60 l 1,32,33
 169 49 169 49 194 49 c 0,34,35
 248 49 248 49 280.5 106 c 128,-1,36
 313 163 313 163 313 250.5 c 128,-1,37
 313 338 313 338 267 374.5 c 128,-1,38
 221 411 221 411 128 411 c 2,39,-1
 111 411 l 1,40,-1
 91 438 l 1,41,42
 101 472 101 472 119 569 c 128,-1,43
 137 666 137 666 149 699 c 1,44,45
 178 695 178 695 219 695 c 1,0,-1
EndSplineSet
EndChar

StartChar: six
Encoding: 54 54 25
Width: 547
GlyphClass: 2
Flags: W
LayerCount: 2
Fore
SplineSet
367 648 m 0,0,1
 309 648 309 648 270.5 574.5 c 128,-1,2
 232 501 232 501 215 381 c 1,3,4
 276 420 276 420 353 420 c 128,-1,5
 430 420 430 420 471.5 369.5 c 128,-1,6
 513 319 513 319 513 228.5 c 128,-1,7
 513 138 513 138 441 63 c 128,-1,8
 369 -12 369 -12 262 -12 c 0,9,10
 51 -12 51 -12 51 252 c 0,11,12
 51 375 51 375 91.5 480 c 128,-1,13
 132 585 132 585 206 647.5 c 128,-1,14
 280 710 280 710 371 710 c 0,15,16
 439 710 439 710 492 675.5 c 128,-1,17
 545 641 545 641 545 576 c 0,18,19
 545 530 545 530 521 505 c 1,20,21
 513 504 513 504 499 504 c 0,22,23
 426 504 426 504 390 543 c 1,24,-1
 405 637 l 1,25,26
 389 648 389 648 367 648 c 0,0,1
293 350 m 0,27,28
 257 350 257 350 208 316 c 1,29,30
 204 267 204 267 204 191.5 c 128,-1,31
 204 116 204 116 218 83 c 128,-1,32
 232 50 232 50 265 50 c 0,33,34
 312 50 312 50 335 107 c 128,-1,35
 358 164 358 164 358 234 c 0,36,37
 358 350 358 350 293 350 c 0,27,28
EndSplineSet
EndChar

StartChar: seven
Encoding: 55 55 26
Width: 418
GlyphClass: 2
Flags: W
LayerCount: 2
Fore
SplineSet
171 583 m 0,0,1
 121 583 121 583 59 542 c 1,2,3
 37 593 37 593 37 652 c 0,4,5
 37 674 37 674 43 692 c 1,6,7
 103 707 103 707 148 707 c 128,-1,8
 193 707 193 707 264.5 700.5 c 128,-1,9
 336 694 336 694 377.5 694 c 128,-1,10
 419 694 419 694 468 702 c 1,11,-1
 483 667 l 1,12,13
 375 506 375 506 313.5 335.5 c 128,-1,14
 252 165 252 165 238 16 c 1,15,16
 229 9 229 9 184.5 2.5 c 128,-1,17
 140 -4 140 -4 105 -4 c 2,18,-1
 84 -4 l 1,19,20
 94 80 94 80 122 164 c 0,21,22
 169 309 169 309 330 574 c 1,23,24
 253 583 253 583 171 583 c 0,0,1
EndSplineSet
EndChar

StartChar: eight
Encoding: 56 56 27
Width: 500
GlyphClass: 2
Flags: W
LayerCount: 2
Fore
SplineSet
380 46 m 128,-1,1
 307 -11 307 -11 221.5 -11 c 128,-1,2
 136 -11 136 -11 88 31 c 128,-1,3
 40 73 40 73 40 140 c 0,4,5
 40 253 40 253 200 361 c 1,6,7
 122 482 122 482 122 552.5 c 128,-1,8
 122 623 122 623 186.5 666.5 c 128,-1,9
 251 710 251 710 333.5 710 c 128,-1,10
 416 710 416 710 458 674 c 128,-1,11
 500 638 500 638 500 586 c 0,12,13
 500 499 500 499 370 384 c 1,14,15
 377 372 377 372 396 344 c 128,-1,16
 415 316 415 316 425 298 c 0,17,18
 453 250 453 250 453 195 c 0,19,0
 453 103 453 103 380 46 c 128,-1,1
127 145 m 0,20,21
 127 104 127 104 153 80 c 128,-1,22
 179 56 179 56 220.5 56 c 128,-1,23
 262 56 262 56 293 76.5 c 128,-1,24
 324 97 324 97 324 131 c 0,25,26
 324 170 324 170 281 238 c 0,27,28
 266 261 266 261 237 305 c 1,29,30
 127 230 127 230 127 145 c 0,20,21
416 585 m 0,31,32
 416 643 416 643 349 643 c 0,33,34
 313 643 313 643 287.5 627.5 c 128,-1,35
 262 612 262 612 262 584.5 c 128,-1,36
 262 557 262 557 288.5 510 c 128,-1,37
 315 463 315 463 333 440 c 1,38,39
 363 464 363 464 389.5 508.5 c 128,-1,40
 416 553 416 553 416 585 c 0,31,32
EndSplineSet
EndChar

StartChar: nine
Encoding: 57 57 28
Width: 528
GlyphClass: 2
Flags: W
LayerCount: 2
Fore
SplineSet
68 134 m 1,0,1
 124 67 124 67 188 67 c 0,2,3
 320 67 320 67 355 303 c 1,4,5
 302 275 302 275 237 275 c 0,6,7
 153 275 153 275 105.5 326.5 c 128,-1,8
 58 378 58 378 58 460 c 0,9,10
 58 566 58 566 132 638 c 128,-1,11
 206 710 206 710 311.5 710 c 128,-1,12
 417 710 417 710 470 644.5 c 128,-1,13
 523 579 523 579 523 448.5 c 128,-1,14
 523 318 523 318 489 217.5 c 128,-1,15
 455 117 455 117 384 52.5 c 128,-1,16
 313 -12 313 -12 218 -12 c 0,17,18
 144 -12 144 -12 96 22.5 c 128,-1,19
 48 57 48 57 25 99 c 1,20,-1
 68 134 l 1,0,1
285 345 m 0,21,22
 326 345 326 345 362 367 c 1,23,24
 367 424 367 424 367 494.5 c 128,-1,25
 367 565 367 565 354.5 606 c 128,-1,26
 342 647 342 647 300.5 647 c 128,-1,27
 259 647 259 647 236.5 591.5 c 128,-1,28
 214 536 214 536 214 462 c 0,29,30
 214 345 214 345 285 345 c 0,21,22
EndSplineSet
EndChar

StartChar: colon
Encoding: 58 58 29
Width: 318
GlyphClass: 2
Flags: W
LayerCount: 2
Fore
SplineSet
84 9 m 128,-1,1
 65 30 65 30 65 65 c 128,-1,2
 65 100 65 100 91 125.5 c 128,-1,3
 117 151 117 151 152.5 151 c 128,-1,4
 188 151 188 151 207 130.5 c 128,-1,5
 226 110 226 110 226 75.5 c 128,-1,6
 226 41 226 41 199.5 14.5 c 128,-1,7
 173 -12 173 -12 138 -12 c 128,-1,0
 103 -12 103 -12 84 9 c 128,-1,1
121 300 m 128,-1,9
 102 321 102 321 102 356 c 128,-1,10
 102 391 102 391 128 416.5 c 128,-1,11
 154 442 154 442 189.5 442 c 128,-1,12
 225 442 225 442 244 421.5 c 128,-1,13
 263 401 263 401 263 366.5 c 128,-1,14
 263 332 263 332 236.5 305.5 c 128,-1,15
 210 279 210 279 175 279 c 128,-1,8
 140 279 140 279 121 300 c 128,-1,9
EndSplineSet
EndChar

StartChar: semicolon
Encoding: 59 59 30
Width: 320
GlyphClass: 2
Flags: W
LayerCount: 2
Fore
SplineSet
121 300 m 128,-1,1
 102 321 102 321 102 356 c 128,-1,2
 102 391 102 391 128 416.5 c 128,-1,3
 154 442 154 442 189.5 442 c 128,-1,4
 225 442 225 442 244 421.5 c 128,-1,5
 263 401 263 401 263 366.5 c 128,-1,6
 263 332 263 332 236.5 305.5 c 128,-1,7
 210 279 210 279 175 279 c 128,-1,0
 140 279 140 279 121 300 c 128,-1,1
57 16 m 1,8,9
 57 88 57 88 113 151 c 1,10,11
 165 151 165 151 199 120.5 c 128,-1,12
 233 90 233 90 233 49 c 0,13,14
 233 -53 233 -53 111 -192 c 1,15,-1
 69 -165 l 1,16,17
 131 -71 131 -71 136 -32 c 1,18,-1
 57 16 l 1,8,9
EndSplineSet
EndChar

StartChar: less
Encoding: 60 60 31
Width: 421
GlyphClass: 2
Flags: W
LayerCount: 2
Fore
SplineSet
154 283 m 1,0,-1
 391 194 l 1,1,2
 391 131 391 131 382 105 c 1,3,-1
 40 244 l 1,4,-1
 40 319 l 1,5,-1
 382 475 l 1,6,7
 391 450 391 450 391 386 c 1,8,-1
 154 283 l 1,0,-1
EndSplineSet
EndChar

StartChar: equal
Encoding: 61 61 32
Width: 532
GlyphClass: 2
Flags: W
LayerCount: 2
Fore
SplineSet
85 159 m 1,0,1
 85 221 85 221 95 249 c 1,2,-1
 465 249 l 1,3,4
 465 182 465 182 459 159 c 1,5,-1
 85 159 l 1,0,1
85 315 m 1,6,7
 85 374 85 374 96 405 c 1,8,-1
 465 405 l 1,9,10
 465 354 465 354 459 315 c 1,11,-1
 85 315 l 1,6,7
EndSplineSet
EndChar

StartChar: greater
Encoding: 62 62 33
Width: 405
GlyphClass: 2
Flags: W
LayerCount: 2
Fore
SplineSet
55 194 m 1,0,-1
 292 283 l 1,1,-1
 55 386 l 1,2,3
 55 437 55 437 68 473 c 1,4,-1
 406 319 l 1,5,-1
 406 244 l 1,6,-1
 64 105 l 1,7,8
 55 131 55 131 55 194 c 1,0,-1
EndSplineSet
EndChar

StartChar: question
Encoding: 63 63 34
Width: 387
GlyphClass: 2
Flags: W
LayerCount: 2
Fore
SplineSet
338 542 m 0,0,1
 338 504 338 504 315 463.5 c 128,-1,2
 292 423 292 423 264 394 c 0,3,4
 191 318 191 318 191 285 c 0,5,6
 191 275 191 275 207.5 265.5 c 128,-1,7
 224 256 224 256 243 255 c 1,8,9
 234 219 234 219 225 206 c 1,10,11
 153 206 153 206 106.5 236.5 c 128,-1,12
 60 267 60 267 60 323 c 0,13,14
 60 357 60 357 101 414.5 c 128,-1,15
 142 472 142 472 183 528 c 128,-1,16
 224 584 224 584 224 619 c 128,-1,17
 224 654 224 654 189 660 c 1,18,19
 163 592 163 592 105 540 c 1,20,21
 81 547 81 547 43 580 c 128,-1,22
 5 613 5 613 5 627 c 0,23,24
 5 653 5 653 54 681.5 c 128,-1,25
 103 710 103 710 168 710 c 128,-1,26
 233 710 233 710 285.5 669 c 128,-1,27
 338 628 338 628 338 542 c 0,0,1
33 60 m 128,-1,29
 33 93 33 93 60.5 118 c 128,-1,30
 88 143 88 143 124 143 c 128,-1,31
 160 143 160 143 180 123 c 128,-1,32
 200 103 200 103 200 70.5 c 128,-1,33
 200 38 200 38 171.5 13 c 128,-1,34
 143 -12 143 -12 108 -12 c 128,-1,35
 73 -12 73 -12 53 7.5 c 128,-1,28
 33 27 33 27 33 60 c 128,-1,29
EndSplineSet
EndChar

StartChar: at
Encoding: 64 64 35
Width: 774
GlyphClass: 2
Flags: W
LayerCount: 2
Fore
SplineSet
362 -12 m 0,0,1
 208 -12 208 -12 128 78.5 c 128,-1,2
 48 169 48 169 48 305 c 0,3,4
 48 385 48 385 76.5 458 c 128,-1,5
 105 531 105 531 156 587 c 128,-1,6
 207 643 207 643 284 676.5 c 128,-1,7
 361 710 361 710 451 710 c 0,8,9
 595 710 595 710 677 633 c 128,-1,10
 759 556 759 556 759 433 c 0,11,12
 759 365 759 365 733 308.5 c 128,-1,13
 707 252 707 252 669 219.5 c 128,-1,14
 631 187 631 187 595 169.5 c 128,-1,15
 559 152 559 152 534 152 c 0,16,17
 491 152 491 152 477 206 c 1,18,19
 412 152 412 152 360.5 152 c 128,-1,20
 309 152 309 152 277.5 187 c 128,-1,21
 246 222 246 222 246 321 c 128,-1,22
 246 420 246 420 298 488.5 c 128,-1,23
 350 557 350 557 432 557 c 0,24,25
 463 557 463 557 487.5 550 c 128,-1,26
 512 543 512 543 537.5 535 c 128,-1,27
 563 527 563 527 582 522 c 1,28,29
 546 381 546 381 546 253 c 0,30,31
 546 235 546 235 548.5 228 c 128,-1,32
 551 221 551 221 560 221 c 0,33,34
 594 221 594 221 633.5 283.5 c 128,-1,35
 673 346 673 346 673 434 c 128,-1,36
 673 522 673 522 621 584.5 c 128,-1,37
 569 647 569 647 452 647 c 0,38,39
 313 647 313 647 229.5 549.5 c 128,-1,40
 146 452 146 452 146 330.5 c 128,-1,41
 146 209 146 209 203 132.5 c 128,-1,42
 260 56 260 56 373 56 c 0,43,44
 430 56 430 56 475 78 c 1,45,46
 489 56 489 56 495 24 c 2,47,-1
 497 14 l 1,48,49
 430 -12 430 -12 362 -12 c 0,0,1
390 225 m 0,50,51
 422 225 422 225 456 261 c 1,52,53
 466 406 466 406 484 483 c 1,54,55
 458 496 458 496 436 496 c 0,56,57
 394 496 394 496 369 446 c 128,-1,58
 344 396 344 396 344 310.5 c 128,-1,59
 344 225 344 225 390 225 c 0,50,51
EndSplineSet
EndChar

StartChar: A
Encoding: 65 65 36
Width: 765
GlyphClass: 2
Flags: W
LayerCount: 2
Fore
SplineSet
110 -48 m 0,0,1
 50 -48 50 -48 10.5 -8.5 c 128,-1,2
 -29 31 -29 31 -29 83.5 c 128,-1,3
 -29 136 -29 136 -4 181.5 c 128,-1,4
 21 227 21 227 67.5 266 c 128,-1,5
 114 305 114 305 189 330.5 c 128,-1,6
 264 356 264 356 355 359 c 1,7,8
 408 490 408 490 449 652 c 0,9,10
 450 658 450 658 450 667.5 c 128,-1,11
 450 677 450 677 440 684 c 1,12,-1
 440 694 l 1,13,14
 526 710 526 710 597 710 c 1,15,-1
 657 706 l 1,16,17
 683 660 683 660 686 578.5 c 128,-1,18
 689 497 689 497 690 296 c 1,19,20
 798 249 798 249 875 177 c 1,21,22
 871 164 871 164 859.5 151.5 c 128,-1,23
 848 139 848 139 838 133 c 2,24,-1
 828 127 l 1,25,26
 769 185 769 185 691 226 c 1,27,28
 693 169 693 169 702 130 c 0,29,30
 716 66 716 66 735 66 c 0,31,32
 746 66 746 66 761 71 c 1,33,-1
 776 32 l 1,34,35
 707 -12 707 -12 644 -12 c 0,36,37
 540 -12 540 -12 540 145 c 2,38,-1
 540 276 l 1,39,40
 470 293 470 293 413 297 c 1,41,42
 283 -48 283 -48 110 -48 c 0,0,1
142 219 m 128,-1,44
 67 149 67 149 67 88 c 128,-1,45
 67 27 67 27 114 27 c 0,46,47
 210 27 210 27 330 298 c 1,48,43
 217 289 217 289 142 219 c 128,-1,44
521 631 m 128,-1,50
 515 631 515 631 513 630 c 1,51,52
 504 554 504 554 435 357 c 1,53,54
 484 354 484 354 540 343 c 1,55,56
 540 589 540 589 529 630 c 1,57,49
 527 631 527 631 521 631 c 128,-1,50
EndSplineSet
EndChar

StartChar: B
Encoding: 66 66 37
Width: 688
GlyphClass: 2
Flags: W
LayerCount: 2
Fore
SplineSet
454 455 m 128,-1,1
 483 494 483 494 483 552.5 c 128,-1,2
 483 611 483 611 441.5 638 c 128,-1,3
 400 665 400 665 314 665 c 0,4,5
 186 665 186 665 104.5 616 c 128,-1,6
 23 567 23 567 23 511 c 0,7,8
 23 482 23 482 45 464.5 c 128,-1,9
 67 447 67 447 89 441 c 1,10,11
 86 402 86 402 62 367 c 1,12,13
 23 374 23 374 -10 408.5 c 128,-1,14
 -43 443 -43 443 -43 498 c 0,15,16
 -43 596 -43 596 66 660.5 c 128,-1,17
 175 725 175 725 348 725 c 0,18,19
 481 725 481 725 559 683 c 128,-1,20
 637 641 637 641 637 554 c 0,21,22
 637 486 637 486 590 441 c 128,-1,23
 543 396 543 396 470 373 c 1,24,25
 543 362 543 362 586 318 c 1,26,27
 666 339 666 339 734 339 c 1,28,-1
 783 336 l 1,29,30
 785 329 785 329 785 322 c 0,31,32
 785 287 785 287 775 267 c 1,33,34
 748 273 748 273 702.5 273 c 128,-1,35
 657 273 657 273 621 262 c 1,36,37
 634 225 634 225 634 183 c 0,38,39
 634 81 634 81 573 15 c 128,-1,40
 512 -51 512 -51 433 -51 c 0,41,42
 379 -51 379 -51 343 -18.5 c 128,-1,43
 307 14 307 14 307 75.5 c 128,-1,44
 307 137 307 137 352.5 192.5 c 128,-1,45
 398 248 398 248 464 280 c 1,46,47
 438 347 438 347 371 347 c 2,48,-1
 364 347 l 1,49,50
 358 373 358 373 367 406 c 1,51,52
 382 406 382 406 394 409 c 0,53,0
 425 416 425 416 454 455 c 128,-1,1
200 518 m 0,54,55
 200 537 200 537 195.5 546 c 128,-1,56
 191 555 191 555 176 572 c 1,57,-1
 177 579 l 1,58,59
 230 610 230 610 309 610 c 0,60,61
 340 610 340 610 355 605 c 1,62,63
 360 595 360 595 360 562.5 c 128,-1,64
 360 530 360 530 308.5 321.5 c 128,-1,65
 257 113 257 113 248 11 c 1,66,67
 189 -6 189 -6 117 -6 c 0,68,69
 100 -6 100 -6 92 -3 c 1,70,71
 97 60 97 60 148.5 259 c 128,-1,72
 200 458 200 458 200 518 c 0,54,55
409 34 m 0,73,74
 436 34 436 34 457 83.5 c 128,-1,75
 478 133 478 133 478 195 c 1,76,-1
 477 212 l 1,77,78
 440 198 440 198 406.5 161 c 128,-1,79
 373 124 373 124 373 82 c 0,80,81
 373 57 373 57 384.5 45.5 c 128,-1,82
 396 34 396 34 409 34 c 0,73,74
EndSplineSet
EndChar

StartChar: C
Encoding: 67 67 38
Width: 545
GlyphClass: 2
Flags: W
LayerCount: 2
Fore
SplineSet
270 -12 m 0,0,1
 171 -12 171 -12 110 62.5 c 128,-1,2
 49 137 49 137 49 260 c 128,-1,3
 49 383 49 383 91.5 483.5 c 128,-1,4
 134 584 134 584 213 647 c 128,-1,5
 292 710 292 710 388 710 c 0,6,7
 424 710 424 710 452 699 c 1,8,9
 524 747 524 747 601 747 c 0,10,11
 637 747 637 747 668.5 736.5 c 128,-1,12
 700 726 700 726 715 711 c 1,13,14
 707 677 707 677 689 649 c 1,15,16
 642 684 642 684 594 684 c 128,-1,17
 546 684 546 684 506 665 c 1,18,19
 553 615 553 615 553 523.5 c 128,-1,20
 553 432 553 432 505 357 c 128,-1,21
 457 282 457 282 385 282 c 0,22,23
 342 282 342 282 315.5 318 c 128,-1,24
 289 354 289 354 289 408 c 0,25,26
 289 538 289 538 386 643 c 1,27,28
 307 640 307 640 258 539.5 c 128,-1,29
 209 439 209 439 209 297 c 0,30,31
 209 90 209 90 329 90 c 0,32,33
 411 90 411 90 504 192 c 1,34,-1
 539 163 l 1,35,36
 526 140 526 140 496.5 106 c 128,-1,37
 467 72 467 72 438 49 c 128,-1,38
 409 26 409 26 363 7 c 128,-1,39
 317 -12 317 -12 270 -12 c 0,0,1
484 513 m 0,40,41
 484 595 484 595 447 625 c 1,42,43
 403 586 403 586 376.5 530 c 128,-1,44
 350 474 350 474 350 414 c 0,45,46
 350 383 350 383 361.5 363 c 128,-1,47
 373 343 373 343 391 343 c 0,48,49
 430 343 430 343 457 398 c 128,-1,50
 484 453 484 453 484 513 c 0,40,41
EndSplineSet
EndChar

StartChar: D
Encoding: 68 68 39
Width: 785
GlyphClass: 2
Flags: W
LayerCount: 2
Fore
SplineSet
57 152 m 128,-1,1
 90 179 90 179 136 179 c 128,-1,2
 182 179 182 179 231 157 c 1,3,4
 236 169 236 169 254.5 226.5 c 128,-1,5
 273 284 273 284 289 377.5 c 128,-1,6
 305 471 305 471 305 510 c 128,-1,7
 305 549 305 549 283 569 c 1,8,-1
 283 579 l 1,9,10
 341 609 341 609 419 609 c 1,11,-1
 461 605 l 1,12,13
 466 593 466 593 466 559 c 0,14,15
 466 447 466 447 426 322.5 c 128,-1,16
 386 198 386 198 322 110 c 1,17,18
 394 72 394 72 441 72 c 128,-1,19
 488 72 488 72 525.5 114.5 c 128,-1,20
 563 157 563 157 584 220 c 0,21,22
 629 350 629 350 629 455.5 c 128,-1,23
 629 561 629 561 573 612 c 128,-1,24
 517 663 517 663 406.5 663 c 128,-1,25
 296 663 296 663 202.5 600 c 128,-1,26
 109 537 109 537 109 454 c 0,27,28
 109 419 109 419 126 402 c 128,-1,29
 143 385 143 385 172 375 c 1,30,31
 171 337 171 337 150 298 c 1,32,33
 109 306 109 306 76 343.5 c 128,-1,34
 43 381 43 381 43 446 c 0,35,36
 43 566 43 566 157 645.5 c 128,-1,37
 271 725 271 725 442 725 c 0,38,39
 586 725 586 725 681 658 c 0,40,41
 729 624 729 624 755.5 564.5 c 128,-1,42
 782 505 782 505 782 412.5 c 128,-1,43
 782 320 782 320 741 220.5 c 128,-1,44
 700 121 700 121 621.5 54 c 128,-1,45
 543 -13 543 -13 452.5 -13 c 128,-1,46
 362 -13 362 -13 268 50 c 1,47,48
 201 -12 201 -12 132 -12 c 0,49,50
 85 -12 85 -12 54.5 13.5 c 128,-1,51
 24 39 24 39 24 82 c 128,-1,0
 24 125 24 125 57 152 c 128,-1,1
129 64 m 0,52,53
 166 64 166 64 195 98 c 1,54,55
 158 119 158 119 136 119 c 0,56,57
 90 119 90 119 90 92 c 0,58,59
 90 80 90 80 100 72 c 128,-1,60
 110 64 110 64 129 64 c 0,52,53
EndSplineSet
EndChar

StartChar: E
Encoding: 69 69 40
Width: 551
GlyphClass: 2
Flags: W
LayerCount: 2
Fore
SplineSet
578 691 m 0,0,1
 538 691 538 691 501 674 c 1,2,3
 543 640 543 640 543 589 c 128,-1,4
 543 538 543 538 516 499 c 128,-1,5
 489 460 489 460 448.5 460 c 128,-1,6
 408 460 408 460 383.5 485.5 c 128,-1,7
 359 511 359 511 359 556 c 128,-1,8
 359 601 359 601 389 644 c 1,9,10
 342 641 342 641 309 604.5 c 128,-1,11
 276 568 276 568 276 508 c 128,-1,12
 276 448 276 448 300 402 c 1,13,14
 334 409 334 409 369 409 c 0,15,16
 482 409 482 409 482 341 c 0,17,18
 482 312 482 312 459.5 289.5 c 128,-1,19
 437 267 437 267 384.5 267 c 128,-1,20
 332 267 332 267 270 304 c 1,21,22
 212 249 212 249 212 182 c 0,23,24
 212 138 212 138 240 109 c 128,-1,25
 268 80 268 80 316 80 c 128,-1,26
 364 80 364 80 416 112 c 128,-1,27
 468 144 468 144 508 189 c 1,28,-1
 544 157 l 1,29,30
 518 119 518 119 472 76 c 0,31,32
 379 -12 379 -12 266 -12 c 0,33,34
 189 -12 189 -12 124 28 c 1,35,36
 92 49 92 49 72 86 c 128,-1,37
 52 123 52 123 52 171 c 0,38,39
 52 303 52 303 194 370 c 1,40,41
 144 433 144 433 144 510 c 0,42,43
 144 605 144 605 214 657.5 c 128,-1,44
 284 710 284 710 378 710 c 0,45,46
 416 710 416 710 447 701 c 1,47,48
 514 747 514 747 594 747 c 0,49,50
 631 747 631 747 662.5 737 c 128,-1,51
 694 727 694 727 708 713 c 1,52,53
 706 680 706 680 686 658 c 1,54,-1
 679 651 l 1,55,56
 644 691 644 691 578 691 c 0,0,1
484 572 m 0,57,58
 484 615 484 615 446 635 c 1,59,60
 416 603 416 603 416 559 c 128,-1,61
 416 515 416 515 447 515 c 0,62,63
 463 515 463 515 473.5 531.5 c 128,-1,64
 484 548 484 548 484 572 c 0,57,58
416.5 354.5 m 128,-1,66
 405 361 405 361 383.5 361 c 128,-1,67
 362 361 362 361 335 349 c 1,68,69
 363 320 363 320 395.5 320 c 128,-1,70
 428 320 428 320 428 338 c 0,71,65
 428 348 428 348 416.5 354.5 c 128,-1,66
EndSplineSet
EndChar

StartChar: F
Encoding: 70 70 41
Width: 562
GlyphClass: 2
Flags: W
LayerCount: 2
Fore
SplineSet
639 555 m 1,0,1
 589 595 589 595 523.5 595 c 128,-1,2
 458 595 458 595 353 569 c 1,3,4
 369 514 369 514 369 457 c 128,-1,5
 369 400 369 400 366 365 c 1,6,7
 409 373 409 373 452 373 c 128,-1,8
 495 373 495 373 536 357 c 1,9,10
 536 313 536 313 518 288 c 1,11,12
 473 305 473 305 414 305 c 0,13,14
 397 305 397 305 359 299 c 1,15,16
 336 144 336 144 268.5 52.5 c 128,-1,17
 201 -39 201 -39 110 -39 c 0,18,19
 55 -39 55 -39 21 -6 c 128,-1,20
 -13 27 -13 27 -13 82 c 0,21,22
 -13 157 -13 157 49.5 224.5 c 128,-1,23
 112 292 112 292 214 332 c 1,24,25
 221 362 221 362 221 420.5 c 128,-1,26
 221 479 221 479 210 523 c 1,27,28
 185 517 185 517 154 517 c 0,29,30
 95 517 95 517 60.5 544 c 128,-1,31
 26 571 26 571 26 613.5 c 128,-1,32
 26 656 26 656 66 683 c 128,-1,33
 106 710 106 710 170 710 c 0,34,35
 267 710 267 710 320 635 c 1,36,37
 398 677 398 677 431 693 c 0,38,39
 512 734 512 734 563.5 734 c 128,-1,40
 615 734 615 734 645 687 c 128,-1,41
 675 640 675 640 675 581 c 1,42,43
 671 573 671 573 639 555 c 1,0,1
95 57 m 0,44,45
 131 57 131 57 160 115 c 128,-1,46
 189 173 189 173 203 257 c 1,47,48
 142 233 142 233 100.5 187 c 128,-1,49
 59 141 59 141 59 100 c 0,50,51
 59 80 59 80 69 68.5 c 128,-1,52
 79 57 79 57 95 57 c 0,44,45
117.5 580.5 m 128,-1,54
 134 572 134 572 154 572 c 128,-1,55
 174 572 174 572 190 578 c 1,56,57
 165 627 165 627 127 627 c 0,58,59
 101 627 101 627 101 605 c 0,60,53
 101 589 101 589 117.5 580.5 c 128,-1,54
EndSplineSet
EndChar

StartChar: G
Encoding: 71 71 42
Width: 547
GlyphClass: 2
Flags: W
LayerCount: 2
Fore
SplineSet
745.5 -343 m 128,-1,1
 711 -369 711 -369 673.5 -369 c 128,-1,2
 636 -369 636 -369 604 -358 c 128,-1,3
 572 -347 572 -347 536.5 -323.5 c 128,-1,4
 501 -300 501 -300 477 -281.5 c 128,-1,5
 453 -263 453 -263 412 -228.5 c 128,-1,6
 371 -194 371 -194 354 -181 c 1,7,8
 293 -240 293 -240 216 -240 c 0,9,10
 167 -240 167 -240 135.5 -215 c 128,-1,11
 104 -190 104 -190 104 -148.5 c 128,-1,12
 104 -107 104 -107 137.5 -77.5 c 128,-1,13
 171 -48 171 -48 219 -48 c 128,-1,14
 267 -48 267 -48 313 -64 c 1,15,16
 339 -5 339 -5 351 82 c 1,17,18
 308 55 308 55 254 55 c 0,19,20
 163 55 163 55 106 122.5 c 128,-1,21
 49 190 49 190 49 298 c 128,-1,22
 49 406 49 406 91 498.5 c 128,-1,23
 133 591 133 591 211.5 650.5 c 128,-1,24
 290 710 290 710 385 710 c 0,25,26
 418 710 418 710 448 700 c 1,27,28
 523 747 523 747 598.5 747 c 128,-1,29
 674 747 674 747 712 711 c 1,30,31
 704 671 704 671 684 649 c 1,32,33
 644 684 644 684 595 684 c 128,-1,34
 546 684 546 684 503 665 c 1,35,36
 549 616 549 616 549 536 c 0,37,38
 549 478 549 478 530.5 423.5 c 128,-1,39
 512 369 512 369 472 330.5 c 128,-1,40
 432 292 432 292 383.5 292 c 128,-1,41
 335 292 335 292 310 329 c 128,-1,42
 285 366 285 366 285 424 c 0,43,44
 285 541 285 541 378 641 c 1,45,46
 304 636 304 636 256.5 546.5 c 128,-1,47
 209 457 209 457 209 345.5 c 128,-1,48
 209 234 209 234 238 192 c 128,-1,49
 267 150 267 150 311 150 c 0,50,51
 384 150 384 150 443 247 c 1,52,-1
 523 228 l 1,53,54
 483 9 483 9 410 -111 c 1,55,56
 425 -119 425 -119 483.5 -154.5 c 128,-1,57
 542 -190 542 -190 568.5 -203.5 c 128,-1,58
 595 -217 595 -217 642 -232.5 c 128,-1,59
 689 -248 689 -248 729 -248 c 1,60,-1
 774 -245 l 1,61,62
 791 -269 791 -269 797 -284 c 1,63,0
 780 -317 780 -317 745.5 -343 c 128,-1,1
453.5 405.5 m 128,-1,65
 479 458 479 458 479 527 c 128,-1,66
 479 596 479 596 441 626 c 1,67,68
 397 588 397 588 371.5 534 c 128,-1,69
 346 480 346 480 346 434 c 0,70,71
 346 353 346 353 387 353 c 128,-1,64
 428 353 428 353 453.5 405.5 c 128,-1,65
211 -165 m 0,72,73
 247 -165 247 -165 279 -129 c 1,74,75
 242 -109 242 -109 212 -109 c 0,76,77
 169 -109 169 -109 169 -138 c 0,78,79
 169 -151 169 -151 182 -158 c 128,-1,80
 195 -165 195 -165 211 -165 c 0,72,73
EndSplineSet
EndChar

StartChar: H
Encoding: 72 72 43
Width: 759
GlyphClass: 2
Flags: W
LayerCount: 2
Fore
SplineSet
509 15.5 m 128,-1,1
 485 43 485 43 485 88.5 c 128,-1,2
 485 134 485 134 530 334 c 1,3,4
 445 332 445 332 394 318 c 1,5,6
 365 177 365 177 305 74 c 0,7,8
 274 22 274 22 230 -8.5 c 128,-1,9
 186 -39 186 -39 134 -39 c 128,-1,10
 82 -39 82 -39 49 -4.5 c 128,-1,11
 16 30 16 30 16 86 c 0,12,13
 16 166 16 166 82 236.5 c 128,-1,14
 148 307 148 307 249 350 c 1,15,16
 258 442 258 442 258 500.5 c 128,-1,17
 258 559 258 559 246.5 583 c 128,-1,18
 235 607 235 607 210 607 c 128,-1,19
 185 607 185 607 144 588.5 c 128,-1,20
 103 570 103 570 67 539 c 1,21,-1
 42 575 l 1,22,23
 78 619 78 619 148 658.5 c 128,-1,24
 218 698 218 698 283 698 c 0,25,26
 414 698 414 698 414 499 c 0,27,28
 414 452 414 452 406 386 c 1,29,30
 471 399 471 399 545 403 c 1,31,32
 579 561 579 561 579 653 c 0,33,34
 579 670 579 670 577 679 c 1,35,36
 657 710 657 710 738 710 c 1,37,38
 741 702 741 702 741 682 c 0,39,40
 741 620 741 620 692 399 c 1,41,42
 812 390 812 390 856 375 c 1,43,44
 857 371 857 371 857 360 c 0,45,46
 857 339 857 339 838 307 c 1,47,48
 773 327 773 327 678 333 c 1,49,50
 643 165 643 165 643 115.5 c 128,-1,51
 643 66 643 66 667 66 c 0,52,53
 680 66 680 66 695 71 c 1,54,-1
 710 32 l 1,55,56
 638 -12 638 -12 585.5 -12 c 128,-1,0
 533 -12 533 -12 509 15.5 c 128,-1,1
124 57 m 0,57,58
 156 57 156 57 187 112 c 128,-1,59
 218 167 218 167 237 276 c 1,60,61
 181 252 181 252 135 201 c 128,-1,62
 89 150 89 150 89 103 c 0,63,64
 89 81 89 81 99.5 69 c 128,-1,65
 110 57 110 57 124 57 c 0,57,58
EndSplineSet
EndChar

StartChar: I
Encoding: 73 73 44
Width: 398
GlyphClass: 2
Flags: W
LayerCount: 2
Fore
SplineSet
273 698 m 0,0,1
 409 698 409 698 409 501 c 0,2,3
 409 368 409 368 365 228 c 0,4,5
 342 155 342 155 310.5 95.5 c 128,-1,6
 279 36 279 36 231.5 -1.5 c 128,-1,7
 184 -39 184 -39 128.5 -39 c 128,-1,8
 73 -39 73 -39 40 -3.5 c 128,-1,9
 7 32 7 32 7 88 c 0,10,11
 7 168 7 168 72.5 236 c 128,-1,12
 138 304 138 304 239 350 c 1,13,14
 253 427 253 427 253 494.5 c 128,-1,15
 253 562 253 562 240 587 c 128,-1,16
 227 612 227 612 202.5 612 c 128,-1,17
 178 612 178 612 144 599 c 128,-1,18
 110 586 110 586 79 564 c 1,19,-1
 52 604 l 1,20,21
 94 641 94 641 155.5 669.5 c 128,-1,22
 217 698 217 698 273 698 c 0,0,1
125 199.5 m 128,-1,24
 82 153 82 153 82 105.5 c 128,-1,25
 82 58 82 58 119 58 c 1,26,27
 151 59 151 59 180.5 110.5 c 128,-1,28
 210 162 210 162 229 272 c 1,29,23
 168 246 168 246 125 199.5 c 128,-1,24
EndSplineSet
EndChar

StartChar: J
Encoding: 74 74 45
Width: 399
GlyphClass: 2
Flags: W
LayerCount: 2
Fore
SplineSet
330 648 m 128,-1,1
 354 598 354 598 354 492 c 128,-1,2
 354 386 354 386 327 252 c 1,3,4
 388 260 388 260 428 260 c 128,-1,5
 468 260 468 260 481 260 c 1,6,7
 483 252 483 252 483 236 c 128,-1,8
 483 220 483 220 474 191 c 1,9,10
 438 195 438 195 393.5 194 c 128,-1,11
 349 193 349 193 313 188 c 1,12,13
 276 34 276 34 214 -68 c 0,14,15
 181 -123 181 -123 136.5 -154 c 128,-1,16
 92 -185 92 -185 39 -185 c 128,-1,17
 -14 -185 -14 -185 -46.5 -148 c 128,-1,18
 -79 -111 -79 -111 -79 -53 c 0,19,20
 -79 34 -79 34 -8.5 109.5 c 128,-1,21
 62 185 62 185 164 223 c 1,22,23
 196 358 196 358 196 491 c 0,24,25
 196 555 196 555 186.5 578 c 128,-1,26
 177 601 177 601 159 601 c 0,27,28
 114 601 114 601 33 551 c 1,29,-1
 6 591 l 1,30,31
 51 631 51 631 117 664.5 c 128,-1,32
 183 698 183 698 244.5 698 c 128,-1,0
 306 698 306 698 330 648 c 128,-1,1
-10 -43 m 0,33,34
 -10 -64 -10 -64 -2 -76 c 0,35,36
 9 -93 9 -93 28 -93 c 0,37,38
 60 -92 60 -92 94.5 -30 c 128,-1,39
 129 32 129 32 153 147 c 1,40,41
 86 122 86 122 38 67.5 c 128,-1,42
 -10 13 -10 13 -10 -43 c 0,33,34
EndSplineSet
EndChar

StartChar: K
Encoding: 75 75 46
Width: 602
GlyphClass: 2
Flags: W
LayerCount: 2
Fore
SplineSet
652 638 m 0,0,1
 652 559 652 559 583.5 479.5 c 128,-1,2
 515 400 515 400 422 345 c 1,3,4
 443 324 443 324 477 231 c 128,-1,5
 511 138 511 138 531 87.5 c 128,-1,6
 551 37 551 37 579.5 -9 c 128,-1,7
 608 -55 608 -55 637 -55 c 0,8,9
 643 -55 643 -55 646 -54 c 1,10,-1
 656 -90 l 1,11,12
 607 -129 607 -129 544 -129 c 128,-1,13
 481 -129 481 -129 455 -96.5 c 128,-1,14
 429 -64 429 -64 407 37 c 0,15,16
 404 50 404 50 390 120 c 0,17,18
 359 273 359 273 340 308 c 1,19,20
 334 307 334 307 316 307 c 128,-1,21
 298 307 298 307 289 314 c 1,22,23
 282 321 282 321 282 348 c 128,-1,24
 282 375 282 375 287 389.5 c 128,-1,25
 292 404 292 404 320.5 404 c 128,-1,26
 349 404 349 404 375 387 c 1,27,28
 411 411 411 411 464 479 c 1,29,30
 492 530 492 530 492 595 c 0,31,32
 492 624 492 624 487 656 c 1,33,34
 520 677 520 677 554.5 689.5 c 128,-1,35
 589 702 589 702 607 704 c 2,36,-1
 625 706 l 1,37,38
 652 690 652 690 652 638 c 0,0,1
161 621 m 0,39,40
 161 644 161 644 137 671 c 1,41,-1
 138 678 l 1,42,43
 193 710 193 710 273 710 c 0,44,45
 304 710 304 710 319 705 c 1,46,47
 324 694 324 694 324 674.5 c 128,-1,48
 324 655 324 655 321 630.5 c 128,-1,49
 318 606 318 606 315.5 587.5 c 128,-1,50
 313 569 313 569 305 534 c 128,-1,51
 297 499 297 499 293 484 c 0,52,53
 211 167 211 167 200 11 c 1,54,55
 141 -6 141 -6 69 -6 c 0,56,57
 52 -6 52 -6 44 -3 c 1,58,59
 49 59 49 59 105 307 c 128,-1,60
 161 555 161 555 161 621 c 0,39,40
EndSplineSet
EndChar

StartChar: L
Encoding: 76 76 47
Width: 472
GlyphClass: 2
Flags: W
LayerCount: 2
Fore
SplineSet
534.5 -114.5 m 128,-1,1
 502 -141 502 -141 465 -141 c 128,-1,2
 428 -141 428 -141 392.5 -120.5 c 128,-1,3
 357 -100 357 -100 335 -79 c 128,-1,4
 313 -58 313 -58 272.5 -14 c 128,-1,5
 232 30 232 30 217 45 c 1,6,7
 164 -12 164 -12 88 -12 c 0,8,9
 38 -12 38 -12 6 13 c 128,-1,10
 -26 38 -26 38 -26 79.5 c 128,-1,11
 -26 121 -26 121 8.5 150.5 c 128,-1,12
 43 180 43 180 101 180 c 0,13,14
 134 180 134 180 167 169 c 1,15,16
 177 218 177 218 183 308 c 1,17,18
 122 319 122 319 83.5 359.5 c 128,-1,19
 45 400 45 400 45 472 c 0,20,21
 45 500 45 500 54 543 c 1,22,23
 65 545 65 545 83 545 c 128,-1,24
 101 545 101 545 120 531 c 1,25,26
 107 507 107 507 107 467 c 0,27,28
 107 386 107 386 186 367 c 1,29,30
 190 476 190 476 198 520.5 c 128,-1,31
 206 565 206 565 226 605.5 c 128,-1,32
 246 646 246 646 292.5 678 c 128,-1,33
 339 710 339 710 411 710 c 128,-1,34
 483 710 483 710 522.5 667.5 c 128,-1,35
 562 625 562 625 562 567 c 0,36,37
 562 486 562 486 487.5 403.5 c 128,-1,38
 413 321 413 321 303 303 c 1,39,40
 272 168 272 168 258 120 c 1,41,42
 274 108 274 108 316.5 75 c 128,-1,43
 359 42 359 42 381.5 26.5 c 128,-1,44
 404 11 404 11 442.5 -4.5 c 128,-1,45
 481 -20 481 -20 517 -20 c 1,46,-1
 559 -17 l 1,47,48
 576 -41 576 -41 582 -56 c 1,49,0
 567 -88 567 -88 534.5 -114.5 c 128,-1,1
495 558 m 0,50,51
 495 588 495 588 479.5 607 c 128,-1,52
 464 626 464 626 438 626 c 0,53,54
 371 626 371 626 340 480 c 0,55,56
 323 400 323 400 316 364 c 1,57,58
 390 377 390 377 442.5 437.5 c 128,-1,59
 495 498 495 498 495 558 c 0,50,51
79 63 m 0,60,61
 114 63 114 63 141 101 c 1,62,63
 112 119 112 119 83 119 c 0,64,65
 40 119 40 119 40 91 c 0,66,67
 40 77 40 77 52 70 c 128,-1,68
 64 63 64 63 79 63 c 0,60,61
EndSplineSet
EndChar

StartChar: M
Encoding: 77 77 48
Width: 1057
GlyphClass: 2
Flags: W
LayerCount: 2
Fore
SplineSet
999 33 m 1,0,1
 934 -12 934 -12 877 -12 c 128,-1,2
 820 -12 820 -12 796.5 15 c 128,-1,3
 773 42 773 42 773 86 c 128,-1,4
 773 130 773 130 820 312.5 c 128,-1,5
 867 495 867 495 867 539 c 0,6,7
 867 594 867 594 828 594 c 128,-1,8
 789 594 789 594 722 536 c 1,9,10
 720 528 720 528 689 414 c 0,11,12
 621 164 621 164 616 11 c 1,13,14
 577 -4 577 -4 475 -4 c 2,15,-1
 462 -4 l 1,16,17
 462 58 462 58 515 282 c 128,-1,18
 568 506 568 506 568 543 c 0,19,20
 568 594 568 594 527 594 c 0,21,22
 483 594 483 594 412 532 c 1,23,24
 412 328 412 328 340 150 c 0,25,26
 306 66 306 66 251.5 13.5 c 128,-1,27
 197 -39 197 -39 139.5 -39 c 128,-1,28
 82 -39 82 -39 49.5 -4.5 c 128,-1,29
 17 30 17 30 17 91.5 c 128,-1,30
 17 153 17 153 61 236.5 c 128,-1,31
 105 320 105 320 154.5 379.5 c 128,-1,32
 204 439 204 439 256 487 c 1,33,34
 256 579 256 579 234 598 c 0,35,36
 223 607 223 607 202.5 607 c 128,-1,37
 182 607 182 607 142.5 589 c 128,-1,38
 103 571 103 571 67 540 c 1,39,-1
 42 575 l 1,40,41
 77 618 77 618 147 658 c 128,-1,42
 217 698 217 698 271.5 698 c 128,-1,43
 326 698 326 698 357.5 669.5 c 128,-1,44
 389 641 389 641 402 597 c 1,45,46
 540 710 540 710 620 710 c 0,47,48
 660 710 660 710 688.5 685 c 128,-1,49
 717 660 717 660 725 610 c 1,50,51
 843 710 843 710 922 710 c 0,52,53
 966 710 966 710 996.5 675 c 128,-1,54
 1027 640 1027 640 1027 580.5 c 128,-1,55
 1027 521 1027 521 978 341 c 128,-1,56
 929 161 929 161 929 113.5 c 128,-1,57
 929 66 929 66 959 66 c 0,58,59
 969 66 969 66 984 71 c 1,60,-1
 999 33 l 1,0,1
120 56 m 0,61,62
 160 56 160 56 199.5 155.5 c 128,-1,63
 239 255 239 255 253 405 c 1,64,65
 189 339 189 339 138 248.5 c 128,-1,66
 87 158 87 158 87 107 c 128,-1,67
 87 56 87 56 120 56 c 0,61,62
EndSplineSet
EndChar

StartChar: N
Encoding: 78 78 49
Width: 762
GlyphClass: 2
Flags: W
LayerCount: 2
Fore
SplineSet
411 516 m 1,0,-1
 412 497 l 1,1,2
 412 419 412 419 393 328 c 128,-1,3
 374 237 374 237 340 154 c 128,-1,4
 306 71 306 71 251.5 16 c 128,-1,5
 197 -39 197 -39 139.5 -39 c 128,-1,6
 82 -39 82 -39 49.5 -5 c 128,-1,7
 17 29 17 29 17 89 c 0,8,9
 17 184 17 184 94 295.5 c 128,-1,10
 171 407 171 407 256 480 c 1,11,12
 256 576 256 576 234 597 c 0,13,14
 223 607 223 607 202.5 607 c 128,-1,15
 182 607 182 607 142.5 589 c 128,-1,16
 103 571 103 571 67 540 c 1,17,-1
 42 575 l 1,18,19
 78 619 78 619 147.5 658.5 c 128,-1,20
 217 698 217 698 280 698 c 0,21,22
 380 698 380 698 404 582 c 1,23,24
 550 710 550 710 639 710 c 0,25,26
 683 710 683 710 713.5 675 c 128,-1,27
 744 640 744 640 744 580.5 c 128,-1,28
 744 521 744 521 695 341 c 128,-1,29
 646 161 646 161 646 113.5 c 128,-1,30
 646 66 646 66 676 66 c 0,31,32
 686 66 686 66 701 71 c 1,33,-1
 716 33 l 1,34,35
 651 -12 651 -12 594 -12 c 128,-1,36
 537 -12 537 -12 513.5 15 c 128,-1,37
 490 42 490 42 490 86 c 128,-1,38
 490 130 490 130 537 312.5 c 128,-1,39
 584 495 584 495 584 539 c 0,40,41
 584 594 584 594 544 594 c 0,42,43
 496 594 496 594 411 516 c 1,0,-1
120 56 m 0,44,45
 160 56 160 56 199.5 152 c 128,-1,46
 239 248 239 248 253 398 c 1,47,48
 198 347 198 347 142.5 255 c 128,-1,49
 87 163 87 163 87 104 c 0,50,51
 87 80 87 80 96.5 68 c 128,-1,52
 106 56 106 56 120 56 c 0,44,45
EndSplineSet
EndChar

StartChar: O
Encoding: 79 79 50
Width: 632
GlyphClass: 2
Flags: W
LayerCount: 2
Fore
SplineSet
725 322 m 1,0,1
 736 295 736 295 740 263 c 1,2,3
 717 249 717 249 670 234 c 128,-1,4
 623 219 623 219 582 216 c 1,5,6
 538 113 538 113 460.5 50.5 c 128,-1,7
 383 -12 383 -12 268 -12 c 128,-1,8
 153 -12 153 -12 92.5 65.5 c 128,-1,9
 32 143 32 143 32 280.5 c 128,-1,10
 32 418 32 418 96 531.5 c 128,-1,11
 160 645 160 645 279 709 c 1,12,-1
 300 674 l 1,13,14
 192 539 192 539 192 287 c 0,15,16
 192 123 192 123 242 78 c 0,17,18
 265 56 265 56 300 56 c 0,19,20
 399 56 399 56 444 226 c 1,21,22
 366 240 366 240 324 292.5 c 128,-1,23
 282 345 282 345 282 439.5 c 128,-1,24
 282 534 282 534 336 609.5 c 128,-1,25
 390 685 390 685 466.5 685 c 128,-1,26
 543 685 543 685 586 617.5 c 128,-1,27
 629 550 629 550 629 444 c 0,28,29
 629 377 629 377 602 281 c 1,30,31
 647 283 647 283 706 312 c 1,32,-1
 725 322 l 1,0,1
463 552.5 m 128,-1,34
 455 587 455 587 425 587 c 128,-1,35
 395 587 395 587 369.5 542.5 c 128,-1,36
 344 498 344 498 344 433 c 128,-1,37
 344 368 344 368 373 331.5 c 128,-1,38
 402 295 402 295 455 290 c 1,39,40
 471 375 471 375 471 446.5 c 128,-1,33
 471 518 471 518 463 552.5 c 128,-1,34
EndSplineSet
EndChar

StartChar: P
Encoding: 80 80 51
Width: 593
GlyphClass: 2
Flags: W
LayerCount: 2
Fore
SplineSet
200 518 m 0,0,1
 200 537 200 537 195.5 546 c 128,-1,2
 191 555 191 555 176 572 c 1,3,-1
 177 579 l 1,4,5
 230 610 230 610 309 610 c 0,6,7
 340 610 340 610 355 605 c 1,8,9
 360 595 360 595 360 563.5 c 128,-1,10
 360 532 360 532 312 338 c 1,11,12
 334 329 334 329 362 329 c 0,13,14
 410 329 410 329 441 362 c 128,-1,15
 472 395 472 395 481.5 433.5 c 128,-1,16
 491 472 491 472 491 515 c 0,17,18
 491 594 491 594 448.5 629.5 c 128,-1,19
 406 665 406 665 311 665 c 0,20,21
 187 665 187 665 105 615 c 128,-1,22
 23 565 23 565 23 510 c 0,23,24
 23 482 23 482 44.5 464.5 c 128,-1,25
 66 447 66 447 89 441 c 1,26,27
 85 405 85 405 64 367 c 1,28,29
 26 372 26 372 -8.5 407 c 128,-1,30
 -43 442 -43 442 -43 499 c 0,31,32
 -43 601 -43 601 71 663 c 128,-1,33
 185 725 185 725 337 725 c 128,-1,34
 489 725 489 725 567 674.5 c 128,-1,35
 645 624 645 624 645 518 c 0,36,37
 645 379 645 379 534 308 c 0,38,39
 474 269 474 269 390 269 c 0,40,41
 337 269 337 269 299 285 c 1,42,43
 257 114 257 114 248 11 c 1,44,45
 189 -6 189 -6 117 -6 c 0,46,47
 100 -6 100 -6 92 -3 c 1,48,49
 97 60 97 60 148.5 259 c 128,-1,50
 200 458 200 458 200 518 c 0,0,1
EndSplineSet
EndChar

StartChar: Q
Encoding: 81 81 52
Width: 633
GlyphClass: 2
Flags: W
LayerCount: 2
Fore
SplineSet
635 431 m 0,0,1
 635 281 635 281 560 144.5 c 128,-1,2
 485 8 485 8 372 -79 c 1,3,4
 424 -113 424 -113 454 -130.5 c 128,-1,5
 484 -148 484 -148 531 -165 c 128,-1,6
 578 -182 578 -182 618 -182 c 1,7,-1
 660 -179 l 1,8,9
 677 -203 677 -203 683 -218 c 1,10,11
 666 -253 666 -253 634 -278 c 128,-1,12
 602 -303 602 -303 560 -303 c 0,13,14
 522 -303 522 -303 491 -286.5 c 128,-1,15
 460 -270 460 -270 444 -260.5 c 128,-1,16
 428 -251 428 -251 403.5 -231 c 128,-1,17
 379 -211 379 -211 366.5 -200.5 c 128,-1,18
 354 -190 354 -190 326.5 -165.5 c 128,-1,19
 299 -141 299 -141 290 -133 c 1,20,21
 210 -174 210 -174 151 -174 c 128,-1,22
 92 -174 92 -174 60.5 -149 c 128,-1,23
 29 -124 29 -124 29 -82.5 c 128,-1,24
 29 -41 29 -41 61 -11.5 c 128,-1,25
 93 18 93 18 150.5 18 c 128,-1,26
 208 18 208 18 290 -28 c 1,27,28
 369 41 369 41 422 160 c 128,-1,29
 475 279 475 279 475 443 c 0,30,31
 475 642 475 642 385 642 c 0,32,33
 311 642 311 642 262.5 533 c 128,-1,34
 214 424 214 424 214 284 c 0,35,36
 214 184 214 184 245 184 c 0,37,38
 270 184 270 184 289.5 234.5 c 128,-1,39
 309 285 309 285 309 335 c 128,-1,40
 309 385 309 385 303 418 c 1,41,42
 332 430 332 430 365 430 c 2,43,-1
 367 430 l 1,44,45
 371 404 371 404 371 371 c 0,46,47
 371 244 371 244 325.5 163 c 128,-1,48
 280 82 280 82 200 82 c 0,49,50
 135 82 135 82 99.5 137 c 128,-1,51
 64 192 64 192 64 297.5 c 128,-1,52
 64 403 64 403 106.5 498 c 128,-1,53
 149 593 149 593 229 651.5 c 128,-1,54
 309 710 309 710 409 710 c 0,55,56
 554 710 554 710 607 586 c 0,57,58
 635 520 635 520 635 431 c 0,0,1
94 -72 m 0,59,60
 94 -100 94 -100 146 -100 c 0,61,62
 174 -100 174 -100 219 -76 c 1,63,64
 170 -43 170 -43 135 -43 c 0,65,66
 116 -43 116 -43 105 -52 c 128,-1,67
 94 -61 94 -61 94 -72 c 0,59,60
EndSplineSet
EndChar

StartChar: R
Encoding: 82 82 53
Width: 634
GlyphClass: 2
Flags: W
LayerCount: 2
Fore
SplineSet
381 282 m 1,0,1
 374 281 374 281 355 281 c 128,-1,2
 336 281 336 281 327 288 c 1,3,4
 320 295 320 295 320 322 c 128,-1,5
 320 349 320 349 325 363.5 c 128,-1,6
 330 378 330 378 356.5 378 c 128,-1,7
 383 378 383 378 407 365 c 1,8,9
 436 387 436 387 461 433 c 128,-1,10
 486 479 486 479 486 528 c 0,11,12
 486 599 486 599 443.5 632 c 128,-1,13
 401 665 401 665 312 665 c 0,14,15
 184 665 184 665 102.5 615 c 128,-1,16
 21 565 21 565 21 509 c 0,17,18
 21 482 21 482 43 464.5 c 128,-1,19
 65 447 65 447 87 441 c 1,20,21
 83 401 83 401 62 367 c 1,22,23
 23 373 23 373 -11 407.5 c 128,-1,24
 -45 442 -45 442 -45 501 c 0,25,26
 -45 599 -45 599 68 662 c 128,-1,27
 181 725 181 725 348 725 c 0,28,29
 482 725 482 725 560 675 c 128,-1,30
 638 625 638 625 638 528 c 0,31,32
 638 460 638 460 587 405.5 c 128,-1,33
 536 351 536 351 464 316 c 1,34,35
 481 299 481 299 494.5 268 c 128,-1,36
 508 237 508 237 516.5 217.5 c 128,-1,37
 525 198 525 198 530 186 c 128,-1,38
 535 174 535 174 544 152 c 0,39,40
 583 46 583 46 614.5 -4.5 c 128,-1,41
 646 -55 646 -55 675 -55 c 0,42,43
 681 -55 681 -55 684 -54 c 1,44,-1
 694 -90 l 1,45,46
 645 -129 645 -129 582 -129 c 128,-1,47
 519 -129 519 -129 493 -96.5 c 128,-1,48
 467 -64 467 -64 445 37 c 0,49,50
 442 47 442 47 428 110 c 0,51,52
 400 244 400 244 381 282 c 1,0,1
188 522 m 0,53,54
 188 545 188 545 164 572 c 1,55,-1
 165 579 l 1,56,57
 218 610 218 610 297 610 c 0,58,59
 328 610 328 610 343 605 c 1,60,61
 348 594 348 594 348 574 c 0,62,63
 348 530 348 530 296.5 322 c 128,-1,64
 245 114 245 114 236 11 c 1,65,66
 177 -6 177 -6 105 -6 c 0,67,68
 88 -6 88 -6 80 -3 c 1,69,70
 85 61 85 61 136.5 258.5 c 128,-1,71
 188 456 188 456 188 522 c 0,53,54
EndSplineSet
EndChar

StartChar: S
Encoding: 83 83 54
Width: 591
GlyphClass: 2
Flags: W
LayerCount: 2
Fore
SplineSet
179 12 m 128,-1,1
 141 46 141 46 141 99.5 c 128,-1,2
 141 153 141 153 188.5 187 c 128,-1,3
 236 221 236 221 300 235 c 1,4,5
 289 253 289 253 221 353 c 1,6,7
 180 344 180 344 142 344 c 0,8,9
 58 344 58 344 10.5 387.5 c 128,-1,10
 -37 431 -37 431 -37 506 c 0,11,12
 -37 538 -37 538 -28 579 c 1,13,-1
 -26 591 l 1,14,15
 15 590 15 590 41 579 c 1,16,17
 24 540 24 540 24 498 c 128,-1,18
 24 456 24 456 55 430.5 c 128,-1,19
 86 405 86 405 131 405 c 0,20,21
 152 405 152 405 184 412 c 1,22,23
 139 490 139 490 139 548 c 0,24,25
 139 623 139 623 200 666.5 c 128,-1,26
 261 710 261 710 338.5 710 c 128,-1,27
 416 710 416 710 458.5 674.5 c 128,-1,28
 501 639 501 639 501 586.5 c 128,-1,29
 501 534 501 534 462 489.5 c 128,-1,30
 423 445 423 445 375 417 c 1,31,32
 447 325 447 325 472 230 c 1,33,34
 556 219 556 219 638 189 c 1,35,36
 624 139 624 139 612 117 c 1,37,38
 590 134 590 134 552 151 c 128,-1,39
 514 168 514 168 481 172 c 1,40,-1
 481 171 l 2,41,42
 481 92 481 92 420.5 35 c 128,-1,43
 360 -22 360 -22 288.5 -22 c 128,-1,0
 217 -22 217 -22 179 12 c 128,-1,1
405.5 521.5 m 128,-1,45
 436 554 436 554 436 583 c 128,-1,46
 436 612 436 612 413.5 627.5 c 128,-1,47
 391 643 391 643 356 643 c 128,-1,48
 321 643 321 643 298.5 628 c 128,-1,49
 276 613 276 613 276 588 c 0,50,51
 276 572 276 572 284 555 c 128,-1,52
 292 538 292 538 297 528 c 128,-1,53
 302 518 302 518 309 508 c 128,-1,54
 316 498 316 498 320.5 492 c 128,-1,55
 325 486 325 486 336 471 c 1,56,44
 375 489 375 489 405.5 521.5 c 128,-1,45
311.5 77.5 m 128,-1,58
 332 103 332 103 332 130.5 c 128,-1,59
 332 158 332 158 326 177 c 1,60,61
 286 177 286 177 247 155 c 128,-1,62
 208 133 208 133 208 103 c 0,63,64
 208 82 208 82 223 67 c 128,-1,65
 238 52 238 52 264.5 52 c 128,-1,57
 291 52 291 52 311.5 77.5 c 128,-1,58
EndSplineSet
EndChar

StartChar: T
Encoding: 84 84 55
Width: 599
GlyphClass: 2
Flags: W
LayerCount: 2
Fore
SplineSet
205 596 m 0,0,1
 122 596 122 596 71 555 c 1,2,3
 40 571 40 571 35 581 c 1,4,5
 35 641 35 641 65 687.5 c 128,-1,6
 95 734 95 734 153 734 c 0,7,8
 213 734 213 734 343 668 c 0,9,10
 391 643 391 643 406 639 c 1,11,12
 445 670 445 670 492.5 690 c 128,-1,13
 540 710 540 710 575.5 710 c 128,-1,14
 611 710 611 710 641 689 c 128,-1,15
 671 668 671 668 671 626 c 128,-1,16
 671 584 671 584 637.5 552 c 128,-1,17
 604 520 604 520 544 520 c 0,18,19
 517 520 517 520 484.5 528.5 c 128,-1,20
 452 537 452 537 445 538 c 1,21,22
 414 507 414 507 376.5 452.5 c 128,-1,23
 339 398 339 398 313 339 c 1,24,25
 329 341 329 341 337 341 c 0,26,27
 414 341 414 341 474.5 296.5 c 128,-1,28
 535 252 535 252 535 174 c 128,-1,29
 535 96 535 96 477.5 37 c 128,-1,30
 420 -22 420 -22 322 -22 c 128,-1,31
 224 -22 224 -22 171.5 43 c 128,-1,32
 119 108 119 108 119 195 c 1,33,34
 56 136 56 136 38 66 c 1,35,36
 15 70 15 70 -6 80.5 c 128,-1,37
 -27 91 -27 91 -33 101 c 1,38,39
 6 200 6 200 133 287 c 1,40,41
 157 365 157 365 210.5 441 c 128,-1,42
 264 517 264 517 325 576 c 1,43,44
 262 596 262 596 205 596 c 0,0,1
429 247.5 m 128,-1,46
 392 275 392 275 353 275 c 128,-1,47
 314 275 314 275 287 264 c 1,48,49
 277 230 277 230 277 182.5 c 128,-1,50
 277 135 277 135 303.5 100.5 c 128,-1,51
 330 66 330 66 371.5 66 c 128,-1,52
 413 66 413 66 439.5 100.5 c 128,-1,53
 466 135 466 135 466 177.5 c 128,-1,45
 466 220 466 220 429 247.5 c 128,-1,46
608 619 m 0,54,55
 608 638 608 638 579.5 638 c 128,-1,56
 551 638 551 638 503 596 c 1,57,58
 521 586 521 586 547 586 c 128,-1,59
 573 586 573 586 590.5 595 c 128,-1,60
 608 604 608 604 608 619 c 0,54,55
EndSplineSet
EndChar

StartChar: U
Encoding: 85 85 56
Width: 733
GlyphClass: 2
Flags: W
LayerCount: 2
Fore
SplineSet
327 354.5 m 128,-1,1
 278 193 278 193 278 148.5 c 128,-1,2
 278 104 278 104 319.5 104 c 128,-1,3
 361 104 361 104 433 165 c 1,4,5
 436 216 436 216 450 287 c 0,6,7
 492 510 492 510 552 610 c 128,-1,8
 612 710 612 710 692 710 c 0,9,10
 739 710 739 710 762.5 682.5 c 128,-1,11
 786 655 786 655 786 610 c 0,12,13
 786 468 786 468 592 228 c 1,14,15
 589 189 589 189 589 149 c 0,16,17
 589 66 589 66 617 66 c 0,18,19
 634 66 634 66 646 70 c 1,20,-1
 661 32 l 1,21,22
 599 -12 599 -12 537 -12 c 0,23,24
 447 -12 447 -12 434 93 c 1,25,26
 314 -12 314 -12 229 -12 c 0,27,28
 178 -12 178 -12 146.5 19.5 c 128,-1,29
 115 51 115 51 115 111 c 0,30,31
 115 146 115 146 138.5 224.5 c 128,-1,32
 162 303 162 303 166 317 c 1,33,34
 3 384 3 384 3 503 c 0,35,36
 3 585 3 585 79 647.5 c 128,-1,37
 155 710 155 710 248 710 c 0,38,39
 376 710 376 710 376 583 c 0,40,0
 376 516 376 516 327 354.5 c 128,-1,1
185 389 m 1,41,42
 220 511 220 511 220 571 c 128,-1,43
 220 631 220 631 177.5 631 c 128,-1,44
 135 631 135 631 100 593 c 128,-1,45
 65 555 65 555 65 509.5 c 128,-1,46
 65 464 65 464 100 433.5 c 128,-1,47
 135 403 135 403 185 389 c 1,41,42
726 612 m 0,48,49
 726 639 726 639 706 639 c 0,50,51
 662 639 662 639 605 335 c 1,52,53
 650 394 650 394 688 476.5 c 128,-1,54
 726 559 726 559 726 612 c 0,48,49
EndSplineSet
EndChar

StartChar: V
Encoding: 86 86 57
Width: 663
GlyphClass: 2
Flags: W
LayerCount: 2
Fore
SplineSet
358 305 m 1,0,1
 346 214 346 214 346 164 c 128,-1,2
 346 114 346 114 377 114 c 128,-1,3
 408 114 408 114 450.5 160 c 128,-1,4
 493 206 493 206 530 286 c 128,-1,5
 567 366 567 366 575 448 c 1,6,7
 575 531 575 531 490 637 c 1,8,9
 510 680 510 680 542 714.5 c 128,-1,10
 574 749 574 749 596 762 c 2,11,-1
 618 776 l 1,12,13
 655 776 655 776 681.5 722.5 c 128,-1,14
 708 669 708 669 708 604 c 0,15,16
 708 492 708 492 643 346 c 128,-1,17
 578 200 578 200 481 94 c 128,-1,18
 384 -12 384 -12 302 -12 c 0,19,20
 249 -12 249 -12 219.5 26.5 c 128,-1,21
 190 65 190 65 190 119 c 128,-1,22
 190 173 190 173 203 296 c 1,23,24
 110 305 110 305 49.5 359.5 c 128,-1,25
 -11 414 -11 414 -11 493.5 c 128,-1,26
 -11 573 -11 573 63.5 641.5 c 128,-1,27
 138 710 138 710 234 710 c 0,28,29
 381 710 381 710 381 527 c 0,30,31
 381 481 381 481 374 433 c 1,32,-1
 367 374 l 1,33,34
 417 386 417 386 447 403 c 2,35,-1
 458 409 l 1,36,37
 479 388 479 388 480 345 c 1,38,39
 418 316 418 316 358 305 c 1,0,1
214 600.5 m 128,-1,41
 203 623 203 623 170.5 623 c 128,-1,42
 138 623 138 623 94.5 585.5 c 128,-1,43
 51 548 51 548 51 492.5 c 128,-1,44
 51 437 51 437 97.5 399.5 c 128,-1,45
 144 362 144 362 210 362 c 1,46,47
 225 474 225 474 225 526 c 128,-1,40
 225 578 225 578 214 600.5 c 128,-1,41
EndSplineSet
EndChar

StartChar: W
Encoding: 87 87 58
Width: 971
GlyphClass: 2
Flags: W
LayerCount: 2
Fore
SplineSet
210 123 m 1,0,-1
 216 293 l 1,1,2
 120 305 120 305 55 358 c 128,-1,3
 -10 411 -10 411 -10 500 c 0,4,5
 -10 573 -10 573 62 641.5 c 128,-1,6
 134 710 134 710 234 710 c 0,7,8
 381 710 381 710 381 519 c 0,9,10
 381 463 381 463 373.5 347.5 c 128,-1,11
 366 232 366 232 366 173 c 128,-1,12
 366 114 366 114 398 114 c 0,13,14
 417 114 417 114 453.5 146.5 c 128,-1,15
 490 179 490 179 515 217 c 1,16,17
 537 443 537 443 537 487 c 128,-1,18
 537 531 537 531 536.5 547 c 128,-1,19
 536 563 536 563 534.5 578 c 128,-1,20
 533 593 533 593 532.5 600.5 c 128,-1,21
 532 608 532 608 528.5 621 c 128,-1,22
 525 634 525 634 524.5 636 c 128,-1,23
 524 638 524 638 519.5 653 c 128,-1,24
 515 668 515 668 515 669 c 0,25,26
 566 696 566 696 682 710 c 1,27,-1
 682 709 l 1,28,29
 693 674 693 674 693 608.5 c 128,-1,30
 693 543 693 543 673 381 c 128,-1,31
 653 219 653 219 653 166.5 c 128,-1,32
 653 114 653 114 683.5 114 c 128,-1,33
 714 114 714 114 757.5 168 c 128,-1,34
 801 222 801 222 837.5 309 c 128,-1,35
 874 396 874 396 883 478 c 1,36,37
 883 559 883 559 798 665 c 1,38,39
 818 708 818 708 850 742.5 c 128,-1,40
 882 777 882 777 904 790 c 2,41,-1
 926 804 l 1,42,43
 963 804 963 804 989.5 751.5 c 128,-1,44
 1016 699 1016 699 1016 628.5 c 128,-1,45
 1016 558 1016 558 978 447.5 c 128,-1,46
 940 337 940 337 882.5 235 c 128,-1,47
 825 133 825 133 747.5 60.5 c 128,-1,48
 670 -12 670 -12 600 -12 c 0,49,50
 564 -12 564 -12 537 24 c 128,-1,51
 510 60 510 60 509 116 c 1,52,53
 466 56 466 56 418 22 c 128,-1,54
 370 -12 370 -12 322 -12 c 128,-1,55
 274 -12 274 -12 242 27 c 128,-1,56
 210 66 210 66 210 123 c 1,0,-1
213.5 601.5 m 128,-1,58
 202 624 202 624 169.5 624 c 128,-1,59
 137 624 137 624 94.5 588 c 128,-1,60
 52 552 52 552 52 494 c 128,-1,61
 52 436 52 436 102.5 398 c 128,-1,62
 153 360 153 360 220 360 c 1,63,64
 225 455 225 455 225 517 c 128,-1,57
 225 579 225 579 213.5 601.5 c 128,-1,58
EndSplineSet
EndChar

StartChar: X
Encoding: 88 88 59
Width: 644
GlyphClass: 2
Flags: W
LayerCount: 2
Fore
SplineSet
553.5 89 m 128,-1,1
 574 69 574 69 585.5 69 c 128,-1,2
 597 69 597 69 623 76 c 1,3,-1
 638 37 l 1,4,5
 608 15 608 15 564.5 1.5 c 128,-1,6
 521 -12 521 -12 488 -12 c 0,7,8
 411 -12 411 -12 374 62 c 0,9,10
 353 104 353 104 306 243 c 1,11,12
 214 124 214 124 140 5 c 0,13,14
 130 -12 130 -12 115 -12 c 128,-1,15
 100 -12 100 -12 75 -0.5 c 128,-1,16
 50 11 50 11 36 28 c 1,17,18
 74 89 74 89 115 138 c 128,-1,19
 156 187 156 187 173 207 c 128,-1,20
 190 227 190 227 227.5 268 c 128,-1,21
 265 309 265 309 279 325 c 1,22,23
 236 446 236 446 235 448 c 1,24,25
 184 416 184 416 125.5 416 c 128,-1,26
 67 416 67 416 30.5 453.5 c 128,-1,27
 -6 491 -6 491 -6 549 c 0,28,29
 -6 623 -6 623 50 672.5 c 128,-1,30
 106 722 106 722 177 722 c 0,31,32
 272 722 272 722 320 637 c 0,33,34
 342 597 342 597 392 455 c 1,35,36
 474 560 474 560 554 693 c 1,37,38
 563 710 563 710 581 710 c 0,39,40
 623 710 623 710 659 672 c 1,41,42
 619 603 619 603 558 533 c 0,43,44
 538 509 538 509 488.5 453 c 128,-1,45
 439 397 439 397 421 376 c 1,46,47
 476 221 476 221 504.5 165 c 128,-1,0
 533 109 533 109 553.5 89 c 128,-1,1
75.5 497.5 m 128,-1,49
 95 475 95 475 132 475 c 128,-1,50
 169 475 169 475 211 508 c 1,51,52
 204 525 204 525 196 542 c 0,53,54
 160 613 160 613 113 613 c 0,55,56
 87 613 87 613 71.5 594.5 c 128,-1,57
 56 576 56 576 56 548 c 128,-1,48
 56 520 56 520 75.5 497.5 c 128,-1,49
EndSplineSet
EndChar

StartChar: Y
Encoding: 89 89 60
Width: 754
GlyphClass: 2
Flags: W
LayerCount: 2
Fore
SplineSet
703 23 m 1,0,1
 691 -29 691 -29 681 -42 c 1,2,3
 617 -22 617 -22 538 -22 c 2,4,-1
 537 -22 l 1,5,6
 438 -224 438 -224 270 -224 c 0,7,8
 223 -224 223 -224 191 -196.5 c 128,-1,9
 159 -169 159 -169 159 -130.5 c 128,-1,10
 159 -92 159 -92 184 -61 c 128,-1,11
 209 -30 209 -30 250 -10 c 0,12,13
 324 25 324 25 405 39 c 1,14,-1
 425 113 l 1,15,16
 331 54 331 54 258 54 c 0,17,18
 212 54 212 54 184.5 81.5 c 128,-1,19
 157 109 157 109 157 168 c 0,20,21
 157 215 157 215 169 262 c 128,-1,22
 181 309 181 309 182 314 c 1,23,24
 113 335 113 335 60.5 386.5 c 128,-1,25
 8 438 8 438 8 517 c 128,-1,26
 8 596 8 596 79 653 c 128,-1,27
 150 710 150 710 234 710 c 128,-1,28
 318 710 318 710 358 667.5 c 128,-1,29
 398 625 398 625 398 564 c 128,-1,30
 398 503 398 503 355.5 375.5 c 128,-1,31
 313 248 313 248 313 215 c 0,32,33
 313 170 313 170 353 170 c 128,-1,34
 393 170 393 170 450 212 c 1,35,-1
 471 317 l 2,36,37
 508 502 508 502 525 546 c 128,-1,38
 542 590 542 590 558.5 621.5 c 128,-1,39
 575 653 575 653 593 670 c 0,40,41
 635 710 635 710 688 710 c 128,-1,42
 741 710 741 710 769 683 c 128,-1,43
 797 656 797 656 797 599.5 c 128,-1,44
 797 543 797 543 751.5 453 c 128,-1,45
 706 363 706 363 626 273 c 1,46,47
 602 138 602 138 563 38 c 1,48,-1
 572 38 l 1,49,50
 651 36 651 36 689 26 c 1,51,-1
 703 23 l 1,0,1
194 389 m 1,52,53
 232 506 232 506 232 573 c 128,-1,54
 232 640 232 640 181 640 c 0,55,56
 140 640 140 640 105 604.5 c 128,-1,57
 70 569 70 569 70 518 c 128,-1,58
 70 467 70 467 108 435 c 128,-1,59
 146 403 146 403 194 389 c 1,52,53
710 493.5 m 128,-1,61
 737 562 737 562 737 600 c 128,-1,62
 737 638 737 638 723 638 c 0,63,64
 711 638 711 638 696 610 c 0,65,66
 670 560 670 560 641 378 c 1,67,-1
 643 379 l 1,68,60
 683 425 683 425 710 493.5 c 128,-1,61
233 -119 m 0,69,70
 233 -143 233 -143 267 -143 c 128,-1,71
 301 -143 301 -143 335.5 -112.5 c 128,-1,72
 370 -82 370 -82 391 -31 c 1,73,74
 334 -36 334 -36 283.5 -63 c 128,-1,75
 233 -90 233 -90 233 -119 c 0,69,70
EndSplineSet
EndChar

StartChar: Z
Encoding: 90 90 61
Width: 540
GlyphClass: 2
Flags: W
LayerCount: 2
Fore
SplineSet
320 709 m 1,0,1
 332 764 332 764 332 797 c 128,-1,2
 332 830 332 830 328 848 c 1,3,4
 349 854 349 854 368.5 854 c 128,-1,5
 388 854 388 854 406 849 c 1,6,7
 401 775 401 775 376 697 c 1,8,9
 439 685 439 685 474.5 685 c 128,-1,10
 510 685 510 685 533 688 c 1,11,12
 517 536 517 536 452.5 411.5 c 128,-1,13
 388 287 388 287 279 146 c 1,14,15
 296 138 296 138 331 120 c 128,-1,16
 366 102 366 102 386 92 c 0,17,18
 440 65 440 65 472 65 c 128,-1,19
 504 65 504 65 521 85 c 1,20,21
 548 77 548 77 568 53 c 1,22,23
 552 -3 552 -3 521 -41.5 c 128,-1,24
 490 -80 490 -80 449.5 -80 c 128,-1,25
 409 -80 409 -80 371 -60 c 128,-1,26
 333 -40 333 -40 276.5 1.5 c 128,-1,27
 220 43 220 43 200 56 c 1,28,29
 135 -17 135 -17 64 -17 c 0,30,31
 20 -17 20 -17 -7.5 7 c 128,-1,32
 -35 31 -35 31 -35 78.5 c 128,-1,33
 -35 126 -35 126 5.5 160 c 128,-1,34
 46 194 46 194 110 194 c 0,35,36
 147 194 147 194 197 176 c 1,37,38
 266 265 266 265 317.5 367 c 128,-1,39
 369 469 369 469 382 548 c 1,40,-1
 323 563 l 1,41,42
 284 505 284 505 230.5 468 c 128,-1,43
 177 431 177 431 117 431 c 128,-1,44
 57 431 57 431 18 470.5 c 128,-1,45
 -21 510 -21 510 -21 575.5 c 128,-1,46
 -21 641 -21 641 23 687.5 c 128,-1,47
 67 734 67 734 151 734 c 0,48,49
 212 734 212 734 320 709 c 1,0,1
124 491 m 0,50,51
 199 491 199 491 264 581 c 1,52,53
 183 603 183 603 143 603 c 0,54,55
 59 603 59 603 59 546 c 0,56,57
 59 523 59 523 75 507 c 128,-1,58
 91 491 91 491 124 491 c 0,50,51
46.5 100 m 128,-1,60
 33 92 33 92 33 78.5 c 128,-1,61
 33 65 33 65 42 57 c 128,-1,62
 51 49 51 49 64 49 c 0,63,64
 94 49 94 49 138 96 c 1,65,66
 106 108 106 108 83 108 c 128,-1,59
 60 108 60 108 46.5 100 c 128,-1,60
EndSplineSet
EndChar

StartChar: bracketleft
Encoding: 91 91 62
Width: 343
GlyphClass: 2
Flags: W
LayerCount: 2
Fore
SplineSet
178 -147 m 0,0,1
 178 -156 178 -156 238 -178 c 1,2,-1
 258 -186 l 1,3,-1
 252 -223 l 1,4,5
 245 -224 245 -224 238 -224 c 0,6,7
 169 -224 169 -224 82 -210 c 1,8,9
 68 -188 68 -188 66 -170 c 1,10,11
 123 417 123 417 161 694 c 0,12,13
 162 702 162 702 172 718 c 128,-1,14
 182 734 182 734 193 734 c 0,15,16
 261 734 261 734 363 717 c 1,17,-1
 361 680 l 1,18,19
 270 667 270 667 267 652 c 0,20,21
 262 629 262 629 243 491 c 128,-1,22
 224 353 224 353 217.5 290.5 c 128,-1,23
 211 228 211 228 202.5 155 c 128,-1,24
 194 82 194 82 190 40 c 0,25,26
 178 -84 178 -84 178 -147 c 0,0,1
EndSplineSet
EndChar

StartChar: backslash
Encoding: 92 92 63
Width: 366
GlyphClass: 2
Flags: W
LayerCount: 2
Fore
SplineSet
12 715 m 1,0,1
 49 741 49 741 94 748 c 1,2,3
 225 408 225 408 398 -72 c 1,4,5
 360 -110 360 -110 321 -110 c 1,6,7
 177 296 177 296 12 715 c 1,0,1
EndSplineSet
EndChar

StartChar: bracketright
Encoding: 93 93 64
Width: 375
GlyphClass: 2
Flags: W
LayerCount: 2
Fore
SplineSet
203 657 m 0,0,1
 203 666 203 666 143 688 c 1,2,-1
 123 696 l 1,3,-1
 129 733 l 1,4,5
 136 734 136 734 143 734 c 0,6,7
 212 734 212 734 299 720 c 1,8,9
 313 698 313 698 315 680 c 1,10,11
 258 93 258 93 220 -184 c 0,12,13
 219 -192 219 -192 209 -208 c 128,-1,14
 199 -224 199 -224 188 -224 c 0,15,16
 120 -224 120 -224 18 -207 c 1,17,-1
 20 -170 l 1,18,19
 111 -157 111 -157 114 -142 c 0,20,21
 119 -119 119 -119 138 19 c 128,-1,22
 157 157 157 157 163.5 219.5 c 128,-1,23
 170 282 170 282 178.5 355 c 128,-1,24
 187 428 187 428 191 470 c 0,25,26
 203 594 203 594 203 657 c 0,0,1
EndSplineSet
EndChar

StartChar: asciicircum
Encoding: 94 94 65
Width: 458
GlyphClass: 2
Flags: W
LayerCount: 2
Fore
SplineSet
21 287 m 1,0,-1
 193 674 l 1,1,-1
 268 674 l 1,2,3
 291 621 291 621 322 548 c 0,4,5
 388 393 388 393 437 287 c 1,6,7
 411 284 411 284 395 284 c 128,-1,8
 379 284 379 284 339 288 c 1,9,10
 268 467 268 467 230 556 c 1,11,12
 191 466 191 466 118 288 c 1,13,14
 78 284 78 284 62 284 c 128,-1,15
 46 284 46 284 21 287 c 1,0,-1
EndSplineSet
EndChar

StartChar: underscore
Encoding: 95 95 66
Width: 560
GlyphClass: 2
Flags: W
LayerCount: 2
Fore
SplineSet
52 0 m 1,0,1
 52 42 52 42 55 65 c 1,2,-1
 509 65 l 1,3,4
 509 16 509 16 506 0 c 1,5,-1
 52 0 l 1,0,1
EndSplineSet
EndChar

StartChar: grave
Encoding: 96 96 67
Width: 621
GlyphClass: 2
Flags: W
LayerCount: 2
Fore
SplineSet
228 693 m 0,0,1
 255 693 255 693 316 651 c 0,2,3
 332 640 332 640 344.5 631.5 c 128,-1,4
 357 623 357 623 376 609 c 128,-1,5
 395 595 395 595 407 586 c 0,6,7
 437 561 437 561 471 537 c 1,8,-1
 449 499 l 1,9,10
 326 546 326 546 157 600 c 1,11,12
 195 693 195 693 228 693 c 0,0,1
EndSplineSet
EndChar

StartChar: a
Encoding: 97 97 68
Width: 480
GlyphClass: 2
Flags: W
LayerCount: 2
Fore
SplineSet
328 414 m 1,0,1
 330 416 330 416 339 440 c 1,2,3
 386 440 386 440 465 412 c 1,4,5
 440 329 440 329 425 238.5 c 128,-1,6
 410 148 410 148 410 109.5 c 128,-1,7
 410 71 410 71 418 71 c 0,8,9
 424 71 424 71 462 90 c 2,10,-1
 474 96 l 1,11,-1
 492 61 l 1,12,13
 483 53 483 53 468.5 41 c 128,-1,14
 454 29 454 29 414 8.5 c 128,-1,15
 374 -12 374 -12 342 -12 c 0,16,17
 280 -12 280 -12 270 44 c 1,18,19
 206 -12 206 -12 154.5 -12 c 128,-1,20
 103 -12 103 -12 67.5 28 c 128,-1,21
 32 68 32 68 32 154 c 0,22,23
 32 288 32 288 87 365.5 c 128,-1,24
 142 443 142 443 220 443 c 0,25,26
 276 443 276 443 328 414 c 1,0,1
214 73 m 0,27,28
 238 73 238 73 268 92 c 1,29,30
 275 233 275 233 315 371 c 1,31,32
 285 384 285 384 264 384 c 0,33,34
 228 384 228 384 202.5 313.5 c 128,-1,35
 177 243 177 243 177 158 c 128,-1,36
 177 73 177 73 214 73 c 0,27,28
EndSplineSet
EndChar

StartChar: b
Encoding: 98 98 69
Width: 480
GlyphClass: 2
Flags: W
LayerCount: 2
Fore
SplineSet
289 698 m 0,0,1
 289 622 289 622 238 400 c 1,2,3
 298 443 298 443 346.5 443 c 128,-1,4
 395 443 395 443 429.5 402.5 c 128,-1,5
 464 362 464 362 464 279 c 0,6,7
 464 140 464 140 409.5 64 c 128,-1,8
 355 -12 355 -12 277 -12 c 0,9,10
 248 -12 248 -12 218.5 -5 c 128,-1,11
 189 2 189 2 174 10 c 2,12,-1
 159 17 l 1,13,14
 95 -5 95 -5 34 -5 c 1,15,16
 28 0 28 0 28 43.5 c 128,-1,17
 28 87 28 87 84 331.5 c 128,-1,18
 140 576 140 576 140 666 c 0,19,20
 140 682 140 682 135 707 c 1,21,22
 213 734 213 734 284 734 c 1,23,24
 289 720 289 720 289 698 c 0,0,1
280 358 m 0,25,26
 261 358 261 358 223 340 c 1,27,28
 177 146 177 146 173 62 c 1,29,30
 203 49 203 49 230 49 c 0,31,32
 268 49 268 49 293.5 119 c 128,-1,33
 319 189 319 189 319 273.5 c 128,-1,34
 319 358 319 358 280 358 c 0,25,26
EndSplineSet
EndChar

StartChar: c
Encoding: 99 99 70
Width: 397
GlyphClass: 2
Flags: W
LayerCount: 2
Fore
SplineSet
260 393 m 0,0,1
 220 393 220 393 196 326.5 c 128,-1,2
 172 260 172 260 172 184 c 0,3,4
 172 64 172 64 246 64 c 0,5,6
 270 64 270 64 297 75.5 c 128,-1,7
 324 87 324 87 340 98 c 1,8,-1
 355 110 l 1,9,-1
 378 79 l 1,10,11
 370 68 370 68 346 50 c 128,-1,12
 322 32 322 32 301 20 c 128,-1,13
 280 8 280 8 247 -2 c 128,-1,14
 214 -12 214 -12 182 -12 c 0,15,16
 104 -12 104 -12 65 39 c 128,-1,17
 26 90 26 90 26 176 c 0,18,19
 26 295 26 295 91.5 369 c 128,-1,20
 157 443 157 443 260 443 c 0,21,22
 327 443 327 443 366.5 412.5 c 128,-1,23
 406 382 406 382 406 337.5 c 128,-1,24
 406 293 406 293 378 261 c 1,25,26
 353 261 353 261 320 272 c 128,-1,27
 287 283 287 283 270 299 c 1,28,-1
 285 387 l 1,29,30
 276 393 276 393 260 393 c 0,0,1
EndSplineSet
EndChar

StartChar: d
Encoding: 100 100 71
Width: 502
GlyphClass: 2
Flags: W
LayerCount: 2
Fore
SplineSet
504 61 m 1,0,1
 419 -12 419 -12 354.5 -12 c 128,-1,2
 290 -12 290 -12 280 52 c 1,3,4
 250 22 250 22 213 5 c 128,-1,5
 176 -12 176 -12 148 -12 c 0,6,7
 100 -12 100 -12 66 30 c 128,-1,8
 32 72 32 72 32 160 c 0,9,10
 32 292 32 292 88 367.5 c 128,-1,11
 144 443 144 443 214.5 443 c 128,-1,12
 285 443 285 443 333 411 c 1,13,14
 364 573 364 573 364 666 c 1,15,-1
 359 708 l 1,16,17
 434 734 434 734 506 734 c 1,18,19
 514 717 514 717 514 695 c 0,20,21
 514 622 514 622 470 398.5 c 128,-1,22
 426 175 426 175 426 95 c 0,23,24
 426 71 426 71 437 71 c 0,25,26
 443 71 443 71 475 90 c 2,27,-1
 485 96 l 1,28,-1
 504 61 l 1,0,1
263 384 m 0,29,30
 228 384 228 384 202.5 315 c 128,-1,31
 177 246 177 246 177 178.5 c 128,-1,32
 177 111 177 111 186.5 92 c 128,-1,33
 196 73 196 73 215 73 c 0,34,35
 248 73 248 73 280 100 c 1,36,37
 283 140 283 140 325 366 c 1,38,39
 291 384 291 384 263 384 c 0,29,30
EndSplineSet
EndChar

StartChar: e
Encoding: 101 101 72
Width: 399
GlyphClass: 2
Flags: W
LayerCount: 2
Fore
SplineSet
26 173 m 0,0,1
 26 298 26 298 101.5 370.5 c 128,-1,2
 177 443 177 443 273 443 c 0,3,4
 332 443 332 443 370 414 c 128,-1,5
 408 385 408 385 408 336.5 c 128,-1,6
 408 288 408 288 383.5 255 c 128,-1,7
 359 222 359 222 324 204 c 0,8,9
 253 169 253 169 194 160 c 1,10,-1
 170 157 l 1,11,12
 177 63 177 63 247 63 c 0,13,14
 271 63 271 63 298 75 c 128,-1,15
 325 87 325 87 340 99 c 2,16,-1
 355 111 l 1,17,-1
 379 79 l 1,18,19
 371 68 371 68 347 50 c 128,-1,20
 323 32 323 32 302 20 c 0,21,22
 244 -12 244 -12 175 -12 c 128,-1,23
 106 -12 106 -12 66 37 c 128,-1,24
 26 86 26 86 26 173 c 0,0,1
250 249 m 128,-1,26
 280 283 280 283 280 337 c 128,-1,27
 280 391 280 391 248 391 c 0,28,29
 210 391 210 391 189.5 326.5 c 128,-1,30
 169 262 169 262 169 206 c 1,31,25
 220 215 220 215 250 249 c 128,-1,26
EndSplineSet
EndChar

StartChar: f
Encoding: 102 102 73
Width: 293
GlyphClass: 2
Flags: W
LayerCount: 2
Fore
SplineSet
322 431 m 1,0,1
 320 409 320 409 304 373 c 1,2,3
 266 377 266 377 229 377 c 2,4,-1
 225 377 l 1,5,6
 204 130 204 130 186 12 c 128,-1,7
 168 -106 168 -106 139 -153 c 1,8,9
 103 -152 103 -152 64.5 -143.5 c 128,-1,10
 26 -135 26 -135 12 -126 c 1,11,12
 36 -52 36 -52 60.5 97 c 128,-1,13
 85 246 85 246 92 372 c 1,14,15
 64 370 64 370 30 365 c 1,16,17
 27 378 27 378 27 391.5 c 128,-1,18
 27 405 27 405 31 431 c 1,19,-1
 95 431 l 1,20,21
 97 518 97 518 104 563 c 0,22,23
 116 643 116 643 159.5 688.5 c 128,-1,24
 203 734 203 734 272 734 c 0,25,26
 316 734 316 734 341.5 714.5 c 128,-1,27
 367 695 367 695 367 653 c 128,-1,28
 367 611 367 611 329 544.5 c 128,-1,29
 291 478 291 478 229 431 c 1,30,-1
 322 431 l 1,0,1
292 567 m 128,-1,32
 314 607 314 607 314 639.5 c 128,-1,33
 314 672 314 672 293 672 c 0,34,35
 249 672 249 672 237 571 c 0,36,37
 233 537 233 537 231 494 c 1,38,31
 270 527 270 527 292 567 c 128,-1,32
EndSplineSet
EndChar

StartChar: g
Encoding: 103 103 74
Width: 461
GlyphClass: 2
Flags: W
LayerCount: 2
Fore
SplineSet
216 -212.5 m 128,-1,1
 182 -224 182 -224 150 -224 c 128,-1,2
 118 -224 118 -224 98 -206 c 128,-1,3
 78 -188 78 -188 78 -154.5 c 128,-1,4
 78 -121 78 -121 121 -91 c 128,-1,5
 164 -61 164 -61 206 -50 c 1,6,-1
 249 -40 l 1,7,-1
 264 40 l 1,8,9
 206 -4 206 -4 152.5 -4 c 128,-1,10
 99 -4 99 -4 65.5 37 c 128,-1,11
 32 78 32 78 32 168 c 0,12,13
 32 286 32 286 85 364.5 c 128,-1,14
 138 443 138 443 225 443 c 0,15,16
 274 443 274 443 322 419 c 1,17,18
 373 437 373 437 432 437 c 1,19,-1
 453 436 l 1,20,21
 456 424 456 424 456 402 c 0,22,23
 456 314 456 314 393 7 c 1,24,25
 382 -56 382 -56 353 -103.5 c 128,-1,26
 324 -151 324 -151 287 -176 c 128,-1,0
 250 -201 250 -201 216 -212.5 c 128,-1,1
270 384 m 0,27,28
 227 384 227 384 202 314.5 c 128,-1,29
 177 245 177 245 177 160.5 c 128,-1,30
 177 76 177 76 215 76 c 0,31,32
 240 76 240 76 274 95 c 1,33,34
 302 263 302 263 314 372 c 1,35,36
 286 384 286 384 270 384 c 0,27,28
123 -152 m 0,37,38
 123 -171 123 -171 145.5 -171 c 128,-1,39
 168 -171 168 -171 195 -145.5 c 128,-1,40
 222 -120 222 -120 238 -83 c 1,41,42
 205 -87 205 -87 164 -107.5 c 128,-1,43
 123 -128 123 -128 123 -152 c 0,37,38
EndSplineSet
EndChar

StartChar: h
Encoding: 104 104 75
Width: 496
GlyphClass: 2
Flags: W
LayerCount: 2
Fore
SplineSet
147 660 m 0,0,1
 147 693 147 693 141 707 c 1,2,3
 219 734 219 734 288 734 c 1,4,5
 297 725 297 725 297 688 c 0,6,7
 297 622 297 622 241 384 c 1,8,9
 322 443 322 443 383 443 c 0,10,11
 421 443 421 443 440.5 419 c 128,-1,12
 460 395 460 395 460 355.5 c 128,-1,13
 460 316 460 316 437 226.5 c 128,-1,14
 414 137 414 137 414 104 c 128,-1,15
 414 71 414 71 422 71 c 128,-1,16
 430 71 430 71 464 89 c 2,17,-1
 476 95 l 1,18,-1
 494 60 l 1,19,20
 485 52 485 52 470 40 c 128,-1,21
 455 28 455 28 415 8 c 128,-1,22
 375 -12 375 -12 341.5 -12 c 128,-1,23
 308 -12 308 -12 288 9.5 c 128,-1,24
 268 31 268 31 268 67.5 c 128,-1,25
 268 104 268 104 290.5 200.5 c 128,-1,26
 313 297 313 297 313 322.5 c 128,-1,27
 313 348 313 348 292 348 c 0,28,29
 266 348 266 348 227 326 c 1,30,31
 172 84 172 84 172 12 c 1,32,33
 130 -4 130 -4 29 -4 c 1,34,35
 28 13 28 13 28 26 c 0,36,37
 28 69 28 69 87.5 320 c 128,-1,38
 147 571 147 571 147 660 c 0,0,1
EndSplineSet
EndChar

StartChar: i
Encoding: 105 105 76
Width: 272
GlyphClass: 2
Flags: W
LayerCount: 2
Fore
SplineSet
210 236.5 m 128,-1,1
 183 134 183 134 183 102.5 c 128,-1,2
 183 71 183 71 192 71 c 0,3,4
 198 71 198 71 238 90 c 2,5,-1
 250 96 l 1,6,-1
 267 61 l 1,7,8
 258 53 258 53 243 41 c 128,-1,9
 228 29 228 29 187 8.5 c 128,-1,10
 146 -12 146 -12 111 -12 c 128,-1,11
 76 -12 76 -12 56 9.5 c 128,-1,12
 36 31 36 31 36 67.5 c 128,-1,13
 36 104 36 104 61 197.5 c 128,-1,14
 86 291 86 291 86 319 c 0,15,16
 86 361 86 361 60 398 c 1,17,-1
 51 410 l 1,18,-1
 52 423 l 1,19,20
 105 438 105 438 224 438 c 1,21,22
 237 423 237 423 237 381 c 128,-1,0
 237 339 237 339 210 236.5 c 128,-1,1
103 600 m 128,-1,24
 103 633 103 633 130.5 658 c 128,-1,25
 158 683 158 683 194 683 c 128,-1,26
 230 683 230 683 250 663 c 128,-1,27
 270 643 270 643 270 610.5 c 128,-1,28
 270 578 270 578 241.5 553 c 128,-1,29
 213 528 213 528 178 528 c 128,-1,30
 143 528 143 528 123 547.5 c 128,-1,23
 103 567 103 567 103 600 c 128,-1,24
EndSplineSet
EndChar

StartChar: j
Encoding: 106 106 77
Width: 256
GlyphClass: 2
Flags: W
LayerCount: 2
Fore
SplineSet
89 333 m 0,0,1
 89 356 89 356 60 396 c 1,2,-1
 51 410 l 1,3,-1
 52 423 l 1,4,5
 109 438 109 438 224 438 c 1,6,7
 237 423 237 423 237 382.5 c 128,-1,8
 237 342 237 342 212.5 194 c 128,-1,9
 188 46 188 46 171.5 -19 c 128,-1,10
 155 -84 155 -84 137 -121.5 c 128,-1,11
 119 -159 119 -159 80.5 -191.5 c 128,-1,12
 42 -224 42 -224 -1.5 -224 c 128,-1,13
 -45 -224 -45 -224 -82 -205 c 128,-1,14
 -119 -186 -119 -186 -138 -168 c 1,15,-1
 -156 -149 l 1,16,-1
 -134 -117 l 1,17,18
 -85 -146 -85 -146 -61 -146 c 0,19,20
 -23 -146 -23 -146 7 -93 c 128,-1,21
 37 -40 37 -40 63 117.5 c 128,-1,22
 89 275 89 275 89 333 c 0,0,1
105 600 m 128,-1,24
 105 633 105 633 132.5 658 c 128,-1,25
 160 683 160 683 196 683 c 128,-1,26
 232 683 232 683 252 663 c 128,-1,27
 272 643 272 643 272 610.5 c 128,-1,28
 272 578 272 578 243.5 553 c 128,-1,29
 215 528 215 528 180 528 c 128,-1,30
 145 528 145 528 125 547.5 c 128,-1,23
 105 567 105 567 105 600 c 128,-1,24
EndSplineSet
EndChar

StartChar: k
Encoding: 107 107 78
Width: 508
GlyphClass: 2
Flags: W
LayerCount: 2
Fore
SplineSet
143 660 m 0,0,1
 143 693 143 693 137 707 c 1,2,3
 215 734 215 734 284 734 c 1,4,5
 293 725 293 725 293 688 c 0,6,7
 293 605 293 605 238 370 c 1,8,9
 327 443 327 443 414 443 c 0,10,11
 453 443 453 443 480 419 c 128,-1,12
 507 395 507 395 507 349 c 0,13,14
 507 263 507 263 366 224 c 1,15,16
 399 120 399 120 424 83 c 0,17,18
 435 67 435 67 440 67 c 0,19,20
 451 67 451 67 486 84 c 2,21,-1
 497 89 l 1,22,-1
 513 55 l 1,23,24
 489 33 489 33 446.5 10.5 c 128,-1,25
 404 -12 404 -12 369 -12 c 0,26,27
 291 -12 291 -12 260 130 c 0,28,29
 246 191 246 191 243 244 c 1,30,31
 307 259 307 259 338.5 280.5 c 128,-1,32
 370 302 370 302 370 335.5 c 128,-1,33
 370 369 370 369 336 369 c 128,-1,34
 302 369 302 369 222 301 c 1,35,36
 172 90 172 90 172 12 c 1,37,38
 117 -4 117 -4 29 -4 c 1,39,40
 28 13 28 13 28 26 c 0,41,42
 28 69 28 69 85.5 320 c 128,-1,43
 143 571 143 571 143 660 c 0,0,1
EndSplineSet
EndChar

StartChar: l
Encoding: 108 108 79
Width: 266
GlyphClass: 2
Flags: W
LayerCount: 2
Fore
SplineSet
50.5 11 m 128,-1,1
 28 34 28 34 28 75.5 c 128,-1,2
 28 117 28 117 77.5 340.5 c 128,-1,3
 127 564 127 564 127 663 c 1,4,-1
 121 707 l 1,5,6
 199 734 199 734 267 734 c 1,7,8
 277 720 277 720 277 685 c 0,9,10
 277 605 277 605 226.5 375.5 c 128,-1,11
 176 146 176 146 176 108.5 c 128,-1,12
 176 71 176 71 185 71 c 1,13,-1
 255 96 l 1,14,-1
 273 61 l 1,15,16
 239 34 239 34 190.5 11 c 128,-1,17
 142 -12 142 -12 107.5 -12 c 128,-1,0
 73 -12 73 -12 50.5 11 c 128,-1,1
EndSplineSet
EndChar

StartChar: m
Encoding: 109 109 80
Width: 734
GlyphClass: 2
Flags: W
LayerCount: 2
Fore
SplineSet
57 -3 m 2,0,-1
 38 -3 l 1,1,2
 38 44 38 44 66.5 177 c 128,-1,3
 95 310 95 310 95 328 c 0,4,5
 95 361 95 361 67 398 c 2,6,-1
 58 410 l 1,7,-1
 59 423 l 1,8,9
 113 438 113 438 232 438 c 1,10,11
 246 419 246 419 246 376 c 1,12,13
 336 443 336 443 389 443 c 0,14,15
 456 443 456 443 468 374 c 1,16,17
 495 396 495 396 538.5 419.5 c 128,-1,18
 582 443 582 443 616.5 443 c 128,-1,19
 651 443 651 443 674 420.5 c 128,-1,20
 697 398 697 398 697 358 c 128,-1,21
 697 318 697 318 675 226 c 128,-1,22
 653 134 653 134 653 102.5 c 128,-1,23
 653 71 653 71 662 71 c 0,24,25
 668 71 668 71 703 90 c 2,26,-1
 714 96 l 1,27,-1
 732 61 l 1,28,29
 706 35 706 35 661.5 11.5 c 128,-1,30
 617 -12 617 -12 583 -12 c 0,31,32
 508 -12 508 -12 508 73 c 0,33,34
 508 104 508 104 529.5 197.5 c 128,-1,35
 551 291 551 291 551 319.5 c 128,-1,36
 551 348 551 348 534 348 c 0,37,38
 505 348 505 348 468 326 c 1,39,40
 466 306 466 306 440.5 190 c 128,-1,41
 415 74 415 74 415 10 c 1,42,43
 386 -3 386 -3 279 -3 c 1,44,45
 277 8 277 8 277 50 c 128,-1,46
 277 92 277 92 300.5 193 c 128,-1,47
 324 294 324 294 324 321 c 128,-1,48
 324 348 324 348 305 348 c 0,49,50
 275 348 275 348 239 324 c 1,51,52
 237 315 237 315 219 236 c 0,53,54
 183 78 183 78 183 11 c 1,55,56
 148 -3 148 -3 57 -3 c 2,0,-1
EndSplineSet
EndChar

StartChar: n
Encoding: 110 110 81
Width: 508
GlyphClass: 2
Flags: W
LayerCount: 2
Fore
SplineSet
57 -3 m 2,0,-1
 38 -3 l 1,1,2
 38 44 38 44 66.5 177 c 128,-1,3
 95 310 95 310 95 328 c 0,4,5
 95 361 95 361 67 398 c 2,6,-1
 58 410 l 1,7,-1
 59 423 l 1,8,9
 113 438 113 438 232 438 c 1,10,11
 245 421 245 421 246 376 c 1,12,13
 333 443 333 443 393 443 c 0,14,15
 429 443 429 443 450.5 418 c 128,-1,16
 472 393 472 393 472 355.5 c 128,-1,17
 472 318 472 318 449 226 c 128,-1,18
 426 134 426 134 426 102.5 c 128,-1,19
 426 71 426 71 434 71 c 0,20,21
 440 71 440 71 476 90 c 2,22,-1
 488 96 l 1,23,-1
 506 61 l 1,24,25
 497 53 497 53 482 41 c 128,-1,26
 467 29 467 29 426.5 8.5 c 128,-1,27
 386 -12 386 -12 354 -12 c 0,28,29
 281 -12 281 -12 281 71 c 0,30,31
 281 106 281 106 303.5 200 c 128,-1,32
 326 294 326 294 326 321 c 128,-1,33
 326 348 326 348 309 348 c 0,34,35
 280 348 280 348 238 323 c 1,36,37
 235 306 235 306 218 233 c 0,38,39
 183 76 183 76 183 11 c 1,40,41
 148 -3 148 -3 57 -3 c 2,0,-1
EndSplineSet
EndChar

StartChar: o
Encoding: 111 111 82
Width: 409
GlyphClass: 2
Flags: W
LayerCount: 2
Fore
SplineSet
170 -12 m 0,0,1
 101 -12 101 -12 62 36.5 c 128,-1,2
 23 85 23 85 23 172 c 0,3,4
 23 283 23 283 82.5 363 c 128,-1,5
 142 443 142 443 247 443 c 1,6,-1
 283 441 l 1,7,8
 300 450 300 450 321 450 c 0,9,10
 400 450 400 450 400 301 c 1,11,12
 441 303 441 303 483 312 c 1,13,-1
 499 316 l 1,14,-1
 505 277 l 1,15,16
 472 263 472 263 416 252 c 2,17,-1
 396 248 l 1,18,19
 377 143 377 143 319 65.5 c 128,-1,20
 261 -12 261 -12 170 -12 c 0,0,1
224 74 m 0,21,22
 266 74 266 74 299.5 128 c 128,-1,23
 333 182 333 182 346 242 c 1,24,25
 239 242 239 242 239 322 c 0,26,27
 239 354 239 354 252 382 c 2,28,-1
 257 392 l 1,29,30
 253 394 253 394 247 394 c 128,-1,31
 241 394 241 394 238 392 c 0,32,33
 213 376 213 376 191 317 c 128,-1,34
 169 258 169 258 169 182 c 0,35,36
 169 74 169 74 224 74 c 0,21,22
EndSplineSet
EndChar

StartChar: p
Encoding: 112 112 83
Width: 477
GlyphClass: 2
Flags: W
LayerCount: 2
Fore
SplineSet
1 -224 m 1,0,1
 -4 -212 -4 -212 -4 -171 c 128,-1,2
 -4 -130 -4 -130 35 49.5 c 128,-1,3
 74 229 74 229 74 326 c 0,4,5
 74 345 74 345 65 366.5 c 128,-1,6
 56 388 56 388 46 400 c 2,7,-1
 37 411 l 1,8,-1
 38 424 l 1,9,10
 85 439 85 439 204 439 c 1,11,12
 215 418 215 418 218 380 c 1,13,14
 295 443 295 443 346.5 443 c 128,-1,15
 398 443 398 443 429.5 400 c 128,-1,16
 461 357 461 357 461 274 c 0,17,18
 461 129 461 129 408 58.5 c 128,-1,19
 355 -12 355 -12 274 -12 c 0,20,21
 232 -12 232 -12 204 0 c 2,22,-1
 194 4 l 1,23,-1
 201 43 l 1,24,25
 210 41 210 41 222 41 c 0,26,27
 248 41 248 41 267.5 65 c 128,-1,28
 287 89 287 89 297 126 c 0,29,30
 317 200 317 200 317 263 c 0,31,32
 317 353 317 353 280 353 c 0,33,34
 251 353 251 353 218 330 c 1,35,36
 214 260 214 260 177 85 c 128,-1,37
 140 -90 140 -90 140 -197 c 1,38,39
 86 -219 86 -219 1 -224 c 1,0,1
EndSplineSet
EndChar

StartChar: q
Encoding: 113 113 84
Width: 469
GlyphClass: 2
Flags: W
LayerCount: 2
Fore
SplineSet
238 -224 m 1,0,1
 232 -212 232 -212 232 -174 c 128,-1,2
 232 -136 232 -136 267 39 c 1,3,4
 204 -12 204 -12 151 -12 c 128,-1,5
 98 -12 98 -12 65 30 c 128,-1,6
 32 72 32 72 32 155 c 0,7,8
 32 294 32 294 88 368.5 c 128,-1,9
 144 443 144 443 222 443 c 0,10,11
 264 443 264 443 323 420 c 1,12,13
 373 438 373 438 451 438 c 1,14,15
 454 420 454 420 454 397 c 0,16,17
 454 288 454 288 415.5 92 c 128,-1,18
 377 -104 377 -104 377 -197 c 1,19,20
 323 -219 323 -219 238 -224 c 1,0,1
266 384 m 0,21,22
 228 384 228 384 202.5 317.5 c 128,-1,23
 177 251 177 251 177 162 c 128,-1,24
 177 73 177 73 215 73 c 0,25,26
 249 73 249 73 279 99 c 1,27,28
 313 271 313 271 313 373 c 1,29,30
 285 384 285 384 266 384 c 0,21,22
EndSplineSet
EndChar

StartChar: r
Encoding: 114 114 85
Width: 364
GlyphClass: 2
Flags: W
LayerCount: 2
Fore
SplineSet
50 -3 m 2,0,-1
 43 -3 l 1,1,2
 41 5 41 5 41 33.5 c 128,-1,3
 41 62 41 62 68 187 c 128,-1,4
 95 312 95 312 95 330 c 0,5,6
 95 361 95 361 67 398 c 2,7,-1
 58 410 l 1,8,-1
 59 423 l 1,9,10
 113 438 113 438 232 438 c 1,11,12
 244 412 244 412 244 365 c 1,13,14
 255 383 255 383 290 413 c 128,-1,15
 325 443 325 443 362 443 c 0,16,17
 416 443 416 443 416 349 c 1,18,19
 411 343 411 343 402.5 333.5 c 128,-1,20
 394 324 394 324 368.5 307 c 128,-1,21
 343 290 343 290 319 286 c 0,22,23
 318 286 318 286 302 313 c 128,-1,24
 286 340 286 340 278 340 c 1,25,26
 253 331 253 331 234 310 c 1,27,28
 188 103 188 103 188 42 c 0,29,30
 188 20 188 20 189 11 c 1,31,32
 154 -3 154 -3 50 -3 c 2,0,-1
EndSplineSet
EndChar

StartChar: s
Encoding: 115 115 86
Width: 355
GlyphClass: 2
Flags: W
LayerCount: 2
Fore
SplineSet
339 131 m 0,0,1
 339 68 339 68 283.5 28 c 128,-1,2
 228 -12 228 -12 157 -12 c 128,-1,3
 86 -12 86 -12 44.5 18 c 128,-1,4
 3 48 3 48 3 71 c 0,5,6
 3 85 3 85 38 116.5 c 128,-1,7
 73 148 73 148 97 155 c 1,8,9
 147 118 147 118 179 38 c 1,10,11
 216 41 216 41 216 73 c 0,12,13
 216 119 216 119 135 203.5 c 128,-1,14
 54 288 54 288 54 338 c 128,-1,15
 54 388 54 388 99 415.5 c 128,-1,16
 144 443 144 443 207.5 443 c 128,-1,17
 271 443 271 443 303 420.5 c 128,-1,18
 335 398 335 398 335 359.5 c 128,-1,19
 335 321 335 321 274 253 c 1,20,21
 281 246 281 246 292 234.5 c 128,-1,22
 303 223 303 223 321 191 c 128,-1,23
 339 159 339 159 339 131 c 0,0,1
285 359 m 128,-1,25
 285 394 285 394 237 394 c 0,26,27
 214 394 214 394 199 384.5 c 128,-1,28
 184 375 184 375 184 363 c 0,29,30
 184 341 184 341 228 301 c 1,31,-1
 243 288 l 1,32,24
 285 324 285 324 285 359 c 128,-1,25
EndSplineSet
EndChar

StartChar: t
Encoding: 116 116 87
Width: 295
GlyphClass: 2
Flags: W
LayerCount: 2
Fore
SplineSet
343 431 m 1,0,1
 341 406 341 406 326 373 c 1,2,3
 288 377 288 377 254 377 c 2,4,-1
 236 377 l 1,5,6
 190 154 190 154 190 99 c 0,7,8
 190 70 190 70 202.5 70 c 128,-1,9
 215 70 215 70 269 95 c 1,10,-1
 287 62 l 1,11,12
 198 -12 198 -12 122 -12 c 0,13,14
 87 -12 87 -12 64.5 10 c 128,-1,15
 42 32 42 32 42 68.5 c 128,-1,16
 42 105 42 105 50.5 151 c 128,-1,17
 59 197 59 197 74 263.5 c 128,-1,18
 89 330 89 330 96 371 c 1,19,20
 59 368 59 368 41 365 c 1,21,22
 39 377 39 377 39 397.5 c 128,-1,23
 39 418 39 418 42 431 c 1,24,-1
 105 431 l 1,25,26
 113 485 113 485 113 533 c 1,27,-1
 112 564 l 1,28,-1
 112 567 l 1,29,30
 190 594 190 594 259 594 c 1,31,32
 263 574 263 574 263 544 c 128,-1,33
 263 514 263 514 246 431 c 1,34,-1
 343 431 l 1,0,1
EndSplineSet
EndChar

StartChar: u
Encoding: 117 117 88
Width: 499
GlyphClass: 2
Flags: W
LayerCount: 2
Fore
SplineSet
64 221.5 m 128,-1,1
 90 325 90 325 90 348.5 c 128,-1,2
 90 372 90 372 54 411 c 1,3,-1
 55 424 l 1,4,5
 123 438 123 438 234 438 c 1,6,7
 239 425 239 425 239 391 c 128,-1,8
 239 357 239 357 211 246 c 128,-1,9
 183 135 183 135 183 108 c 128,-1,10
 183 81 183 81 203 81 c 0,11,12
 232 81 232 81 270 102 c 1,13,14
 274 126 274 126 290 194 c 0,15,16
 326 354 326 354 326 423 c 1,17,18
 361 437 361 437 452 437 c 2,19,-1
 471 437 l 1,20,21
 471 390 471 390 443 253.5 c 128,-1,22
 415 117 415 117 415 93.5 c 128,-1,23
 415 70 415 70 425 70 c 0,24,25
 431 70 431 70 482 94 c 1,26,-1
 501 62 l 1,27,28
 412 -12 412 -12 345 -12 c 0,29,30
 313 -12 313 -12 290.5 6 c 128,-1,31
 268 24 268 24 265 53 c 1,32,33
 184 -13 184 -13 118 -13 c 0,34,35
 83 -13 83 -13 60.5 10 c 128,-1,36
 38 33 38 33 38 75.5 c 128,-1,0
 38 118 38 118 64 221.5 c 128,-1,1
EndSplineSet
EndChar

StartChar: v
Encoding: 118 118 89
Width: 394
GlyphClass: 2
Flags: W
LayerCount: 2
Fore
SplineSet
192.5 425 m 128,-1,1
 214 407 214 407 214 351 c 0,2,3
 214 321 214 321 196 228.5 c 128,-1,4
 178 136 178 136 178 116 c 0,5,6
 178 76 178 76 194 76 c 0,7,8
 232 76 232 76 277.5 132.5 c 128,-1,9
 323 189 323 189 325 227 c 1,10,-1
 257 303 l 1,11,12
 261 346 261 346 278 381 c 128,-1,13
 295 416 295 416 310 430 c 2,14,-1
 324 443 l 1,15,16
 367 443 367 443 389 420 c 128,-1,17
 411 397 411 397 411 366 c 0,18,19
 411 287 411 287 372 199 c 128,-1,20
 333 111 333 111 268 49.5 c 128,-1,21
 203 -12 203 -12 136 -12 c 0,22,23
 94 -12 94 -12 71.5 14 c 128,-1,24
 49 40 49 40 49 82.5 c 128,-1,25
 49 125 49 125 55.5 197 c 128,-1,26
 62 269 62 269 62 340 c 0,27,28
 62 356 62 356 50.5 378 c 128,-1,29
 39 400 39 400 27 413 c 1,30,-1
 30 425 l 1,31,32
 84 443 84 443 127.5 443 c 128,-1,0
 171 443 171 443 192.5 425 c 128,-1,1
EndSplineSet
EndChar

StartChar: w
Encoding: 119 119 90
Width: 624
GlyphClass: 2
Flags: W
LayerCount: 2
Fore
SplineSet
52 82 m 1,0,-1
 63 343 l 1,1,2
 63 377 63 377 27 413 c 1,3,-1
 29 425 l 1,4,5
 36 427 36 427 42.5 428.5 c 128,-1,6
 49 430 49 430 57.5 432 c 128,-1,7
 66 434 66 434 77 436 c 128,-1,8
 88 438 88 438 100 440 c 0,9,10
 128 443 128 443 152.5 443 c 128,-1,11
 177 443 177 443 194.5 423 c 128,-1,12
 212 403 212 403 212 359.5 c 128,-1,13
 212 316 212 316 198.5 235.5 c 128,-1,14
 185 155 185 155 185 115.5 c 128,-1,15
 185 76 185 76 204 76 c 0,16,17
 235 76 235 76 272 115 c 1,18,19
 273 131 273 131 285 217 c 128,-1,20
 297 303 297 303 297 342 c 128,-1,21
 297 381 297 381 291 409 c 1,22,23
 368 438 368 438 429 438 c 1,24,25
 442 429 442 429 442 379.5 c 128,-1,26
 442 330 442 330 425 242.5 c 128,-1,27
 408 155 408 155 408 115.5 c 128,-1,28
 408 76 408 76 424 76 c 0,29,30
 462 76 462 76 507 132.5 c 128,-1,31
 552 189 552 189 555 227 c 1,32,-1
 487 303 l 1,33,34
 491 346 491 346 508 381 c 128,-1,35
 525 416 525 416 540 430 c 2,36,-1
 554 443 l 1,37,38
 597 443 597 443 619 420 c 128,-1,39
 641 397 641 397 641 366 c 0,40,41
 641 287 641 287 602 199 c 128,-1,42
 563 111 563 111 497 49.5 c 128,-1,43
 431 -12 431 -12 363 -12 c 0,44,45
 329 -12 329 -12 305.5 7.5 c 128,-1,46
 282 27 282 27 274 58 c 1,47,48
 204 -12 204 -12 138 -12 c 0,49,50
 94 -12 94 -12 73 15.5 c 128,-1,51
 52 43 52 43 52 82 c 1,0,-1
EndSplineSet
EndChar

StartChar: x
Encoding: 120 120 91
Width: 391
GlyphClass: 2
Flags: W
LayerCount: 2
Fore
SplineSet
342 68 m 0,0,1
 348 68 348 68 382 86 c 2,2,-1
 392 91 l 1,3,-1
 410 56 l 1,4,5
 402 48 402 48 389 37 c 128,-1,6
 376 26 376 26 338.5 7 c 128,-1,7
 301 -12 301 -12 267.5 -12 c 128,-1,8
 234 -12 234 -12 213.5 5.5 c 128,-1,9
 193 23 193 23 180 63 c 2,10,-1
 157 134 l 1,11,12
 82 53 82 53 45 -11 c 1,13,14
 38 -11 38 -11 10.5 -1 c 128,-1,15
 -17 9 -17 9 -30 16 c 1,16,17
 -1 67 -1 67 137 197 c 1,18,19
 102 302 102 302 81 344 c 0,20,21
 77 352 77 352 33 401 c 1,22,-1
 36 413 l 1,23,-1
 97 426 l 1,24,25
 150 434 150 434 191 436 c 1,26,27
 212 419 212 419 224.5 373 c 128,-1,28
 237 327 237 327 244 303 c 1,29,30
 318 384 318 384 341 439 c 1,31,32
 369 435 369 435 396 418 c 1,33,-1
 405 413 l 1,34,35
 370 347 370 347 263 240 c 1,36,37
 274 202 274 202 283 177 c 0,38,39
 321 68 321 68 342 68 c 0,0,1
EndSplineSet
EndChar

StartChar: y
Encoding: 121 121 92
Width: 457
GlyphClass: 2
Flags: W
LayerCount: 2
Fore
SplineSet
117 -4 m 0,0,1
 34 -4 34 -4 34 88 c 0,2,3
 34 110 34 110 54 215 c 128,-1,4
 74 320 74 320 74 390 c 0,5,6
 74 405 74 405 70 418 c 1,7,8
 124 439 124 439 218 439 c 1,9,10
 223 425 223 425 223 391 c 128,-1,11
 223 357 223 357 201 255 c 128,-1,12
 179 153 179 153 179 122 c 128,-1,13
 179 91 179 91 195 91 c 0,14,15
 239 91 239 91 280 122 c 1,16,17
 283 159 283 159 320 423 c 1,18,19
 355 437 355 437 446 437 c 2,20,-1
 465 437 l 1,21,22
 453 390 453 390 425.5 199.5 c 128,-1,23
 398 9 398 9 386 -42 c 128,-1,24
 374 -93 374 -93 353.5 -132 c 128,-1,25
 333 -171 333 -171 303.5 -190.5 c 128,-1,26
 274 -210 274 -210 244 -217 c 128,-1,27
 214 -224 214 -224 166.5 -224 c 128,-1,28
 119 -224 119 -224 76.5 -193.5 c 128,-1,29
 34 -163 34 -163 34 -141 c 0,30,31
 34 -127 34 -127 69.5 -98 c 128,-1,32
 105 -69 105 -69 129 -62 c 1,33,34
 180 -113 180 -113 204 -173 c 1,35,36
 230 -173 230 -173 250 -111 c 128,-1,37
 270 -49 270 -49 277 71 c 1,38,39
 253 47 253 47 204 21.5 c 128,-1,40
 155 -4 155 -4 117 -4 c 0,0,1
EndSplineSet
EndChar

StartChar: z
Encoding: 122 122 93
Width: 389
GlyphClass: 2
Flags: W
LayerCount: 2
Fore
SplineSet
131 443 m 1,0,-1
 322 435 l 1,1,2
 354 435 354 435 383 438 c 1,3,-1
 392 406 l 1,4,-1
 373 384 l 1,5,6
 319 319 319 319 253 228.5 c 128,-1,7
 187 138 187 138 181 130 c 1,8,9
 273 97 273 97 320 97 c 0,10,11
 335 97 335 97 341 103 c 0,12,13
 350 112 350 112 364 142 c 1,14,-1
 394 135 l 1,15,16
 387 22 387 22 348 -9 c 0,17,18
 329 -24 329 -24 301 -24 c 128,-1,19
 273 -24 273 -24 211.5 10.5 c 128,-1,20
 150 45 150 45 112 55 c 1,21,22
 70 -2 70 -2 54 -2 c 128,-1,23
 38 -2 38 -2 14 24.5 c 128,-1,24
 -10 51 -10 51 -10 66 c 128,-1,25
 -10 81 -10 81 21.5 117.5 c 128,-1,26
 53 154 53 154 87 154 c 0,27,28
 94 154 94 154 98 153 c 1,29,30
 179 232 179 232 244 332 c 1,31,32
 158 331 158 331 124 326.5 c 128,-1,33
 90 322 90 322 58 304 c 1,34,35
 50 339 50 339 50 376.5 c 128,-1,36
 50 414 50 414 53 430 c 1,37,38
 66 443 66 443 131 443 c 1,0,-1
EndSplineSet
EndChar

StartChar: braceleft
Encoding: 123 123 94
Width: 430
GlyphClass: 2
Flags: W
LayerCount: 2
Fore
SplineSet
228 390 m 2,0,-1
 225 612 l 2,1,2
 225 657 225 657 253.5 696 c 128,-1,3
 282 735 282 735 333 735 c 128,-1,4
 384 735 384 735 446 709 c 1,5,-1
 441 668 l 1,6,7
 376 668 376 668 363 654 c 128,-1,8
 350 640 350 640 341 579.5 c 128,-1,9
 332 519 332 519 324 427.5 c 128,-1,10
 316 336 316 336 313 316 c 0,11,12
 307 273 307 273 260 253 c 1,13,14
 296 231 296 231 296 194.5 c 128,-1,15
 296 158 296 158 275 37 c 128,-1,16
 254 -84 254 -84 254 -109 c 128,-1,17
 254 -134 254 -134 257 -141 c 0,18,19
 262 -155 262 -155 282 -164 c 128,-1,20
 302 -173 302 -173 320 -176 c 2,21,-1
 338 -178 l 1,22,-1
 332 -219 l 1,23,24
 303 -224 303 -224 265 -224 c 0,25,26
 133 -224 133 -224 133 -112 c 0,27,28
 133 -76 133 -76 169.5 48 c 128,-1,29
 206 172 206 172 214 215 c 1,30,31
 209 221 209 221 175.5 226.5 c 128,-1,32
 142 232 142 232 112 234 c 2,33,-1
 81 236 l 1,34,-1
 91 309 l 1,35,36
 179 297 179 297 213 297 c 1,37,-1
 224 298 l 1,38,39
 228 335 228 335 228 390 c 2,0,-1
EndSplineSet
EndChar

StartChar: bar
Encoding: 124 124 95
Width: 266
GlyphClass: 2
Flags: W
LayerCount: 2
Fore
SplineSet
199 794 m 1,0,-1
 199 -144 l 1,1,2
 176 -147 176 -147 112 -147 c 1,3,-1
 112 791 l 1,4,5
 147 794 147 794 199 794 c 1,0,-1
EndSplineSet
EndChar

StartChar: braceright
Encoding: 125 125 96
Width: 433
GlyphClass: 2
Flags: W
LayerCount: 2
Fore
SplineSet
249 121 m 2,0,-1
 252 -101 l 2,1,2
 252 -146 252 -146 223.5 -185 c 128,-1,3
 195 -224 195 -224 144 -224 c 128,-1,4
 93 -224 93 -224 31 -198 c 1,5,-1
 36 -157 l 1,6,7
 101 -157 101 -157 114 -143 c 128,-1,8
 127 -129 127 -129 136 -68.5 c 128,-1,9
 145 -8 145 -8 153 83.5 c 128,-1,10
 161 175 161 175 164 195 c 0,11,12
 170 238 170 238 217 258 c 1,13,14
 181 280 181 280 181 316.5 c 128,-1,15
 181 353 181 353 202 474 c 128,-1,16
 223 595 223 595 223 619.5 c 128,-1,17
 223 644 223 644 219 655 c 128,-1,18
 215 666 215 666 195 675 c 128,-1,19
 175 684 175 684 157 686 c 2,20,-1
 139 689 l 1,21,-1
 145 730 l 1,22,23
 174 735 174 735 212 735 c 0,24,25
 344 735 344 735 344 623 c 0,26,27
 344 587 344 587 307.5 463 c 128,-1,28
 271 339 271 339 263 296 c 1,29,30
 268 290 268 290 301.5 284.5 c 128,-1,31
 335 279 335 279 366 277 c 2,32,-1
 396 275 l 1,33,-1
 386 202 l 1,34,35
 298 214 298 214 264 214 c 1,36,-1
 253 213 l 1,37,38
 249 176 249 176 249 121 c 2,0,-1
EndSplineSet
EndChar

StartChar: asciitilde
Encoding: 126 126 97
Width: 535
GlyphClass: 2
Flags: W
LayerCount: 2
Fore
SplineSet
376 235 m 0,0,1
 350 235 350 235 275 248 c 128,-1,2
 200 261 200 261 166.5 261 c 128,-1,3
 133 261 133 261 124 260 c 0,4,5
 97 255 97 255 78 226 c 1,6,-1
 47 233 l 1,7,8
 55 288 55 288 87.5 324.5 c 128,-1,9
 120 361 120 361 166.5 361 c 128,-1,10
 213 361 213 361 290 349 c 128,-1,11
 367 337 367 337 397.5 337 c 128,-1,12
 428 337 428 337 444 343 c 128,-1,13
 460 349 460 349 474 369 c 1,14,-1
 505 363 l 1,15,16
 495 305 495 305 467 270 c 128,-1,17
 439 235 439 235 376 235 c 0,0,1
EndSplineSet
EndChar

StartChar: exclamdown
Encoding: 161 161 99
Width: 272
GlyphClass: 2
Flags: W
LayerCount: 2
Fore
SplineSet
251 422 m 128,-1,1
 270 401 270 401 270 366 c 128,-1,2
 270 331 270 331 244 305.5 c 128,-1,3
 218 280 218 280 182.5 280 c 128,-1,4
 147 280 147 280 128 300.5 c 128,-1,5
 109 321 109 321 109 355.5 c 128,-1,6
 109 390 109 390 135.5 416.5 c 128,-1,7
 162 443 162 443 197 443 c 128,-1,0
 232 443 232 443 251 422 c 128,-1,1
16 -233 m 0,8,9
 16 -134 16 -134 81 78 c 0,10,11
 86 95 86 95 99.5 139.5 c 128,-1,12
 113 184 113 184 120 208 c 1,13,14
 147 219 147 219 170 219 c 128,-1,15
 193 219 193 219 204 215 c 1,16,17
 168 -2 168 -2 168 -168 c 1,18,-1
 174 -252 l 1,19,20
 89 -279 89 -279 23 -279 c 1,21,22
 16 -270 16 -270 16 -233 c 0,8,9
EndSplineSet
EndChar

StartChar: cent
Encoding: 162 162 100
Width: 388
GlyphClass: 2
Flags: W
LayerCount: 2
Fore
SplineSet
252 393 m 0,0,1
 218 393 218 393 191 332 c 128,-1,2
 164 271 164 271 164 214 c 0,3,4
 164 94 164 94 238 94 c 0,5,6
 262 94 262 94 289 105.5 c 128,-1,7
 316 117 316 117 332 128 c 1,8,-1
 347 140 l 1,9,-1
 370 109 l 1,10,11
 362 101 362 101 348.5 88 c 128,-1,12
 335 75 335 75 292 50.5 c 128,-1,13
 249 26 249 26 205 20 c 1,14,15
 194 -54 194 -54 194 -94 c 1,16,17
 148 -94 148 -94 128 -84 c 1,18,-1
 147 20 l 1,19,20
 82 29 82 29 50 78.5 c 128,-1,21
 18 128 18 128 18 214 c 128,-1,22
 18 300 18 300 77 365.5 c 128,-1,23
 136 431 136 431 223 441 c 1,24,25
 235 541 235 541 235 561 c 1,26,27
 275 561 275 561 301 551 c 1,28,-1
 280 441 l 1,29,30
 335 435 335 435 366.5 405.5 c 128,-1,31
 398 376 398 376 398 334.5 c 128,-1,32
 398 293 398 293 370 261 c 1,33,34
 345 261 345 261 312 272 c 128,-1,35
 279 283 279 283 262 299 c 1,36,-1
 277 387 l 1,37,38
 268 393 268 393 252 393 c 0,0,1
EndSplineSet
EndChar

StartChar: sterling
Encoding: 163 163 101
Width: 523
GlyphClass: 2
Flags: W
LayerCount: 2
Fore
SplineSet
432 431 m 1,0,1
 430 406 430 406 415 373 c 1,2,3
 377 377 377 377 303 377 c 2,4,-1
 276 377 l 1,5,6
 246 248 246 248 200 150 c 1,7,8
 204 149 204 149 229.5 142 c 128,-1,9
 255 135 255 135 263.5 133 c 128,-1,10
 272 131 272 131 294.5 126 c 128,-1,11
 317 121 317 121 332 119 c 0,12,13
 375 113 375 113 401 113 c 128,-1,14
 427 113 427 113 439 125 c 1,15,-1
 469 181 l 1,16,-1
 501 171 l 1,17,18
 501 106 501 106 480 48 c 0,19,20
 468 17 468 17 442.5 -1 c 128,-1,21
 417 -19 417 -19 382.5 -19 c 128,-1,22
 348 -19 348 -19 279.5 23 c 128,-1,23
 211 65 211 65 170 77 c 1,24,25
 143 41 143 41 109 17 c 128,-1,26
 75 -7 75 -7 62 -7 c 0,27,28
 52 -7 52 -7 22 36.5 c 128,-1,29
 -8 80 -8 80 -8 99 c 0,30,31
 -8 110 -8 110 23.5 132 c 128,-1,32
 55 154 55 154 90 162 c 1,33,34
 112 223 112 223 133 370 c 1,35,36
 108 369 108 369 90 365 c 1,37,38
 88 377 88 377 88 394 c 128,-1,39
 88 411 88 411 91 431 c 1,40,-1
 141 431 l 1,41,-1
 150 503 l 2,42,43
 168 645 168 645 229 692 c 0,44,45
 260 716 260 716 294 724.5 c 128,-1,46
 328 733 328 733 384 733 c 128,-1,47
 440 733 440 733 494 701 c 128,-1,48
 548 669 548 669 548 621 c 0,49,50
 548 599 548 599 538 573.5 c 128,-1,51
 528 548 528 548 515 535 c 1,52,53
 490 535 490 535 451 551.5 c 128,-1,54
 412 568 412 568 393 587 c 1,55,-1
 411 673 l 1,56,57
 400 682 400 682 381.5 682 c 128,-1,58
 363 682 363 682 351.5 673 c 128,-1,59
 340 664 340 664 332.5 649.5 c 128,-1,60
 325 635 325 635 319 609 c 128,-1,61
 313 583 313 583 310 569 c 128,-1,62
 307 555 307 555 301 517.5 c 128,-1,63
 295 480 295 480 294 474 c 2,64,-1
 287 431 l 1,65,-1
 432 431 l 1,0,1
EndSplineSet
EndChar

StartChar: currency
Encoding: 164 164 102
Width: 654
GlyphClass: 2
Flags: W
LayerCount: 2
Fore
SplineSet
151 217 m 1,0,1
 116 271 116 271 116 347 c 128,-1,2
 116 423 116 423 149 478 c 1,3,4
 79 536 79 536 47 579 c 1,5,6
 93 638 93 638 117 638 c 0,7,8
 128 638 128 638 139 626 c 128,-1,9
 150 614 150 614 172.5 585.5 c 128,-1,10
 195 557 195 557 211 541 c 1,11,12
 268 575 268 575 345 575 c 128,-1,13
 422 575 422 575 479 541 c 1,14,15
 519 593 519 593 540 624 c 0,16,17
 550 638 550 638 563 637.5 c 128,-1,18
 576 637 576 637 583 634 c 0,19,20
 600 627 600 627 636 582 c 1,21,22
 605 539 605 539 541 480 c 1,23,24
 576 424 576 424 576 349 c 128,-1,25
 576 274 576 274 541 218 c 1,26,27
 608 157 608 157 636 117 c 1,28,29
 590 60 590 60 566 60 c 0,30,31
 552 60 552 60 543 71.5 c 128,-1,32
 534 83 534 83 512.5 112 c 128,-1,33
 491 141 491 141 479 157 c 1,34,35
 425 123 425 123 345.5 123 c 128,-1,36
 266 123 266 123 210 158 c 1,37,38
 209 157 209 157 151 73 c 0,39,40
 142 61 142 61 130 61 c 0,41,42
 103 61 103 61 57 117 c 1,43,44
 92 164 92 164 151 217 c 1,0,1
238.5 453 m 128,-1,46
 202 413 202 413 202 349.5 c 128,-1,47
 202 286 202 286 238.5 245.5 c 128,-1,48
 275 205 275 205 345.5 205 c 128,-1,49
 416 205 416 205 453 245.5 c 128,-1,50
 490 286 490 286 490 349 c 128,-1,51
 490 412 490 412 453 452.5 c 128,-1,52
 416 493 416 493 345.5 493 c 128,-1,45
 275 493 275 493 238.5 453 c 128,-1,46
EndSplineSet
EndChar

StartChar: yen
Encoding: 165 165 103
Width: 489
GlyphClass: 2
Flags: W
LayerCount: 2
Fore
SplineSet
433 204 m 1,0,1
 431 179 431 179 416 146 c 1,2,-1
 298 150 l 1,3,4
 287 82 287 82 287 20 c 1,5,6
 255 0 255 0 142 0 c 2,7,-1
 138 0 l 1,8,9
 138 44 138 44 159 147 c 1,10,11
 95 144 95 144 52 138 c 1,12,13
 50 150 50 150 50 167 c 128,-1,14
 50 184 50 184 53 204 c 1,15,-1
 170 204 l 1,16,-1
 180 251 l 1,17,18
 94 247 94 247 64 242 c 1,19,20
 62 254 62 254 62 271 c 128,-1,21
 62 288 62 288 65 308 c 1,22,-1
 192 308 l 1,23,24
 182 318 182 318 175 337 c 0,25,26
 159 376 159 376 143 478 c 128,-1,27
 127 580 127 580 117.5 607.5 c 128,-1,28
 108 635 108 635 100 640 c 1,29,-1
 61 682 l 1,30,-1
 64 695 l 1,31,32
 152 710 152 710 244 710 c 1,33,34
 259 684 259 684 263.5 644.5 c 128,-1,35
 268 605 268 605 273 548 c 0,36,37
 283 437 283 437 295 398 c 1,38,39
 301 398 301 398 302 399 c 0,40,41
 337 452 337 452 379 541.5 c 128,-1,42
 421 631 421 631 443 708 c 1,43,44
 500 708 500 708 532 693 c 1,45,46
 523 679 523 679 450.5 535 c 128,-1,47
 378 391 378 391 334 321 c 1,48,-1
 331 308 l 1,49,-1
 445 308 l 1,50,51
 443 283 443 283 428 250 c 1,52,-1
 318 254 l 1,53,-1
 308 204 l 1,54,-1
 433 204 l 1,0,1
EndSplineSet
EndChar

StartChar: brokenbar
Encoding: 166 166 104
Width: 276
GlyphClass: 2
Flags: W
LayerCount: 2
Fore
SplineSet
112 -147 m 1,0,-1
 112 289 l 1,1,-1
 199 289 l 1,2,-1
 199 -144 l 1,3,4
 176 -147 176 -147 112 -147 c 1,0,-1
199 403 m 1,5,-1
 112 403 l 1,6,-1
 112 791 l 1,7,8
 114 791 114 791 199 794 c 1,9,-1
 199 403 l 1,5,-1
EndSplineSet
EndChar

StartChar: section
Encoding: 167 167 105
Width: 479
GlyphClass: 2
Flags: W
LayerCount: 2
Fore
SplineSet
464 274 m 0,0,1
 464 171 464 171 319 117 c 1,2,3
 378 38 378 38 378 -25 c 128,-1,4
 378 -88 378 -88 318.5 -130 c 128,-1,5
 259 -172 259 -172 188 -172 c 0,6,7
 145 -172 145 -172 101 -155 c 128,-1,8
 57 -138 57 -138 33 -119 c 128,-1,9
 9 -100 9 -100 8 -90 c 1,10,11
 16 -65 16 -65 47.5 -37 c 128,-1,12
 79 -9 79 -9 106 -1 c 1,13,14
 146 -29 146 -29 174 -114 c 1,15,16
 201 -114 201 -114 222 -101 c 128,-1,17
 243 -88 243 -88 243 -59 c 128,-1,18
 243 -30 243 -30 223 3 c 128,-1,19
 203 36 203 36 174 68 c 128,-1,20
 145 100 145 100 116 134 c 0,21,22
 47 215 47 215 47 288 c 0,23,24
 47 394 47 394 192 440 c 1,25,26
 133 519 133 519 133 583 c 128,-1,27
 133 647 133 647 192.5 690.5 c 128,-1,28
 252 734 252 734 322 734 c 128,-1,29
 392 734 392 734 431 703.5 c 128,-1,30
 470 673 470 673 470 631 c 0,31,32
 470 559 470 559 415 514 c 1,33,34
 398 520 398 520 384.5 530.5 c 128,-1,35
 371 541 371 541 361 556 c 1,36,37
 404 590 404 590 404 625 c 0,38,39
 404 647 404 647 385 660 c 128,-1,40
 366 673 366 673 335 673 c 128,-1,41
 304 673 304 673 285 656.5 c 128,-1,42
 266 640 266 640 265 610 c 1,43,44
 270 563 270 563 340 485 c 0,45,46
 368 453 368 453 396 420 c 0,47,48
 464 340 464 340 464 274 c 0,0,1
331 241 m 0,49,50
 331 258 331 258 322 274 c 128,-1,51
 313 290 313 290 308.5 297.5 c 128,-1,52
 304 305 304 305 292 320 c 128,-1,53
 280 335 280 335 274.5 341.5 c 128,-1,54
 269 348 269 348 253.5 365.5 c 128,-1,55
 238 383 238 383 233 389 c 1,56,57
 179 361 179 361 179 317 c 0,58,59
 179 299 179 299 188 283 c 128,-1,60
 197 267 197 267 202 259 c 128,-1,61
 207 251 207 251 219 236 c 128,-1,62
 231 221 231 221 236.5 214.5 c 128,-1,63
 242 208 242 208 258 190 c 128,-1,64
 274 172 274 172 279 166 c 1,65,66
 331 200 331 200 331 241 c 0,49,50
EndSplineSet
EndChar

StartChar: dieresis
Encoding: 168 168 106
Width: 509
GlyphClass: 2
Flags: W
LayerCount: 2
Fore
SplineSet
106 557 m 128,-1,1
 90 575 90 575 90 605 c 128,-1,2
 90 635 90 635 112.5 656.5 c 128,-1,3
 135 678 135 678 164 678 c 0,4,5
 227 678 227 678 227 613 c 0,6,7
 227 584 227 584 204 561.5 c 128,-1,8
 181 539 181 539 151.5 539 c 128,-1,0
 122 539 122 539 106 557 c 128,-1,1
301.5 556.5 m 128,-1,10
 286 574 286 574 286 604.5 c 128,-1,11
 286 635 286 635 308.5 656.5 c 128,-1,12
 331 678 331 678 361 678 c 128,-1,13
 391 678 391 678 407 660.5 c 128,-1,14
 423 643 423 643 423 613.5 c 128,-1,15
 423 584 423 584 400 561.5 c 128,-1,16
 377 539 377 539 347 539 c 128,-1,9
 317 539 317 539 301.5 556.5 c 128,-1,10
EndSplineSet
EndChar

StartChar: copyright
Encoding: 169 169 107
Width: 793
GlyphClass: 2
Flags: W
LayerCount: 2
Fore
SplineSet
544 543 m 128,-1,1
 586 513 586 513 586 476.5 c 128,-1,2
 586 440 586 440 571 414 c 1,3,4
 545 414 545 414 512 422.5 c 128,-1,5
 479 431 479 431 463 443 c 1,6,-1
 470 513 l 1,7,8
 453 523 453 523 437 523 c 0,9,10
 394 523 394 523 367.5 472.5 c 128,-1,11
 341 422 341 422 341 328 c 0,12,13
 341 270 341 270 366 235 c 128,-1,14
 391 200 391 200 426 200 c 0,15,16
 478 200 478 200 530 245 c 1,17,-1
 554 213 l 1,18,19
 521 163 521 163 451 141 c 0,20,21
 423 132 423 132 392 132 c 0,22,23
 315 132 315 132 263.5 183 c 128,-1,24
 212 234 212 234 212 330.5 c 128,-1,25
 212 427 212 427 279.5 500 c 128,-1,26
 347 573 347 573 447 573 c 0,27,0
 502 573 502 573 544 543 c 128,-1,1
132 89.5 m 128,-1,29
 35 191 35 191 35 347 c 128,-1,30
 35 503 35 503 134 606.5 c 128,-1,31
 233 710 233 710 410.5 710 c 128,-1,32
 588 710 588 710 684.5 609 c 128,-1,33
 781 508 781 508 781 349.5 c 128,-1,34
 781 191 781 191 684 89.5 c 128,-1,35
 587 -12 587 -12 408 -12 c 128,-1,28
 229 -12 229 -12 132 89.5 c 128,-1,29
185 560 m 128,-1,37
 105 475 105 475 105 347.5 c 128,-1,38
 105 220 105 220 183 136.5 c 128,-1,39
 261 53 261 53 408 53 c 128,-1,40
 555 53 555 53 633 136.5 c 128,-1,41
 711 220 711 220 711 350 c 128,-1,42
 711 480 711 480 633 562.5 c 128,-1,43
 555 645 555 645 410 645 c 128,-1,36
 265 645 265 645 185 560 c 128,-1,37
EndSplineSet
EndChar

StartChar: ordfeminine
Encoding: 170 170 108
Width: 356
GlyphClass: 2
Flags: W
LayerCount: 2
Fore
SplineSet
158 321 m 128,-1,1
 129 306 129 306 99.5 306 c 128,-1,2
 70 306 70 306 45 335.5 c 128,-1,3
 20 365 20 365 20 432 c 0,4,5
 20 528 20 528 69.5 594 c 128,-1,6
 119 660 119 660 200 660 c 0,7,8
 231 660 231 660 331 632 c 1,9,10
 312 584 312 584 296.5 506.5 c 128,-1,11
 281 429 281 429 281 400 c 128,-1,12
 281 371 281 371 292 371 c 1,13,-1
 328 379 l 1,14,-1
 339 351 l 1,15,16
 284 305 284 305 244 305 c 0,17,18
 208 305 208 305 203 356 c 1,19,0
 187 336 187 336 158 321 c 128,-1,1
138 376 m 0,20,21
 167 376 167 376 199 410 c 1,22,23
 223 546 223 546 241 600 c 1,24,25
 228 607 228 607 200 607 c 128,-1,26
 172 607 172 607 150 578 c 0,27,28
 106 520 106 520 106 433 c 0,29,30
 106 376 106 376 138 376 c 0,20,21
EndSplineSet
EndChar

StartChar: guillemotleft
Encoding: 171 171 109
Width: 494
GlyphClass: 2
Flags: W
LayerCount: 2
Fore
SplineSet
234 492 m 1,0,-1
 277 458 l 1,1,2
 186 344 186 344 165 301 c 1,3,4
 182 249 182 249 245 146 c 1,5,-1
 203 111 l 1,6,7
 168 135 168 135 107.5 201 c 128,-1,8
 47 267 47 267 47 296 c 1,9,10
 50 332 50 332 234 492 c 1,0,-1
430 492 m 1,11,-1
 473 458 l 1,12,13
 382 344 382 344 361 301 c 1,14,15
 378 249 378 249 441 146 c 1,16,-1
 399 111 l 1,17,18
 364 135 364 135 303.5 201 c 128,-1,19
 243 267 243 267 243 296 c 1,20,21
 246 332 246 332 430 492 c 1,11,-1
EndSplineSet
EndChar

StartChar: logicalnot
Encoding: 172 172 110
Width: 503
GlyphClass: 2
Flags: W
LayerCount: 2
Fore
SplineSet
449 388 m 1,0,-1
 449 169 l 1,1,2
 423 156 423 156 358 156 c 1,3,-1
 358 302 l 1,4,-1
 49 302 l 1,5,6
 49 366 49 366 55 388 c 1,7,-1
 449 388 l 1,0,-1
EndSplineSet
EndChar

StartChar: uni00AD
Encoding: 173 173 111
Width: 518
GlyphClass: 2
Flags: W
LayerCount: 2
Fore
SplineSet
76 159 m 1,0,1
 76 221 76 221 86 249 c 1,2,-1
 456 249 l 1,3,4
 456 182 456 182 450 159 c 1,5,-1
 76 159 l 1,0,1
EndSplineSet
EndChar

StartChar: registered
Encoding: 174 174 112
Width: 796
GlyphClass: 2
Flags: W
LayerCount: 2
Fore
SplineSet
132 89.5 m 128,-1,1
 35 191 35 191 35 349.5 c 128,-1,2
 35 508 35 508 131.5 609 c 128,-1,3
 228 710 228 710 408 710 c 128,-1,4
 588 710 588 710 684.5 609 c 128,-1,5
 781 508 781 508 781 349.5 c 128,-1,6
 781 191 781 191 684 89.5 c 128,-1,7
 587 -12 587 -12 408 -12 c 128,-1,0
 229 -12 229 -12 132 89.5 c 128,-1,1
183 562.5 m 128,-1,9
 105 480 105 480 105 350 c 128,-1,10
 105 220 105 220 183 136.5 c 128,-1,11
 261 53 261 53 408 53 c 128,-1,12
 555 53 555 53 633 136.5 c 128,-1,13
 711 220 711 220 711 350 c 128,-1,14
 711 480 711 480 633 562.5 c 128,-1,15
 555 645 555 645 408 645 c 128,-1,8
 261 645 261 645 183 562.5 c 128,-1,9
232 149 m 0,16,17
 221 149 221 149 217 150 c 1,18,19
 221 186 221 186 251.5 319 c 128,-1,20
 282 452 282 452 282 487 c 0,21,22
 282 500 282 500 258 525 c 1,23,-1
 251 533 l 1,24,-1
 255 549 l 1,25,26
 350 569 350 569 451 569 c 0,27,28
 509 569 509 569 543 547 c 128,-1,29
 577 525 577 525 577 480 c 0,30,31
 577 387 577 387 483 354 c 1,32,33
 486 343 486 343 527 258 c 0,34,35
 548 213 548 213 567 213 c 1,36,-1
 601 221 l 1,37,-1
 614 194 l 1,38,39
 558 149 558 149 505.5 149 c 128,-1,40
 453 149 453 149 433 199.5 c 128,-1,41
 413 250 413 250 391 335 c 1,42,43
 383 334 383 334 366 334 c 1,44,45
 336 195 336 195 334 162 c 1,46,47
 308 149 308 149 232 149 c 0,16,17
394 383 m 2,48,49
 429 383 429 383 447 410.5 c 128,-1,50
 465 438 465 438 465 483.5 c 128,-1,51
 465 529 465 529 433 529 c 1,52,-1
 406 525 l 1,53,54
 392 455 392 455 376 383 c 1,55,-1
 394 383 l 2,48,49
EndSplineSet
EndChar

StartChar: macron
Encoding: 175 175 113
Width: 469
GlyphClass: 2
Flags: W
LayerCount: 2
Fore
SplineSet
138 576 m 1,0,1
 135 591 135 591 135 612 c 128,-1,2
 135 633 135 633 139 659 c 1,3,-1
 471 659 l 1,4,-1
 462 579 l 1,5,6
 398 583 398 583 295.5 583 c 128,-1,7
 193 583 193 583 138 576 c 1,0,1
EndSplineSet
EndChar

StartChar: degree
Encoding: 176 176 114
Width: 233
GlyphClass: 2
Flags: W
LayerCount: 2
Fore
SplineSet
268.5 690.5 m 128,-1,1
 300 667 300 667 300 617.5 c 128,-1,2
 300 568 300 568 263 524.5 c 128,-1,3
 226 481 226 481 156 481 c 0,4,5
 106 481 106 481 73 506 c 128,-1,6
 40 531 40 531 40 584.5 c 128,-1,7
 40 638 40 638 78.5 676 c 128,-1,8
 117 714 117 714 177 714 c 128,-1,0
 237 714 237 714 268.5 690.5 c 128,-1,1
160 530 m 0,9,10
 193 530 193 530 206 557 c 128,-1,11
 219 584 219 584 219 619 c 0,12,13
 219 665 219 665 180 665 c 0,14,15
 148 665 148 665 134 639 c 128,-1,16
 120 613 120 613 120 576 c 0,17,18
 120 530 120 530 160 530 c 0,9,10
EndSplineSet
EndChar

StartChar: plusminus
Encoding: 177 177 115
Width: 545
GlyphClass: 2
Flags: W
LayerCount: 2
Fore
SplineSet
310 308 m 1,0,-1
 310 166 l 1,1,2
 290 157 290 157 227 157 c 2,3,-1
 218 157 l 1,4,-1
 218 308 l 1,5,-1
 79 308 l 1,6,7
 79 369 79 369 83 398 c 1,8,-1
 218 398 l 1,9,-1
 218 536 l 1,10,11
 250 544 250 544 309 544 c 1,12,-1
 309 398 l 1,13,-1
 457 398 l 1,14,15
 457 316 457 316 454 308 c 1,16,-1
 310 308 l 1,0,-1
79 12 m 1,17,18
 79 78 79 78 90 102 c 1,19,-1
 458 102 l 1,20,21
 458 32 458 32 454 12 c 1,22,-1
 79 12 l 1,17,18
EndSplineSet
EndChar

StartChar: twosuperior
Encoding: 178 178 116
Width: 363
GlyphClass: 2
Flags: W
LayerCount: 2
Fore
SplineSet
339 369 m 0,0,1
 323 351 323 351 301.5 351 c 128,-1,2
 280 351 280 351 250.5 361.5 c 128,-1,3
 221 372 221 372 192 385 c 128,-1,4
 163 398 163 398 156 400 c 1,5,6
 134 382 134 382 112 371.5 c 128,-1,7
 90 361 90 361 82 361 c 128,-1,8
 74 361 74 361 59.5 380.5 c 128,-1,9
 45 400 45 400 45 409.5 c 128,-1,10
 45 419 45 419 67 438 c 128,-1,11
 89 457 89 457 112 457 c 0,12,13
 118 457 118 457 136 455 c 1,14,15
 174 480 174 480 207.5 530 c 128,-1,16
 241 580 241 580 241 627 c 128,-1,17
 241 674 241 674 205 674 c 0,18,19
 188 674 188 674 168 660.5 c 128,-1,20
 148 647 148 647 134 625 c 1,21,-1
 100 644 l 1,22,23
 159 734 159 734 248 734 c 0,24,25
 299 734 299 734 327 710 c 128,-1,26
 355 686 355 686 355 638 c 128,-1,27
 355 590 355 590 308.5 536 c 128,-1,28
 262 482 262 482 205 444 c 1,29,30
 273 428 273 428 296.5 428 c 128,-1,31
 320 428 320 428 327 434 c 1,32,-1
 343 459 l 1,33,-1
 364 453 l 1,34,35
 364 397 364 397 339 369 c 0,0,1
EndSplineSet
EndChar

StartChar: threesuperior
Encoding: 179 179 117
Width: 319
GlyphClass: 2
Flags: W
LayerCount: 2
Fore
SplineSet
139 713.5 m 128,-1,1
 174 734 174 734 223 734 c 128,-1,2
 272 734 272 734 301 712.5 c 128,-1,3
 330 691 330 691 330 659 c 128,-1,4
 330 627 330 627 304 602.5 c 128,-1,5
 278 578 278 578 235 567 c 1,6,7
 334 555 334 555 334 473 c 0,8,9
 334 423 334 423 296 385.5 c 128,-1,10
 258 348 258 348 194 348 c 128,-1,11
 130 348 130 348 88 369 c 128,-1,12
 46 390 46 390 46 427 c 0,13,14
 46 452 46 452 60 469 c 1,15,16
 66 470 66 470 80 470 c 0,17,18
 114 470 114 470 136 446 c 1,19,-1
 130 398 l 1,20,21
 138 391 138 391 152 391 c 0,22,23
 181 391 181 391 200.5 415 c 128,-1,24
 220 439 220 439 220 476 c 128,-1,25
 220 513 220 513 199.5 525 c 128,-1,26
 179 537 179 537 136 537 c 1,27,-1
 134 570 l 1,28,29
 147 570 147 570 163 574 c 0,30,31
 221 587 221 587 221 638 c 0,32,33
 221 680 221 680 183 680 c 128,-1,34
 145 680 145 680 113 642 c 1,35,-1
 85 664 l 1,36,0
 104 693 104 693 139 713.5 c 128,-1,1
EndSplineSet
EndChar

StartChar: acute
Encoding: 180 180 118
Width: 607
GlyphClass: 2
Flags: W
LayerCount: 2
Fore
SplineSet
447 616 m 0,0,1
 447 588 447 588 411 571 c 0,2,3
 362 548 362 548 166 503 c 1,4,-1
 148 543 l 1,5,6
 242 592 242 592 318 643 c 128,-1,7
 394 694 394 694 412 705 c 1,8,9
 422 691 422 691 434.5 661 c 128,-1,10
 447 631 447 631 447 616 c 0,0,1
EndSplineSet
EndChar

StartChar: mu
Encoding: 181 181 119
AltUni2: 0003bc.ffffffff.0
Width: 503
GlyphClass: 2
Flags: W
LayerCount: 2
Fore
SplineSet
70 219 m 0,0,1
 94 312 94 312 94 342 c 128,-1,2
 94 372 94 372 58 411 c 1,3,-1
 59 424 l 1,4,5
 114 439 114 439 240 439 c 1,6,7
 243 432 243 432 243 414 c 0,8,9
 243 354 243 354 215 244.5 c 128,-1,10
 187 135 187 135 187 108 c 128,-1,11
 187 81 187 81 207 81 c 0,12,13
 236 81 236 81 274 102 c 1,14,15
 278 126 278 126 294 194 c 0,16,17
 330 354 330 354 330 423 c 1,18,19
 365 437 365 437 456 437 c 2,20,-1
 475 437 l 1,21,22
 475 390 475 390 447 253.5 c 128,-1,23
 419 117 419 117 419 93.5 c 128,-1,24
 419 70 419 70 429 70 c 0,25,26
 435 70 435 70 486 94 c 1,27,-1
 505 62 l 1,28,29
 416 -12 416 -12 349 -12 c 0,30,31
 317 -12 317 -12 294.5 6 c 128,-1,32
 272 24 272 24 269 53 c 1,33,34
 188 -10 188 -10 129 -13 c 1,35,36
 125 -53 125 -53 125 -100.5 c 128,-1,37
 125 -148 125 -148 140 -198 c 1,38,39
 97 -215 97 -215 34 -221 c 2,40,-1
 4 -224 l 1,41,42
 1 -198 1 -198 1 -172 c 0,43,44
 1 -56 1 -56 70 219 c 0,0,1
EndSplineSet
EndChar

StartChar: paragraph
Encoding: 182 182 120
Width: 581
GlyphClass: 2
Flags: W
LayerCount: 2
Fore
SplineSet
357 698 m 2,0,-1
 576 699 l 1,1,2
 582 672 582 672 582 619.5 c 128,-1,3
 582 567 582 567 562.5 476.5 c 128,-1,4
 543 386 543 386 519 304 c 128,-1,5
 495 222 495 222 472 104.5 c 128,-1,6
 449 -13 449 -13 443 -120 c 1,7,8
 406 -140 406 -140 357 -140 c 2,9,-1
 347 -140 l 1,10,11
 349 -58 349 -58 416.5 232.5 c 128,-1,12
 484 523 484 523 490 629 c 1,13,14
 436 629 436 629 423 621 c 1,15,16
 417 512 417 512 343.5 226 c 128,-1,17
 270 -60 270 -60 263 -145 c 1,18,19
 226 -165 226 -165 177 -165 c 2,20,-1
 167 -165 l 1,21,22
 171 -89 171 -89 226 161 c 1,23,-1
 217 161 l 2,24,25
 143 161 143 161 100 214 c 128,-1,26
 57 267 57 267 57 364 c 0,27,28
 57 508 57 508 138 603 c 128,-1,29
 219 698 219 698 357 698 c 2,0,-1
EndSplineSet
EndChar

StartChar: periodcentered
Encoding: 183 183 121
Width: 289
GlyphClass: 2
Flags: W
LayerCount: 2
Fore
SplineSet
93.5 276.5 m 128,-1,1
 74 297 74 297 74 328.5 c 128,-1,2
 74 360 74 360 96 382.5 c 128,-1,3
 118 405 118 405 151 405 c 128,-1,4
 184 405 184 405 203.5 385 c 128,-1,5
 223 365 223 365 223 333.5 c 128,-1,6
 223 302 223 302 200 279 c 128,-1,7
 177 256 177 256 145 256 c 128,-1,0
 113 256 113 256 93.5 276.5 c 128,-1,1
EndSplineSet
EndChar

StartChar: cedilla
Encoding: 184 184 122
Width: 495
GlyphClass: 2
Flags: W
LayerCount: 2
Fore
SplineSet
226 -94 m 0,0,1
 226 -118 226 -118 250 -118 c 128,-1,2
 274 -118 274 -118 307 -102 c 1,3,-1
 318 -96 l 1,4,-1
 336 -130 l 1,5,6
 329 -137 329 -137 317 -147.5 c 128,-1,7
 305 -158 305 -158 269 -176 c 128,-1,8
 233 -194 233 -194 202 -194 c 128,-1,9
 171 -194 171 -194 152 -175.5 c 128,-1,10
 133 -157 133 -157 133 -126.5 c 128,-1,11
 133 -96 133 -96 162.5 -58 c 128,-1,12
 192 -20 192 -20 223 0 c 1,13,-1
 287 -1 l 1,14,15
 261 -21 261 -21 243.5 -47.5 c 128,-1,16
 226 -74 226 -74 226 -94 c 0,0,1
EndSplineSet
EndChar

StartChar: onesuperior
Encoding: 185 185 123
Width: 277
GlyphClass: 2
Flags: W
LayerCount: 2
Fore
SplineSet
271 733 m 1,0,1
 277 723 277 723 277 699 c 128,-1,2
 277 675 277 675 246 541 c 128,-1,3
 215 407 215 407 213 365 c 1,4,5
 188 354 188 354 111 354 c 2,6,-1
 104 354 l 1,7,8
 106 379 106 379 136 511.5 c 128,-1,9
 166 644 166 644 166 665 c 1,10,-1
 164 677 l 1,11,12
 150 670 150 670 130.5 654.5 c 128,-1,13
 111 639 111 639 101 632 c 1,14,-1
 73 668 l 1,15,-1
 150 725 l 1,16,17
 189 731 189 731 271 733 c 1,0,1
EndSplineSet
EndChar

StartChar: ordmasculine
Encoding: 186 186 124
Width: 318
GlyphClass: 2
Flags: W
LayerCount: 2
Fore
SplineSet
324 627 m 128,-1,1
 357 594 357 594 357 537.5 c 128,-1,2
 357 481 357 481 338 431.5 c 128,-1,3
 319 382 319 382 273.5 344 c 128,-1,4
 228 306 228 306 165 306 c 0,5,6
 47 306 47 306 47 439 c 0,7,8
 47 532 47 532 99.5 596 c 128,-1,9
 152 660 152 660 234 660 c 0,10,0
 291 660 291 660 324 627 c 128,-1,1
161 551.5 m 128,-1,12
 135 494 135 494 135 425.5 c 128,-1,13
 135 357 135 357 176.5 357 c 128,-1,14
 218 357 218 357 243.5 417.5 c 128,-1,15
 269 478 269 478 269 543.5 c 128,-1,16
 269 609 269 609 228 609 c 128,-1,11
 187 609 187 609 161 551.5 c 128,-1,12
EndSplineSet
EndChar

StartChar: guillemotright
Encoding: 187 187 125
Width: 524
GlyphClass: 2
Flags: W
LayerCount: 2
Fore
SplineSet
291 111 m 1,0,-1
 248 145 l 1,1,2
 339 259 339 259 360 302 c 1,3,4
 343 354 343 354 280 457 c 1,5,-1
 322 492 l 1,6,7
 357 468 357 468 417.5 402 c 128,-1,8
 478 336 478 336 478 307 c 1,9,10
 475 271 475 271 291 111 c 1,0,-1
95 111 m 1,11,-1
 52 145 l 1,12,13
 143 259 143 259 164 302 c 1,14,15
 147 354 147 354 84 457 c 1,16,-1
 126 492 l 1,17,18
 161 468 161 468 221.5 402 c 128,-1,19
 282 336 282 336 282 307 c 1,20,21
 279 271 279 271 95 111 c 1,11,-1
EndSplineSet
EndChar

StartChar: onequarter
Encoding: 188 188 126
Width: 760
GlyphClass: 2
Flags: W
LayerCount: 2
Fore
SplineSet
619 701 m 1,0,1
 547 537 547 537 417 349 c 0,2,3
 370 281 370 281 319 184.5 c 128,-1,4
 268 88 268 88 235 -11 c 1,5,6
 218 -10 218 -10 192 0 c 0,7,8
 164 10 164 10 144 27 c 1,9,10
 174 113 174 113 226 207.5 c 128,-1,11
 278 302 278 302 325.5 373.5 c 128,-1,12
 373 445 373 445 428 544 c 128,-1,13
 483 643 483 643 518 734 c 1,14,15
 593 719 593 719 619 701 c 1,0,1
674 68 m 0,16,17
 660 68 660 68 644 71 c 1,18,19
 637 27 637 27 637 11 c 1,20,21
 614 0 614 0 542 0 c 2,22,-1
 538 0 l 1,23,24
 538 14 538 14 544.5 42 c 128,-1,25
 551 70 551 70 554 85 c 1,26,27
 524 89 524 89 488.5 89 c 128,-1,28
 453 89 453 89 408 76 c 1,29,30
 402 76 402 76 391.5 87.5 c 128,-1,31
 381 99 381 99 381 105 c 128,-1,32
 381 111 381 111 389 122 c 0,33,34
 491 257 491 257 497 267 c 0,35,36
 520 304 520 304 568 370 c 1,37,38
 609 378 609 378 681 380 c 1,39,40
 688 367 688 367 688 339.5 c 128,-1,41
 688 312 688 312 654 142 c 1,42,43
 665 141 665 141 680.5 141 c 128,-1,44
 696 141 696 141 701 149 c 2,45,-1
 709 162 l 1,46,-1
 733 157 l 1,47,48
 721 68 721 68 674 68 c 0,16,17
564 152 m 1,49,50
 598 303 598 303 598 326 c 1,51,52
 542 253 542 253 486 158 c 1,53,54
 491 158 491 158 564 152 c 1,49,50
278 733 m 1,55,56
 284 723 284 723 284 699 c 128,-1,57
 284 675 284 675 253 541 c 128,-1,58
 222 407 222 407 220 365 c 1,59,60
 195 354 195 354 118 354 c 2,61,-1
 111 354 l 1,62,63
 113 379 113 379 143 511.5 c 128,-1,64
 173 644 173 644 173 665 c 1,65,-1
 171 677 l 1,66,67
 157 670 157 670 137.5 654.5 c 128,-1,68
 118 639 118 639 108 632 c 1,69,-1
 80 668 l 1,70,-1
 157 725 l 1,71,72
 196 731 196 731 278 733 c 1,55,56
EndSplineSet
EndChar

StartChar: onehalf
Encoding: 189 189 127
Width: 673
GlyphClass: 2
Flags: W
LayerCount: 2
Fore
SplineSet
571 701 m 1,0,1
 499 537 499 537 369 349 c 0,2,3
 322 281 322 281 271 184.5 c 128,-1,4
 220 88 220 88 187 -11 c 1,5,6
 170 -10 170 -10 144 0 c 0,7,8
 116 10 116 10 96 27 c 1,9,10
 126 113 126 113 178 207.5 c 128,-1,11
 230 302 230 302 277.5 373.5 c 128,-1,12
 325 445 325 445 380 544 c 128,-1,13
 435 643 435 643 470 734 c 1,14,15
 545 719 545 719 571 701 c 1,0,1
645 -4 m 0,16,17
 629 -22 629 -22 607.5 -22 c 128,-1,18
 586 -22 586 -22 556.5 -11.5 c 128,-1,19
 527 -1 527 -1 498 12 c 128,-1,20
 469 25 469 25 462 27 c 1,21,22
 440 9 440 9 418 -1.5 c 128,-1,23
 396 -12 396 -12 388 -12 c 128,-1,24
 380 -12 380 -12 365.5 7.5 c 128,-1,25
 351 27 351 27 351 36.5 c 128,-1,26
 351 46 351 46 373 65 c 128,-1,27
 395 84 395 84 418 84 c 0,28,29
 424 84 424 84 442 82 c 1,30,31
 480 107 480 107 513.5 157 c 128,-1,32
 547 207 547 207 547 254 c 128,-1,33
 547 301 547 301 511 301 c 0,34,35
 494 301 494 301 474 287.5 c 128,-1,36
 454 274 454 274 440 252 c 1,37,-1
 406 271 l 1,38,39
 465 361 465 361 554 361 c 0,40,41
 605 361 605 361 633 337 c 128,-1,42
 661 313 661 313 661 265 c 128,-1,43
 661 217 661 217 614.5 163 c 128,-1,44
 568 109 568 109 511 71 c 1,45,46
 579 55 579 55 602.5 55 c 128,-1,47
 626 55 626 55 633 61 c 1,48,-1
 649 86 l 1,49,-1
 670 80 l 1,50,51
 670 24 670 24 645 -4 c 0,16,17
230 733 m 1,52,53
 236 723 236 723 236 699 c 128,-1,54
 236 675 236 675 205 541 c 128,-1,55
 174 407 174 407 172 365 c 1,56,57
 147 354 147 354 70 354 c 2,58,-1
 63 354 l 1,59,60
 65 379 65 379 95 511.5 c 128,-1,61
 125 644 125 644 125 665 c 1,62,-1
 123 677 l 1,63,64
 109 670 109 670 89.5 654.5 c 128,-1,65
 70 639 70 639 60 632 c 1,66,-1
 32 668 l 1,67,-1
 109 725 l 1,68,69
 148 731 148 731 230 733 c 1,52,53
EndSplineSet
EndChar

StartChar: threequarters
Encoding: 190 190 128
Width: 823
GlyphClass: 2
Flags: W
LayerCount: 2
Fore
SplineSet
702 701 m 1,0,1
 630 537 630 537 500 349 c 0,2,3
 453 281 453 281 402 184.5 c 128,-1,4
 351 88 351 88 318 -11 c 1,5,6
 301 -10 301 -10 274 0 c 256,7,8
 247 10 247 10 227 27 c 1,9,10
 257 113 257 113 309 207.5 c 128,-1,11
 361 302 361 302 408.5 373.5 c 128,-1,12
 456 445 456 445 511 544 c 128,-1,13
 566 643 566 643 601 734 c 1,14,15
 676 719 676 719 702 701 c 1,0,1
760 68 m 0,16,17
 746 68 746 68 730 71 c 1,18,19
 723 27 723 27 723 11 c 1,20,21
 700 0 700 0 628 0 c 2,22,-1
 624 0 l 1,23,24
 624 14 624 14 630.5 42 c 128,-1,25
 637 70 637 70 640 85 c 1,26,27
 610 89 610 89 575 89 c 128,-1,28
 540 89 540 89 494 76 c 1,29,30
 488 76 488 76 477.5 87.5 c 128,-1,31
 467 99 467 99 467 105 c 128,-1,32
 467 111 467 111 475 122 c 0,33,34
 577 257 577 257 583 267 c 0,35,36
 606 304 606 304 654 370 c 1,37,38
 695 378 695 378 767 380 c 1,39,40
 774 370 774 370 774 341 c 128,-1,41
 774 312 774 312 740 142 c 1,42,43
 751 141 751 141 766.5 141 c 128,-1,44
 782 141 782 141 787 149 c 2,45,-1
 795 162 l 1,46,-1
 819 157 l 1,47,48
 807 68 807 68 760 68 c 0,16,17
650 152 m 1,49,50
 684 303 684 303 684 326 c 1,51,52
 628 253 628 253 572 158 c 1,53,54
 577 158 577 158 650 152 c 1,49,50
155 713.5 m 128,-1,56
 190 734 190 734 239 734 c 128,-1,57
 288 734 288 734 317 712.5 c 128,-1,58
 346 691 346 691 346 659 c 128,-1,59
 346 627 346 627 320 602.5 c 128,-1,60
 294 578 294 578 251 567 c 1,61,62
 350 555 350 555 350 473 c 0,63,64
 350 423 350 423 312 385.5 c 128,-1,65
 274 348 274 348 210 348 c 128,-1,66
 146 348 146 348 104 369 c 128,-1,67
 62 390 62 390 62 427 c 0,68,69
 62 452 62 452 76 469 c 1,70,71
 82 470 82 470 96 470 c 0,72,73
 130 470 130 470 152 446 c 1,74,-1
 146 398 l 1,75,76
 154 391 154 391 168 391 c 0,77,78
 197 391 197 391 216.5 415 c 128,-1,79
 236 439 236 439 236 476 c 128,-1,80
 236 513 236 513 215.5 525 c 128,-1,81
 195 537 195 537 152 537 c 1,82,-1
 150 570 l 1,83,84
 163 570 163 570 179 574 c 0,85,86
 237 587 237 587 237 638 c 0,87,88
 237 680 237 680 199 680 c 128,-1,89
 161 680 161 680 129 642 c 1,90,-1
 101 664 l 1,91,55
 120 693 120 693 155 713.5 c 128,-1,56
EndSplineSet
EndChar

StartChar: questiondown
Encoding: 191 191 129
Width: 424
GlyphClass: 2
Flags: W
LayerCount: 2
Fore
SplineSet
74 -111 m 0,0,1
 74 -73 74 -73 97 -32.5 c 128,-1,2
 120 8 120 8 148 36 c 1,3,4
 221 113 221 113 221 146 c 0,5,6
 221 156 221 156 204.5 165.5 c 128,-1,7
 188 175 188 175 169 176 c 1,8,9
 178 212 178 212 187 225 c 1,10,11
 259 225 259 225 305.5 194.5 c 128,-1,12
 352 164 352 164 352 108 c 0,13,14
 352 74 352 74 311 16.5 c 128,-1,15
 270 -41 270 -41 229 -97 c 128,-1,16
 188 -153 188 -153 188 -188 c 128,-1,17
 188 -223 188 -223 223 -229 c 1,18,19
 249 -161 249 -161 307 -109 c 1,20,21
 331 -116 331 -116 369 -149 c 128,-1,22
 407 -182 407 -182 407 -196 c 0,23,24
 407 -222 407 -222 358 -250.5 c 128,-1,25
 309 -279 309 -279 244 -279 c 128,-1,26
 179 -279 179 -279 126.5 -238 c 128,-1,27
 74 -197 74 -197 74 -111 c 0,0,1
379 371 m 128,-1,29
 379 338 379 338 351.5 313 c 128,-1,30
 324 288 324 288 288 288 c 128,-1,31
 252 288 252 288 232 308 c 128,-1,32
 212 328 212 328 212 360.5 c 128,-1,33
 212 393 212 393 240.5 418 c 128,-1,34
 269 443 269 443 304 443 c 128,-1,35
 339 443 339 443 359 423.5 c 128,-1,28
 379 404 379 404 379 371 c 128,-1,29
EndSplineSet
EndChar

StartChar: Agrave
Encoding: 192 192 130
Width: 765
GlyphClass: 2
Flags: W
LayerCount: 2
Fore
SplineSet
110 -48 m 0,0,1
 50 -48 50 -48 10.5 -8.5 c 128,-1,2
 -29 31 -29 31 -29 83.5 c 128,-1,3
 -29 136 -29 136 -4 181.5 c 128,-1,4
 21 227 21 227 67.5 266 c 128,-1,5
 114 305 114 305 189 330.5 c 128,-1,6
 264 356 264 356 355 359 c 1,7,8
 408 490 408 490 449 652 c 0,9,10
 450 658 450 658 450 667.5 c 128,-1,11
 450 677 450 677 440 684 c 1,12,-1
 440 694 l 1,13,14
 526 710 526 710 597 710 c 1,15,-1
 657 706 l 1,16,17
 683 660 683 660 686 578.5 c 128,-1,18
 689 497 689 497 690 296 c 1,19,20
 798 249 798 249 875 177 c 1,21,22
 871 164 871 164 859.5 151.5 c 128,-1,23
 848 139 848 139 838 133 c 2,24,-1
 828 127 l 1,25,26
 769 185 769 185 691 226 c 1,27,28
 693 169 693 169 702 130 c 0,29,30
 716 66 716 66 735 66 c 0,31,32
 746 66 746 66 761 71 c 1,33,-1
 776 32 l 1,34,35
 707 -12 707 -12 644 -12 c 0,36,37
 540 -12 540 -12 540 145 c 2,38,-1
 540 276 l 1,39,40
 470 293 470 293 413 297 c 1,41,42
 283 -48 283 -48 110 -48 c 0,0,1
142 219 m 128,-1,44
 67 149 67 149 67 88 c 128,-1,45
 67 27 67 27 114 27 c 0,46,47
 210 27 210 27 330 298 c 1,48,43
 217 289 217 289 142 219 c 128,-1,44
416 915 m 0,49,50
 456 915 456 915 675 783 c 1,51,-1
 658 736 l 1,52,53
 563 764 563 764 352 819 c 1,54,55
 378 915 378 915 416 915 c 0,49,50
521 631 m 128,-1,57
 515 631 515 631 513 630 c 1,58,59
 504 554 504 554 435 357 c 1,60,61
 484 354 484 354 540 343 c 1,62,63
 540 589 540 589 529 630 c 1,64,56
 527 631 527 631 521 631 c 128,-1,57
EndSplineSet
EndChar

StartChar: Aacute
Encoding: 193 193 131
Width: 765
GlyphClass: 2
Flags: W
LayerCount: 2
Fore
SplineSet
110 -48 m 0,0,1
 50 -48 50 -48 10.5 -8.5 c 128,-1,2
 -29 31 -29 31 -29 83.5 c 128,-1,3
 -29 136 -29 136 -4 181.5 c 128,-1,4
 21 227 21 227 67.5 266 c 128,-1,5
 114 305 114 305 189 330.5 c 128,-1,6
 264 356 264 356 355 359 c 1,7,8
 408 490 408 490 449 652 c 0,9,10
 450 658 450 658 450 667.5 c 128,-1,11
 450 677 450 677 440 684 c 1,12,-1
 440 694 l 1,13,14
 526 710 526 710 597 710 c 1,15,-1
 657 706 l 1,16,17
 683 660 683 660 686 578.5 c 128,-1,18
 689 497 689 497 690 296 c 1,19,20
 798 249 798 249 875 177 c 1,21,22
 871 164 871 164 859.5 151.5 c 128,-1,23
 848 139 848 139 838 133 c 2,24,-1
 828 127 l 1,25,26
 769 185 769 185 691 226 c 1,27,28
 693 169 693 169 702 130 c 0,29,30
 716 66 716 66 735 66 c 0,31,32
 746 66 746 66 761 71 c 1,33,-1
 776 32 l 1,34,35
 707 -12 707 -12 644 -12 c 0,36,37
 540 -12 540 -12 540 145 c 2,38,-1
 540 276 l 1,39,40
 470 293 470 293 413 297 c 1,41,42
 283 -48 283 -48 110 -48 c 0,0,1
142 219 m 128,-1,44
 67 149 67 149 67 88 c 128,-1,45
 67 27 67 27 114 27 c 0,46,47
 210 27 210 27 330 298 c 1,48,43
 217 289 217 289 142 219 c 128,-1,44
713 846 m 0,49,50
 713 818 713 818 676 802 c 1,51,52
 585 776 585 776 414 750 c 1,53,-1
 393 796 l 1,54,55
 603 891 603 891 676 931 c 1,56,57
 687 915 687 915 700 885.5 c 128,-1,58
 713 856 713 856 713 846 c 0,49,50
521 631 m 128,-1,60
 515 631 515 631 513 630 c 1,61,62
 504 554 504 554 435 357 c 1,63,64
 484 354 484 354 540 343 c 1,65,66
 540 589 540 589 529 630 c 1,67,59
 527 631 527 631 521 631 c 128,-1,60
EndSplineSet
EndChar

StartChar: Acircumflex
Encoding: 194 194 132
Width: 765
GlyphClass: 2
Flags: W
LayerCount: 2
Fore
SplineSet
110 -48 m 0,0,1
 50 -48 50 -48 10.5 -8.5 c 128,-1,2
 -29 31 -29 31 -29 83.5 c 128,-1,3
 -29 136 -29 136 -4 181.5 c 128,-1,4
 21 227 21 227 67.5 266 c 128,-1,5
 114 305 114 305 189 330.5 c 128,-1,6
 264 356 264 356 355 359 c 1,7,8
 408 490 408 490 449 652 c 0,9,10
 450 658 450 658 450 667.5 c 128,-1,11
 450 677 450 677 440 684 c 1,12,-1
 440 694 l 1,13,14
 526 710 526 710 597 710 c 1,15,-1
 657 706 l 1,16,17
 683 660 683 660 686 578.5 c 128,-1,18
 689 497 689 497 690 296 c 1,19,20
 798 249 798 249 875 177 c 1,21,22
 871 164 871 164 859.5 151.5 c 128,-1,23
 848 139 848 139 838 133 c 2,24,-1
 828 127 l 1,25,26
 769 185 769 185 691 226 c 1,27,28
 693 169 693 169 702 130 c 0,29,30
 716 66 716 66 735 66 c 0,31,32
 746 66 746 66 761 71 c 1,33,-1
 776 32 l 1,34,35
 707 -12 707 -12 644 -12 c 0,36,37
 540 -12 540 -12 540 145 c 2,38,-1
 540 276 l 1,39,40
 470 293 470 293 413 297 c 1,41,42
 283 -48 283 -48 110 -48 c 0,0,1
142 219 m 128,-1,44
 67 149 67 149 67 88 c 128,-1,45
 67 27 67 27 114 27 c 0,46,47
 210 27 210 27 330 298 c 1,48,43
 217 289 217 289 142 219 c 128,-1,44
478 869 m 128,-1,50
 568 919 568 919 594.5 919 c 128,-1,51
 621 919 621 919 665 867.5 c 128,-1,52
 709 816 709 816 736 775 c 1,53,-1
 702 743 l 1,54,55
 595 797 595 797 563 804 c 1,56,57
 512 795 512 795 442.5 768.5 c 128,-1,58
 373 742 373 742 364 739 c 1,59,-1
 337 776 l 1,60,49
 388 819 388 819 478 869 c 128,-1,50
521 631 m 128,-1,62
 515 631 515 631 513 630 c 1,63,64
 504 554 504 554 435 357 c 1,65,66
 484 354 484 354 540 343 c 1,67,68
 540 589 540 589 529 630 c 1,69,61
 527 631 527 631 521 631 c 128,-1,62
EndSplineSet
EndChar

StartChar: Atilde
Encoding: 195 195 133
Width: 765
GlyphClass: 2
Flags: W
LayerCount: 2
Fore
SplineSet
110 -48 m 0,0,1
 50 -48 50 -48 10.5 -8.5 c 128,-1,2
 -29 31 -29 31 -29 83.5 c 128,-1,3
 -29 136 -29 136 -4 181.5 c 128,-1,4
 21 227 21 227 67.5 266 c 128,-1,5
 114 305 114 305 189 330.5 c 128,-1,6
 264 356 264 356 355 359 c 1,7,8
 408 490 408 490 449 652 c 0,9,10
 450 658 450 658 450 667.5 c 128,-1,11
 450 677 450 677 440 684 c 1,12,-1
 440 694 l 1,13,14
 526 710 526 710 597 710 c 1,15,-1
 657 706 l 1,16,17
 683 660 683 660 686 578.5 c 128,-1,18
 689 497 689 497 690 296 c 1,19,20
 798 249 798 249 875 177 c 1,21,22
 871 164 871 164 859.5 151.5 c 128,-1,23
 848 139 848 139 838 133 c 2,24,-1
 828 127 l 1,25,26
 769 185 769 185 691 226 c 1,27,28
 693 169 693 169 702 130 c 0,29,30
 716 66 716 66 735 66 c 0,31,32
 746 66 746 66 761 71 c 1,33,-1
 776 32 l 1,34,35
 707 -12 707 -12 644 -12 c 0,36,37
 540 -12 540 -12 540 145 c 2,38,-1
 540 276 l 1,39,40
 470 293 470 293 413 297 c 1,41,42
 283 -48 283 -48 110 -48 c 0,0,1
360 765 m 1,43,44
 374 901 374 901 462 901 c 0,45,46
 496 901 496 901 566.5 883 c 128,-1,47
 637 865 637 865 659.5 865 c 128,-1,48
 682 865 682 865 691 866 c 0,49,50
 711 870 711 870 727 898 c 1,51,-1
 759 892 l 1,52,53
 755 851 755 851 742 819 c 1,54,55
 722 763 722 763 656 763 c 0,56,57
 633 763 633 763 565.5 780.5 c 128,-1,58
 498 798 498 798 466.5 798 c 128,-1,59
 435 798 435 798 421 790.5 c 128,-1,60
 407 783 407 783 393 758 c 1,61,-1
 360 765 l 1,43,44
142 219 m 128,-1,63
 67 149 67 149 67 88 c 128,-1,64
 67 27 67 27 114 27 c 0,65,66
 210 27 210 27 330 298 c 1,67,62
 217 289 217 289 142 219 c 128,-1,63
521 631 m 128,-1,69
 515 631 515 631 513 630 c 1,70,71
 504 554 504 554 435 357 c 1,72,73
 484 354 484 354 540 343 c 1,74,75
 540 589 540 589 529 630 c 1,76,68
 527 631 527 631 521 631 c 128,-1,69
EndSplineSet
EndChar

StartChar: Adieresis
Encoding: 196 196 134
Width: 765
GlyphClass: 2
Flags: W
LayerCount: 2
Fore
SplineSet
110 -48 m 0,0,1
 50 -48 50 -48 10.5 -8.5 c 128,-1,2
 -29 31 -29 31 -29 83.5 c 128,-1,3
 -29 136 -29 136 -4 181.5 c 128,-1,4
 21 227 21 227 67.5 266 c 128,-1,5
 114 305 114 305 189 330.5 c 128,-1,6
 264 356 264 356 355 359 c 1,7,8
 408 490 408 490 449 652 c 0,9,10
 450 658 450 658 450 667.5 c 128,-1,11
 450 677 450 677 440 684 c 1,12,-1
 440 694 l 1,13,14
 526 710 526 710 597 710 c 1,15,-1
 657 706 l 1,16,17
 683 660 683 660 686 578.5 c 128,-1,18
 689 497 689 497 690 296 c 1,19,20
 798 249 798 249 875 177 c 1,21,22
 871 164 871 164 859.5 151.5 c 128,-1,23
 848 139 848 139 838 133 c 2,24,-1
 828 127 l 1,25,26
 769 185 769 185 691 226 c 1,27,28
 693 169 693 169 702 130 c 0,29,30
 716 66 716 66 735 66 c 0,31,32
 746 66 746 66 761 71 c 1,33,-1
 776 32 l 1,34,35
 707 -12 707 -12 644 -12 c 0,36,37
 540 -12 540 -12 540 145 c 2,38,-1
 540 276 l 1,39,40
 470 293 470 293 413 297 c 1,41,42
 283 -48 283 -48 110 -48 c 0,0,1
142 219 m 128,-1,44
 67 149 67 149 67 88 c 128,-1,45
 67 27 67 27 114 27 c 0,46,47
 210 27 210 27 330 298 c 1,48,43
 217 289 217 289 142 219 c 128,-1,44
521 631 m 128,-1,50
 515 631 515 631 513 630 c 1,51,52
 504 554 504 554 435 357 c 1,53,54
 484 354 484 354 540 343 c 1,55,56
 540 589 540 589 529 630 c 1,57,49
 527 631 527 631 521 631 c 128,-1,50
596 782 m 128,-1,59
 580 799 580 799 580 828.5 c 128,-1,60
 580 858 580 858 602.5 878.5 c 128,-1,61
 625 899 625 899 656 899 c 0,62,63
 722 899 722 899 722 836 c 0,64,65
 722 808 722 808 698 786.5 c 128,-1,66
 674 765 674 765 643 765 c 128,-1,58
 612 765 612 765 596 782 c 128,-1,59
390.5 782 m 128,-1,68
 374 799 374 799 374 828.5 c 128,-1,69
 374 858 374 858 397 878.5 c 128,-1,70
 420 899 420 899 451 899 c 0,71,72
 516 899 516 899 516 836 c 0,73,74
 516 808 516 808 492.5 786.5 c 128,-1,75
 469 765 469 765 438 765 c 128,-1,67
 407 765 407 765 390.5 782 c 128,-1,68
EndSplineSet
EndChar

StartChar: Aring
Encoding: 197 197 135
Width: 765
GlyphClass: 2
Flags: W
LayerCount: 2
Fore
SplineSet
110 -48 m 0,0,1
 50 -48 50 -48 10.5 -8.5 c 128,-1,2
 -29 31 -29 31 -29 83.5 c 128,-1,3
 -29 136 -29 136 -4 181.5 c 128,-1,4
 21 227 21 227 67.5 266 c 128,-1,5
 114 305 114 305 189 330.5 c 128,-1,6
 264 356 264 356 355 359 c 1,7,8
 408 490 408 490 449 652 c 0,9,10
 450 658 450 658 450 667.5 c 128,-1,11
 450 677 450 677 440 684 c 1,12,-1
 440 694 l 1,13,14
 526 710 526 710 597 710 c 1,15,-1
 657 706 l 1,16,17
 683 660 683 660 686 578.5 c 128,-1,18
 689 497 689 497 690 296 c 1,19,20
 798 249 798 249 875 177 c 1,21,22
 871 164 871 164 859.5 151.5 c 128,-1,23
 848 139 848 139 838 133 c 2,24,-1
 828 127 l 1,25,26
 769 185 769 185 691 226 c 1,27,28
 693 169 693 169 702 130 c 0,29,30
 716 66 716 66 735 66 c 0,31,32
 746 66 746 66 761 71 c 1,33,-1
 776 32 l 1,34,35
 707 -12 707 -12 644 -12 c 0,36,37
 540 -12 540 -12 540 145 c 2,38,-1
 540 276 l 1,39,40
 470 293 470 293 413 297 c 1,41,42
 283 -48 283 -48 110 -48 c 0,0,1
142 219 m 128,-1,44
 67 149 67 149 67 88 c 128,-1,45
 67 27 67 27 114 27 c 0,46,47
 210 27 210 27 330 298 c 1,48,43
 217 289 217 289 142 219 c 128,-1,44
486.5 769.5 m 128,-1,50
 458 798 458 798 458 840.5 c 128,-1,51
 458 883 458 883 486.5 910.5 c 128,-1,52
 515 938 515 938 566 938 c 128,-1,53
 617 938 617 938 645.5 910.5 c 128,-1,54
 674 883 674 883 674 840.5 c 128,-1,55
 674 798 674 798 645.5 769.5 c 128,-1,56
 617 741 617 741 566 741 c 128,-1,49
 515 741 515 741 486.5 769.5 c 128,-1,50
521 631 m 128,-1,58
 515 631 515 631 513 630 c 1,59,60
 504 554 504 554 435 357 c 1,61,62
 484 354 484 354 540 343 c 1,63,64
 540 589 540 589 529 630 c 1,65,57
 527 631 527 631 521 631 c 128,-1,58
512 840 m 128,-1,67
 512 819 512 819 526.5 805.5 c 128,-1,68
 541 792 541 792 566 792 c 128,-1,69
 591 792 591 792 604 805.5 c 128,-1,70
 617 819 617 819 617 840 c 128,-1,71
 617 861 617 861 604 874.5 c 128,-1,72
 591 888 591 888 566 888 c 128,-1,73
 541 888 541 888 526.5 874.5 c 128,-1,66
 512 861 512 861 512 840 c 128,-1,67
EndSplineSet
EndChar

StartChar: AE
Encoding: 198 198 136
Width: 968
GlyphClass: 2
Flags: W
LayerCount: 2
Fore
SplineSet
666 339 m 1,0,-1
 667 255 l 2,1,2
 668 147 668 147 685.5 97.5 c 128,-1,3
 703 48 703 48 756 48 c 0,4,5
 796 48 796 48 843.5 74 c 128,-1,6
 891 100 891 100 929 133 c 1,7,-1
 968 98 l 1,8,9
 915 34 915 34 835.5 -7 c 128,-1,10
 756 -48 756 -48 677 -48 c 0,11,12
 596 -48 596 -48 556 3 c 0,13,14
 522 47 522 47 514 146 c 0,15,16
 510 188 510 188 510 247 c 2,17,-1
 510 333 l 1,18,19
 429 326 429 326 391 316 c 1,20,21
 256 -48 256 -48 84 -48 c 0,22,23
 33 -48 33 -48 2 -17.5 c 128,-1,24
 -29 13 -29 13 -29 68.5 c 128,-1,25
 -29 124 -29 124 7.5 178.5 c 128,-1,26
 44 233 44 233 100 272 c 0,27,28
 218 355 218 355 333 378 c 1,29,30
 380 497 380 497 419 652 c 0,31,32
 420 658 420 658 420 667.5 c 128,-1,33
 420 677 420 677 410 684 c 1,34,-1
 410 694 l 1,35,36
 488 709 488 709 601 709 c 1,37,-1
 810 706 l 2,38,39
 873 706 873 706 922 710 c 1,40,41
 925 686 925 686 925 664 c 0,42,43
 925 616 925 616 870 616 c 0,44,45
 850 616 850 616 786 624.5 c 128,-1,46
 722 633 722 633 700.5 633 c 128,-1,47
 679 633 679 633 663 631 c 1,48,49
 663 609 663 609 665 403 c 1,50,51
 802 401 802 401 913 380 c 1,52,53
 917 364 917 364 910 344 c 128,-1,54
 903 324 903 324 894 310 c 1,55,56
 811 337 811 337 666 339 c 1,0,-1
95 27 m 1,57,58
 136 27 136 27 196.5 106 c 128,-1,59
 257 185 257 185 305 301 c 1,60,61
 207 269 207 269 136.5 199 c 128,-1,62
 66 129 66 129 65 62 c 0,63,64
 65 29 65 29 95 27 c 1,57,58
507 630 m 1,65,-1
 495 631 l 1,66,-1
 483 630 l 1,67,68
 475 564 475 564 416 387 c 1,69,70
 448 392 448 392 512 398 c 1,71,-1
 513 517 l 2,72,73
 513 590 513 590 507 630 c 1,65,-1
EndSplineSet
EndChar

StartChar: Ccedilla
Encoding: 199 199 137
Width: 545
GlyphClass: 2
Flags: W
LayerCount: 2
Fore
SplineSet
256 -94 m 0,0,1
 256 -118 256 -118 280 -118 c 128,-1,2
 304 -118 304 -118 337 -102 c 1,3,-1
 348 -96 l 1,4,-1
 366 -130 l 1,5,6
 359 -137 359 -137 347 -147.5 c 128,-1,7
 335 -158 335 -158 299 -176 c 128,-1,8
 263 -194 263 -194 232 -194 c 128,-1,9
 201 -194 201 -194 182 -175.5 c 128,-1,10
 163 -157 163 -157 163 -128.5 c 128,-1,11
 163 -100 163 -100 186.5 -66 c 128,-1,12
 210 -32 210 -32 239 -10 c 1,13,14
 152 2 152 2 100.5 75 c 128,-1,15
 49 148 49 148 49 265.5 c 128,-1,16
 49 383 49 383 91.5 483.5 c 128,-1,17
 134 584 134 584 213 647 c 128,-1,18
 292 710 292 710 388 710 c 0,19,20
 424 710 424 710 452 699 c 1,21,22
 524 747 524 747 601 747 c 0,23,24
 637 747 637 747 668.5 736.5 c 128,-1,25
 700 726 700 726 715 711 c 1,26,27
 707 677 707 677 689 649 c 1,28,29
 642 684 642 684 594 684 c 128,-1,30
 546 684 546 684 506 665 c 1,31,32
 553 615 553 615 553 523.5 c 128,-1,33
 553 432 553 432 505 357 c 128,-1,34
 457 282 457 282 385 282 c 0,35,36
 342 282 342 282 315.5 318 c 128,-1,37
 289 354 289 354 289 408 c 0,38,39
 289 538 289 538 386 643 c 1,40,41
 307 640 307 640 258 539.5 c 128,-1,42
 209 439 209 439 209 297 c 0,43,44
 209 90 209 90 329 90 c 0,45,46
 411 90 411 90 504 192 c 1,47,-1
 539 163 l 1,48,49
 535 157 535 157 528.5 146.5 c 128,-1,50
 522 136 522 136 499.5 109 c 128,-1,51
 477 82 477 82 452 60.5 c 128,-1,52
 427 39 427 39 387.5 18 c 128,-1,53
 348 -3 348 -3 307 -9 c 1,54,55
 256 -53 256 -53 256 -94 c 0,0,1
484 513 m 0,56,57
 484 595 484 595 447 625 c 1,58,59
 403 586 403 586 376.5 530 c 128,-1,60
 350 474 350 474 350 414 c 0,61,62
 350 383 350 383 361.5 363 c 128,-1,63
 373 343 373 343 391 343 c 0,64,65
 430 343 430 343 457 398 c 128,-1,66
 484 453 484 453 484 513 c 0,56,57
EndSplineSet
EndChar

StartChar: Egrave
Encoding: 200 200 138
Width: 551
GlyphClass: 2
Flags: W
LayerCount: 2
Fore
SplineSet
578 691 m 0,0,1
 538 691 538 691 501 674 c 1,2,3
 543 640 543 640 543 589 c 128,-1,4
 543 538 543 538 516 499 c 128,-1,5
 489 460 489 460 448.5 460 c 128,-1,6
 408 460 408 460 383.5 485.5 c 128,-1,7
 359 511 359 511 359 556 c 128,-1,8
 359 601 359 601 389 644 c 1,9,10
 342 641 342 641 309 604.5 c 128,-1,11
 276 568 276 568 276 508 c 128,-1,12
 276 448 276 448 300 402 c 1,13,14
 334 409 334 409 369 409 c 0,15,16
 482 409 482 409 482 341 c 0,17,18
 482 312 482 312 459.5 289.5 c 128,-1,19
 437 267 437 267 384.5 267 c 128,-1,20
 332 267 332 267 270 304 c 1,21,22
 212 249 212 249 212 182 c 0,23,24
 212 138 212 138 240 109 c 128,-1,25
 268 80 268 80 316 80 c 128,-1,26
 364 80 364 80 416 112 c 128,-1,27
 468 144 468 144 508 189 c 1,28,-1
 544 157 l 1,29,30
 518 119 518 119 472 76 c 0,31,32
 379 -12 379 -12 266 -12 c 0,33,34
 189 -12 189 -12 124 28 c 1,35,36
 92 49 92 49 72 86 c 128,-1,37
 52 123 52 123 52 171 c 0,38,39
 52 303 52 303 194 370 c 1,40,41
 144 433 144 433 144 510 c 0,42,43
 144 605 144 605 214 657.5 c 128,-1,44
 284 710 284 710 378 710 c 0,45,46
 416 710 416 710 447 701 c 1,47,48
 514 747 514 747 594 747 c 0,49,50
 631 747 631 747 662.5 737 c 128,-1,51
 694 727 694 727 708 713 c 1,52,53
 706 680 706 680 686 658 c 1,54,-1
 679 651 l 1,55,56
 644 691 644 691 578 691 c 0,0,1
234 915 m 0,57,58
 274 915 274 915 493 783 c 1,59,-1
 476 736 l 1,60,61
 381 764 381 764 170 819 c 1,62,63
 196 915 196 915 234 915 c 0,57,58
484 572 m 0,64,65
 484 615 484 615 446 635 c 1,66,67
 416 603 416 603 416 559 c 128,-1,68
 416 515 416 515 447 515 c 0,69,70
 463 515 463 515 473.5 531.5 c 128,-1,71
 484 548 484 548 484 572 c 0,64,65
416.5 354.5 m 128,-1,73
 405 361 405 361 383.5 361 c 128,-1,74
 362 361 362 361 335 349 c 1,75,76
 363 320 363 320 395.5 320 c 128,-1,77
 428 320 428 320 428 338 c 0,78,72
 428 348 428 348 416.5 354.5 c 128,-1,73
EndSplineSet
EndChar

StartChar: Eacute
Encoding: 201 201 139
Width: 551
GlyphClass: 2
Flags: W
LayerCount: 2
Fore
SplineSet
578 691 m 0,0,1
 538 691 538 691 501 674 c 1,2,3
 543 640 543 640 543 589 c 128,-1,4
 543 538 543 538 516 499 c 128,-1,5
 489 460 489 460 448.5 460 c 128,-1,6
 408 460 408 460 383.5 485.5 c 128,-1,7
 359 511 359 511 359 556 c 128,-1,8
 359 601 359 601 389 644 c 1,9,10
 342 641 342 641 309 604.5 c 128,-1,11
 276 568 276 568 276 508 c 128,-1,12
 276 448 276 448 300 402 c 1,13,14
 334 409 334 409 369 409 c 0,15,16
 482 409 482 409 482 341 c 0,17,18
 482 312 482 312 459.5 289.5 c 128,-1,19
 437 267 437 267 384.5 267 c 128,-1,20
 332 267 332 267 270 304 c 1,21,22
 212 249 212 249 212 182 c 0,23,24
 212 138 212 138 240 109 c 128,-1,25
 268 80 268 80 316 80 c 128,-1,26
 364 80 364 80 416 112 c 128,-1,27
 468 144 468 144 508 189 c 1,28,-1
 544 157 l 1,29,30
 518 119 518 119 472 76 c 0,31,32
 379 -12 379 -12 266 -12 c 0,33,34
 189 -12 189 -12 124 28 c 1,35,36
 92 49 92 49 72 86 c 128,-1,37
 52 123 52 123 52 171 c 0,38,39
 52 303 52 303 194 370 c 1,40,41
 144 433 144 433 144 510 c 0,42,43
 144 605 144 605 214 657.5 c 128,-1,44
 284 710 284 710 378 710 c 0,45,46
 416 710 416 710 447 701 c 1,47,48
 514 747 514 747 594 747 c 0,49,50
 631 747 631 747 662.5 737 c 128,-1,51
 694 727 694 727 708 713 c 1,52,53
 706 680 706 680 686 658 c 1,54,-1
 679 651 l 1,55,56
 644 691 644 691 578 691 c 0,0,1
546 846 m 0,57,58
 546 818 546 818 509 802 c 1,59,60
 418 776 418 776 247 750 c 1,61,-1
 226 796 l 1,62,63
 436 891 436 891 509 931 c 1,64,65
 520 915 520 915 533 885.5 c 128,-1,66
 546 856 546 856 546 846 c 0,57,58
484 572 m 0,67,68
 484 615 484 615 446 635 c 1,69,70
 416 603 416 603 416 559 c 128,-1,71
 416 515 416 515 447 515 c 0,72,73
 463 515 463 515 473.5 531.5 c 128,-1,74
 484 548 484 548 484 572 c 0,67,68
416.5 354.5 m 128,-1,76
 405 361 405 361 383.5 361 c 128,-1,77
 362 361 362 361 335 349 c 1,78,79
 363 320 363 320 395.5 320 c 128,-1,80
 428 320 428 320 428 338 c 0,81,75
 428 348 428 348 416.5 354.5 c 128,-1,76
EndSplineSet
EndChar

StartChar: Ecircumflex
Encoding: 202 202 140
Width: 551
GlyphClass: 2
Flags: W
LayerCount: 2
Fore
SplineSet
578 691 m 0,0,1
 538 691 538 691 501 674 c 1,2,3
 543 640 543 640 543 589 c 128,-1,4
 543 538 543 538 516 499 c 128,-1,5
 489 460 489 460 448.5 460 c 128,-1,6
 408 460 408 460 383.5 485.5 c 128,-1,7
 359 511 359 511 359 556 c 128,-1,8
 359 601 359 601 389 644 c 1,9,10
 342 641 342 641 309 604.5 c 128,-1,11
 276 568 276 568 276 508 c 128,-1,12
 276 448 276 448 300 402 c 1,13,14
 334 409 334 409 369 409 c 0,15,16
 482 409 482 409 482 341 c 0,17,18
 482 312 482 312 459.5 289.5 c 128,-1,19
 437 267 437 267 384.5 267 c 128,-1,20
 332 267 332 267 270 304 c 1,21,22
 212 249 212 249 212 182 c 0,23,24
 212 138 212 138 240 109 c 128,-1,25
 268 80 268 80 316 80 c 128,-1,26
 364 80 364 80 416 112 c 128,-1,27
 468 144 468 144 508 189 c 1,28,-1
 544 157 l 1,29,30
 518 119 518 119 472 76 c 0,31,32
 379 -12 379 -12 266 -12 c 0,33,34
 189 -12 189 -12 124 28 c 1,35,36
 92 49 92 49 72 86 c 128,-1,37
 52 123 52 123 52 171 c 0,38,39
 52 303 52 303 194 370 c 1,40,41
 144 433 144 433 144 510 c 0,42,43
 144 605 144 605 214 657.5 c 128,-1,44
 284 710 284 710 378 710 c 0,45,46
 416 710 416 710 447 701 c 1,47,48
 514 747 514 747 594 747 c 0,49,50
 631 747 631 747 662.5 737 c 128,-1,51
 694 727 694 727 708 713 c 1,52,53
 706 680 706 680 686 658 c 1,54,-1
 679 651 l 1,55,56
 644 691 644 691 578 691 c 0,0,1
300 870.5 m 128,-1,58
 389 919 389 919 415.5 919 c 128,-1,59
 442 919 442 919 489 870 c 128,-1,60
 536 821 536 821 558 786 c 1,61,-1
 531 760 l 1,62,63
 449 801 449 801 393 814 c 1,64,65
 347 806 347 806 187 743 c 1,66,-1
 160 780 l 1,67,57
 211 822 211 822 300 870.5 c 128,-1,58
484 572 m 0,68,69
 484 615 484 615 446 635 c 1,70,71
 416 603 416 603 416 559 c 128,-1,72
 416 515 416 515 447 515 c 0,73,74
 463 515 463 515 473.5 531.5 c 128,-1,75
 484 548 484 548 484 572 c 0,68,69
416.5 354.5 m 128,-1,77
 405 361 405 361 383.5 361 c 128,-1,78
 362 361 362 361 335 349 c 1,79,80
 363 320 363 320 395.5 320 c 128,-1,81
 428 320 428 320 428 338 c 0,82,76
 428 348 428 348 416.5 354.5 c 128,-1,77
EndSplineSet
EndChar

StartChar: Edieresis
Encoding: 203 203 141
Width: 551
GlyphClass: 2
Flags: W
LayerCount: 2
Fore
SplineSet
578 691 m 0,0,1
 538 691 538 691 501 674 c 1,2,3
 543 640 543 640 543 589 c 128,-1,4
 543 538 543 538 516 499 c 128,-1,5
 489 460 489 460 448.5 460 c 128,-1,6
 408 460 408 460 383.5 485.5 c 128,-1,7
 359 511 359 511 359 556 c 128,-1,8
 359 601 359 601 389 644 c 1,9,10
 342 641 342 641 309 604.5 c 128,-1,11
 276 568 276 568 276 508 c 128,-1,12
 276 448 276 448 300 402 c 1,13,14
 334 409 334 409 369 409 c 0,15,16
 482 409 482 409 482 341 c 0,17,18
 482 312 482 312 459.5 289.5 c 128,-1,19
 437 267 437 267 384.5 267 c 128,-1,20
 332 267 332 267 270 304 c 1,21,22
 212 249 212 249 212 182 c 0,23,24
 212 138 212 138 240 109 c 128,-1,25
 268 80 268 80 316 80 c 128,-1,26
 364 80 364 80 416 112 c 128,-1,27
 468 144 468 144 508 189 c 1,28,-1
 544 157 l 1,29,30
 518 119 518 119 472 76 c 0,31,32
 379 -12 379 -12 266 -12 c 0,33,34
 189 -12 189 -12 124 28 c 1,35,36
 92 49 92 49 72 86 c 128,-1,37
 52 123 52 123 52 171 c 0,38,39
 52 303 52 303 194 370 c 1,40,41
 144 433 144 433 144 510 c 0,42,43
 144 605 144 605 214 657.5 c 128,-1,44
 284 710 284 710 378 710 c 0,45,46
 416 710 416 710 447 701 c 1,47,48
 514 747 514 747 594 747 c 0,49,50
 631 747 631 747 662.5 737 c 128,-1,51
 694 727 694 727 708 713 c 1,52,53
 706 680 706 680 686 658 c 1,54,-1
 679 651 l 1,55,56
 644 691 644 691 578 691 c 0,0,1
421 782 m 128,-1,58
 405 799 405 799 405 828.5 c 128,-1,59
 405 858 405 858 427.5 878.5 c 128,-1,60
 450 899 450 899 481 899 c 0,61,62
 547 899 547 899 547 836 c 0,63,64
 547 808 547 808 523 786.5 c 128,-1,65
 499 765 499 765 468 765 c 128,-1,57
 437 765 437 765 421 782 c 128,-1,58
215.5 782 m 128,-1,67
 199 799 199 799 199 828.5 c 128,-1,68
 199 858 199 858 222 878.5 c 128,-1,69
 245 899 245 899 276 899 c 0,70,71
 341 899 341 899 341 836 c 0,72,73
 341 808 341 808 317.5 786.5 c 128,-1,74
 294 765 294 765 263 765 c 128,-1,66
 232 765 232 765 215.5 782 c 128,-1,67
484 572 m 0,75,76
 484 615 484 615 446 635 c 1,77,78
 416 603 416 603 416 559 c 128,-1,79
 416 515 416 515 447 515 c 0,80,81
 463 515 463 515 473.5 531.5 c 128,-1,82
 484 548 484 548 484 572 c 0,75,76
416.5 354.5 m 128,-1,84
 405 361 405 361 383.5 361 c 128,-1,85
 362 361 362 361 335 349 c 1,86,87
 363 320 363 320 395.5 320 c 128,-1,88
 428 320 428 320 428 338 c 0,89,83
 428 348 428 348 416.5 354.5 c 128,-1,84
EndSplineSet
EndChar

StartChar: Igrave
Encoding: 204 204 142
Width: 398
GlyphClass: 2
Flags: W
LayerCount: 2
Fore
SplineSet
273 698 m 0,0,1
 409 698 409 698 409 501 c 0,2,3
 409 368 409 368 365 228 c 0,4,5
 342 155 342 155 310.5 95.5 c 128,-1,6
 279 36 279 36 231.5 -1.5 c 128,-1,7
 184 -39 184 -39 128.5 -39 c 128,-1,8
 73 -39 73 -39 40 -3.5 c 128,-1,9
 7 32 7 32 7 88 c 0,10,11
 7 168 7 168 72.5 236 c 128,-1,12
 138 304 138 304 239 350 c 1,13,14
 253 427 253 427 253 494.5 c 128,-1,15
 253 562 253 562 240 587 c 128,-1,16
 227 612 227 612 202.5 612 c 128,-1,17
 178 612 178 612 144 599 c 128,-1,18
 110 586 110 586 79 564 c 1,19,-1
 52 604 l 1,20,21
 94 641 94 641 155.5 669.5 c 128,-1,22
 217 698 217 698 273 698 c 0,0,1
125 199.5 m 128,-1,24
 82 153 82 153 82 105.5 c 128,-1,25
 82 58 82 58 119 58 c 1,26,27
 151 59 151 59 180.5 110.5 c 128,-1,28
 210 162 210 162 229 272 c 1,29,23
 168 246 168 246 125 199.5 c 128,-1,24
173 915 m 0,30,31
 213 915 213 915 432 783 c 1,32,-1
 415 736 l 1,33,34
 320 764 320 764 109 819 c 1,35,36
 135 915 135 915 173 915 c 0,30,31
EndSplineSet
EndChar

StartChar: Iacute
Encoding: 205 205 143
Width: 398
GlyphClass: 2
Flags: W
LayerCount: 2
Fore
SplineSet
273 698 m 0,0,1
 409 698 409 698 409 501 c 0,2,3
 409 368 409 368 365 228 c 0,4,5
 342 155 342 155 310.5 95.5 c 128,-1,6
 279 36 279 36 231.5 -1.5 c 128,-1,7
 184 -39 184 -39 128.5 -39 c 128,-1,8
 73 -39 73 -39 40 -3.5 c 128,-1,9
 7 32 7 32 7 88 c 0,10,11
 7 168 7 168 72.5 236 c 128,-1,12
 138 304 138 304 239 350 c 1,13,14
 253 427 253 427 253 494.5 c 128,-1,15
 253 562 253 562 240 587 c 128,-1,16
 227 612 227 612 202.5 612 c 128,-1,17
 178 612 178 612 144 599 c 128,-1,18
 110 586 110 586 79 564 c 1,19,-1
 52 604 l 1,20,21
 94 641 94 641 155.5 669.5 c 128,-1,22
 217 698 217 698 273 698 c 0,0,1
125 199.5 m 128,-1,24
 82 153 82 153 82 105.5 c 128,-1,25
 82 58 82 58 119 58 c 1,26,27
 151 59 151 59 180.5 110.5 c 128,-1,28
 210 162 210 162 229 272 c 1,29,23
 168 246 168 246 125 199.5 c 128,-1,24
426 846 m 0,30,31
 426 818 426 818 389 802 c 1,32,33
 298 776 298 776 127 750 c 1,34,-1
 106 796 l 1,35,36
 316 891 316 891 389 931 c 1,37,38
 400 915 400 915 413 885.5 c 128,-1,39
 426 856 426 856 426 846 c 0,30,31
EndSplineSet
EndChar

StartChar: Icircumflex
Encoding: 206 206 144
Width: 398
GlyphClass: 2
Flags: W
LayerCount: 2
Fore
SplineSet
273 698 m 0,0,1
 409 698 409 698 409 501 c 0,2,3
 409 368 409 368 365 228 c 0,4,5
 342 155 342 155 310.5 95.5 c 128,-1,6
 279 36 279 36 231.5 -1.5 c 128,-1,7
 184 -39 184 -39 128.5 -39 c 128,-1,8
 73 -39 73 -39 40 -3.5 c 128,-1,9
 7 32 7 32 7 88 c 0,10,11
 7 168 7 168 72.5 236 c 128,-1,12
 138 304 138 304 239 350 c 1,13,14
 253 427 253 427 253 494.5 c 128,-1,15
 253 562 253 562 240 587 c 128,-1,16
 227 612 227 612 202.5 612 c 128,-1,17
 178 612 178 612 144 599 c 128,-1,18
 110 586 110 586 79 564 c 1,19,-1
 52 604 l 1,20,21
 94 641 94 641 155.5 669.5 c 128,-1,22
 217 698 217 698 273 698 c 0,0,1
125 199.5 m 128,-1,24
 82 153 82 153 82 105.5 c 128,-1,25
 82 58 82 58 119 58 c 1,26,27
 151 59 151 59 180.5 110.5 c 128,-1,28
 210 162 210 162 229 272 c 1,29,23
 168 246 168 246 125 199.5 c 128,-1,24
218 869 m 128,-1,31
 308 919 308 919 334.5 919 c 128,-1,32
 361 919 361 919 405 867.5 c 128,-1,33
 449 816 449 816 476 775 c 1,34,-1
 442 743 l 1,35,36
 335 797 335 797 303 804 c 1,37,38
 252 795 252 795 182.5 768.5 c 128,-1,39
 113 742 113 742 104 739 c 1,40,-1
 77 776 l 1,41,30
 128 819 128 819 218 869 c 128,-1,31
EndSplineSet
EndChar

StartChar: Idieresis
Encoding: 207 207 145
Width: 398
GlyphClass: 2
Flags: W
LayerCount: 2
Fore
SplineSet
273 698 m 0,0,1
 409 698 409 698 409 501 c 0,2,3
 409 368 409 368 365 228 c 0,4,5
 342 155 342 155 310.5 95.5 c 128,-1,6
 279 36 279 36 231.5 -1.5 c 128,-1,7
 184 -39 184 -39 128.5 -39 c 128,-1,8
 73 -39 73 -39 40 -3.5 c 128,-1,9
 7 32 7 32 7 88 c 0,10,11
 7 168 7 168 72.5 236 c 128,-1,12
 138 304 138 304 239 350 c 1,13,14
 253 427 253 427 253 494.5 c 128,-1,15
 253 562 253 562 240 587 c 128,-1,16
 227 612 227 612 202.5 612 c 128,-1,17
 178 612 178 612 144 599 c 128,-1,18
 110 586 110 586 79 564 c 1,19,-1
 52 604 l 1,20,21
 94 641 94 641 155.5 669.5 c 128,-1,22
 217 698 217 698 273 698 c 0,0,1
125 199.5 m 128,-1,24
 82 153 82 153 82 105.5 c 128,-1,25
 82 58 82 58 119 58 c 1,26,27
 151 59 151 59 180.5 110.5 c 128,-1,28
 210 162 210 162 229 272 c 1,29,23
 168 246 168 246 125 199.5 c 128,-1,24
120.5 782 m 128,-1,31
 104 799 104 799 104 828.5 c 128,-1,32
 104 858 104 858 127 878.5 c 128,-1,33
 150 899 150 899 181 899 c 0,34,35
 246 899 246 899 246 836 c 0,36,37
 246 808 246 808 222.5 786.5 c 128,-1,38
 199 765 199 765 168 765 c 128,-1,30
 137 765 137 765 120.5 782 c 128,-1,31
326 782 m 128,-1,40
 310 799 310 799 310 828.5 c 128,-1,41
 310 858 310 858 332.5 878.5 c 128,-1,42
 355 899 355 899 386 899 c 0,43,44
 452 899 452 899 452 836 c 0,45,46
 452 808 452 808 428 786.5 c 128,-1,47
 404 765 404 765 373 765 c 128,-1,39
 342 765 342 765 326 782 c 128,-1,40
EndSplineSet
EndChar

StartChar: Eth
Encoding: 208 208 146
Width: 785
GlyphClass: 2
Flags: W
LayerCount: 2
Fore
SplineSet
298 689 m 128,-1,1
 371 707 371 707 444.5 707 c 128,-1,2
 518 707 518 707 575 691.5 c 128,-1,3
 632 676 632 676 680 643 c 128,-1,4
 728 610 728 610 755 552 c 128,-1,5
 782 494 782 494 782 416.5 c 128,-1,6
 782 339 782 339 757 263 c 128,-1,7
 732 187 732 187 689.5 125.5 c 128,-1,8
 647 64 647 64 583.5 25.5 c 128,-1,9
 520 -13 520 -13 441 -13 c 128,-1,10
 362 -13 362 -13 269 49 c 1,11,12
 202 -12 202 -12 132 -12 c 0,13,14
 85 -12 85 -12 54.5 13.5 c 128,-1,15
 24 39 24 39 24 82 c 128,-1,16
 24 125 24 125 57 152 c 128,-1,17
 90 179 90 179 135.5 179 c 128,-1,18
 181 179 181 179 232 157 c 1,19,20
 245 188 245 188 252 211 c 2,21,-1
 261 241 l 1,22,23
 166 261 166 261 101.5 307.5 c 128,-1,24
 37 354 37 354 37 425.5 c 128,-1,25
 37 497 37 497 72.5 551 c 128,-1,26
 108 605 108 605 166.5 638 c 128,-1,0
 225 671 225 671 298 689 c 128,-1,1
443 72 m 128,-1,28
 488 72 488 72 525.5 113.5 c 128,-1,29
 563 155 563 155 584 216 c 0,30,31
 629 342 629 342 629 445 c 128,-1,32
 629 548 629 548 573.5 597.5 c 128,-1,33
 518 647 518 647 420 647 c 0,34,35
 298 647 298 647 200 582.5 c 128,-1,36
 102 518 102 518 102 441 c 0,37,38
 102 390 102 390 150.5 357 c 128,-1,39
 199 324 199 324 277 309 c 1,40,41
 305 431 305 431 305 491 c 0,42,43
 305 525 305 525 283 544 c 1,44,-1
 283 554 l 1,45,46
 341 584 341 584 419 584 c 1,47,-1
 461 580 l 1,48,49
 466 568 466 568 466 535 c 0,50,51
 466 424 466 424 421 297 c 1,52,53
 497 299 497 299 533 313 c 1,54,55
 535 301 535 301 535 281 c 128,-1,56
 535 261 535 261 523 237 c 1,57,58
 475 226 475 226 393 226 c 1,59,60
 361 158 361 158 324 109 c 1,61,27
 398 72 398 72 443 72 c 128,-1,28
129 64 m 0,62,63
 168 64 168 64 196 97 c 1,64,65
 159 119 159 119 137 119 c 0,66,67
 90 119 90 119 90 92 c 0,68,69
 90 80 90 80 100 72 c 128,-1,70
 110 64 110 64 129 64 c 0,62,63
EndSplineSet
EndChar

StartChar: Ntilde
Encoding: 209 209 147
Width: 762
GlyphClass: 2
Flags: W
LayerCount: 2
Fore
SplineSet
411 516 m 1,0,-1
 412 497 l 1,1,2
 412 419 412 419 393 328 c 128,-1,3
 374 237 374 237 340 154 c 128,-1,4
 306 71 306 71 251.5 16 c 128,-1,5
 197 -39 197 -39 139.5 -39 c 128,-1,6
 82 -39 82 -39 49.5 -5 c 128,-1,7
 17 29 17 29 17 89 c 0,8,9
 17 184 17 184 94 295.5 c 128,-1,10
 171 407 171 407 256 480 c 1,11,12
 256 576 256 576 234 597 c 0,13,14
 223 607 223 607 202.5 607 c 128,-1,15
 182 607 182 607 142.5 589 c 128,-1,16
 103 571 103 571 67 540 c 1,17,-1
 42 575 l 1,18,19
 78 619 78 619 147.5 658.5 c 128,-1,20
 217 698 217 698 280 698 c 0,21,22
 380 698 380 698 404 582 c 1,23,24
 550 710 550 710 639 710 c 0,25,26
 683 710 683 710 713.5 675 c 128,-1,27
 744 640 744 640 744 580.5 c 128,-1,28
 744 521 744 521 695 341 c 128,-1,29
 646 161 646 161 646 113.5 c 128,-1,30
 646 66 646 66 676 66 c 0,31,32
 686 66 686 66 701 71 c 1,33,-1
 716 33 l 1,34,35
 651 -12 651 -12 594 -12 c 128,-1,36
 537 -12 537 -12 513.5 15 c 128,-1,37
 490 42 490 42 490 86 c 128,-1,38
 490 130 490 130 537 312.5 c 128,-1,39
 584 495 584 495 584 539 c 0,40,41
 584 594 584 594 544 594 c 0,42,43
 496 594 496 594 411 516 c 1,0,-1
319 765 m 1,44,45
 333 901 333 901 421 901 c 0,46,47
 455 901 455 901 525.5 883 c 128,-1,48
 596 865 596 865 618.5 865 c 128,-1,49
 641 865 641 865 650 866 c 0,50,51
 670 870 670 870 686 898 c 1,52,-1
 718 892 l 1,53,54
 714 851 714 851 701 819 c 1,55,56
 681 763 681 763 615 763 c 0,57,58
 592 763 592 763 524.5 780.5 c 128,-1,59
 457 798 457 798 425.5 798 c 128,-1,60
 394 798 394 798 380 790.5 c 128,-1,61
 366 783 366 783 352 758 c 1,62,-1
 319 765 l 1,44,45
120 56 m 0,63,64
 160 56 160 56 199.5 152 c 128,-1,65
 239 248 239 248 253 398 c 1,66,67
 198 347 198 347 142.5 255 c 128,-1,68
 87 163 87 163 87 104 c 0,69,70
 87 80 87 80 96.5 68 c 128,-1,71
 106 56 106 56 120 56 c 0,63,64
EndSplineSet
EndChar

StartChar: Ograve
Encoding: 210 210 148
Width: 632
GlyphClass: 2
Flags: W
LayerCount: 2
Fore
SplineSet
725 322 m 1,0,1
 736 295 736 295 740 263 c 1,2,3
 717 249 717 249 670 234 c 128,-1,4
 623 219 623 219 582 216 c 1,5,6
 538 113 538 113 460.5 50.5 c 128,-1,7
 383 -12 383 -12 268 -12 c 128,-1,8
 153 -12 153 -12 92.5 65.5 c 128,-1,9
 32 143 32 143 32 280.5 c 128,-1,10
 32 418 32 418 96 531.5 c 128,-1,11
 160 645 160 645 279 709 c 1,12,-1
 300 674 l 1,13,14
 192 539 192 539 192 287 c 0,15,16
 192 123 192 123 242 78 c 0,17,18
 265 56 265 56 300 56 c 0,19,20
 399 56 399 56 444 226 c 1,21,22
 366 240 366 240 324 292.5 c 128,-1,23
 282 345 282 345 282 439.5 c 128,-1,24
 282 534 282 534 336 609.5 c 128,-1,25
 390 685 390 685 466.5 685 c 128,-1,26
 543 685 543 685 586 617.5 c 128,-1,27
 629 550 629 550 629 444 c 0,28,29
 629 377 629 377 602 281 c 1,30,31
 647 283 647 283 706 312 c 1,32,-1
 725 322 l 1,0,1
463 552.5 m 128,-1,34
 455 587 455 587 425 587 c 128,-1,35
 395 587 395 587 369.5 542.5 c 128,-1,36
 344 498 344 498 344 433 c 128,-1,37
 344 368 344 368 373 331.5 c 128,-1,38
 402 295 402 295 455 290 c 1,39,40
 471 375 471 375 471 446.5 c 128,-1,33
 471 518 471 518 463 552.5 c 128,-1,34
274 915 m 0,41,42
 314 915 314 915 533 783 c 1,43,-1
 516 736 l 1,44,45
 421 764 421 764 210 819 c 1,46,47
 236 915 236 915 274 915 c 0,41,42
EndSplineSet
EndChar

StartChar: Oacute
Encoding: 211 211 149
Width: 632
GlyphClass: 2
Flags: W
LayerCount: 2
Fore
SplineSet
725 322 m 1,0,1
 736 295 736 295 740 263 c 1,2,3
 717 249 717 249 670 234 c 128,-1,4
 623 219 623 219 582 216 c 1,5,6
 538 113 538 113 460.5 50.5 c 128,-1,7
 383 -12 383 -12 268 -12 c 128,-1,8
 153 -12 153 -12 92.5 65.5 c 128,-1,9
 32 143 32 143 32 280.5 c 128,-1,10
 32 418 32 418 96 531.5 c 128,-1,11
 160 645 160 645 279 709 c 1,12,-1
 300 674 l 1,13,14
 192 539 192 539 192 287 c 0,15,16
 192 123 192 123 242 78 c 0,17,18
 265 56 265 56 300 56 c 0,19,20
 399 56 399 56 444 226 c 1,21,22
 366 240 366 240 324 292.5 c 128,-1,23
 282 345 282 345 282 439.5 c 128,-1,24
 282 534 282 534 336 609.5 c 128,-1,25
 390 685 390 685 466.5 685 c 128,-1,26
 543 685 543 685 586 617.5 c 128,-1,27
 629 550 629 550 629 444 c 0,28,29
 629 377 629 377 602 281 c 1,30,31
 647 283 647 283 706 312 c 1,32,-1
 725 322 l 1,0,1
463 552.5 m 128,-1,34
 455 587 455 587 425 587 c 128,-1,35
 395 587 395 587 369.5 542.5 c 128,-1,36
 344 498 344 498 344 433 c 128,-1,37
 344 368 344 368 373 331.5 c 128,-1,38
 402 295 402 295 455 290 c 1,39,40
 471 375 471 375 471 446.5 c 128,-1,33
 471 518 471 518 463 552.5 c 128,-1,34
604 846 m 0,41,42
 604 818 604 818 567 802 c 1,43,44
 476 776 476 776 305 750 c 1,45,-1
 284 796 l 1,46,47
 494 891 494 891 567 931 c 1,48,49
 578 915 578 915 591 885.5 c 128,-1,50
 604 856 604 856 604 846 c 0,41,42
EndSplineSet
EndChar

StartChar: Ocircumflex
Encoding: 212 212 150
Width: 632
GlyphClass: 2
Flags: W
LayerCount: 2
Fore
SplineSet
725 322 m 1,0,1
 736 295 736 295 740 263 c 1,2,3
 717 249 717 249 670 234 c 128,-1,4
 623 219 623 219 582 216 c 1,5,6
 538 113 538 113 460.5 50.5 c 128,-1,7
 383 -12 383 -12 268 -12 c 128,-1,8
 153 -12 153 -12 92.5 65.5 c 128,-1,9
 32 143 32 143 32 280.5 c 128,-1,10
 32 418 32 418 96 531.5 c 128,-1,11
 160 645 160 645 279 709 c 1,12,-1
 300 674 l 1,13,14
 192 539 192 539 192 287 c 0,15,16
 192 123 192 123 242 78 c 0,17,18
 265 56 265 56 300 56 c 0,19,20
 399 56 399 56 444 226 c 1,21,22
 366 240 366 240 324 292.5 c 128,-1,23
 282 345 282 345 282 439.5 c 128,-1,24
 282 534 282 534 336 609.5 c 128,-1,25
 390 685 390 685 466.5 685 c 128,-1,26
 543 685 543 685 586 617.5 c 128,-1,27
 629 550 629 550 629 444 c 0,28,29
 629 377 629 377 602 281 c 1,30,31
 647 283 647 283 706 312 c 1,32,-1
 725 322 l 1,0,1
463 552.5 m 128,-1,34
 455 587 455 587 425 587 c 128,-1,35
 395 587 395 587 369.5 542.5 c 128,-1,36
 344 498 344 498 344 433 c 128,-1,37
 344 368 344 368 373 331.5 c 128,-1,38
 402 295 402 295 455 290 c 1,39,40
 471 375 471 375 471 446.5 c 128,-1,33
 471 518 471 518 463 552.5 c 128,-1,34
341 869 m 128,-1,42
 431 919 431 919 457.5 919 c 128,-1,43
 484 919 484 919 528 867.5 c 128,-1,44
 572 816 572 816 599 775 c 1,45,-1
 565 743 l 1,46,47
 458 797 458 797 426 804 c 1,48,49
 375 795 375 795 305.5 768.5 c 128,-1,50
 236 742 236 742 227 739 c 1,51,-1
 200 776 l 1,52,41
 251 819 251 819 341 869 c 128,-1,42
EndSplineSet
EndChar

StartChar: Otilde
Encoding: 213 213 151
Width: 632
GlyphClass: 2
Flags: W
LayerCount: 2
Fore
SplineSet
725 322 m 1,0,1
 736 295 736 295 740 263 c 1,2,3
 717 249 717 249 670 234 c 128,-1,4
 623 219 623 219 582 216 c 1,5,6
 538 113 538 113 460.5 50.5 c 128,-1,7
 383 -12 383 -12 268 -12 c 128,-1,8
 153 -12 153 -12 92.5 65.5 c 128,-1,9
 32 143 32 143 32 280.5 c 128,-1,10
 32 418 32 418 96 531.5 c 128,-1,11
 160 645 160 645 279 709 c 1,12,-1
 300 674 l 1,13,14
 192 539 192 539 192 287 c 0,15,16
 192 123 192 123 242 78 c 0,17,18
 265 56 265 56 300 56 c 0,19,20
 399 56 399 56 444 226 c 1,21,22
 366 240 366 240 324 292.5 c 128,-1,23
 282 345 282 345 282 439.5 c 128,-1,24
 282 534 282 534 336 609.5 c 128,-1,25
 390 685 390 685 466.5 685 c 128,-1,26
 543 685 543 685 586 617.5 c 128,-1,27
 629 550 629 550 629 444 c 0,28,29
 629 377 629 377 602 281 c 1,30,31
 647 283 647 283 706 312 c 1,32,-1
 725 322 l 1,0,1
463 552.5 m 128,-1,34
 455 587 455 587 425 587 c 128,-1,35
 395 587 395 587 369.5 542.5 c 128,-1,36
 344 498 344 498 344 433 c 128,-1,37
 344 368 344 368 373 331.5 c 128,-1,38
 402 295 402 295 455 290 c 1,39,40
 471 375 471 375 471 446.5 c 128,-1,33
 471 518 471 518 463 552.5 c 128,-1,34
198 765 m 1,41,42
 212 901 212 901 300 901 c 0,43,44
 334 901 334 901 404.5 883 c 128,-1,45
 475 865 475 865 497.5 865 c 128,-1,46
 520 865 520 865 529 866 c 0,47,48
 549 870 549 870 565 898 c 1,49,-1
 597 892 l 1,50,51
 593 851 593 851 580 819 c 1,52,53
 560 763 560 763 494 763 c 0,54,55
 471 763 471 763 403.5 780.5 c 128,-1,56
 336 798 336 798 304.5 798 c 128,-1,57
 273 798 273 798 259 790.5 c 128,-1,58
 245 783 245 783 231 758 c 1,59,-1
 198 765 l 1,41,42
EndSplineSet
EndChar

StartChar: Odieresis
Encoding: 214 214 152
Width: 632
GlyphClass: 2
Flags: W
LayerCount: 2
Fore
SplineSet
725 322 m 1,0,1
 736 295 736 295 740 263 c 1,2,3
 717 249 717 249 670 234 c 128,-1,4
 623 219 623 219 582 216 c 1,5,6
 538 113 538 113 460.5 50.5 c 128,-1,7
 383 -12 383 -12 268 -12 c 128,-1,8
 153 -12 153 -12 92.5 65.5 c 128,-1,9
 32 143 32 143 32 280.5 c 128,-1,10
 32 418 32 418 96 531.5 c 128,-1,11
 160 645 160 645 279 709 c 1,12,-1
 300 674 l 1,13,14
 192 539 192 539 192 287 c 0,15,16
 192 123 192 123 242 78 c 0,17,18
 265 56 265 56 300 56 c 0,19,20
 399 56 399 56 444 226 c 1,21,22
 366 240 366 240 324 292.5 c 128,-1,23
 282 345 282 345 282 439.5 c 128,-1,24
 282 534 282 534 336 609.5 c 128,-1,25
 390 685 390 685 466.5 685 c 128,-1,26
 543 685 543 685 586 617.5 c 128,-1,27
 629 550 629 550 629 444 c 0,28,29
 629 377 629 377 602 281 c 1,30,31
 647 283 647 283 706 312 c 1,32,-1
 725 322 l 1,0,1
463 552.5 m 128,-1,34
 455 587 455 587 425 587 c 128,-1,35
 395 587 395 587 369.5 542.5 c 128,-1,36
 344 498 344 498 344 433 c 128,-1,37
 344 368 344 368 373 331.5 c 128,-1,38
 402 295 402 295 455 290 c 1,39,40
 471 375 471 375 471 446.5 c 128,-1,33
 471 518 471 518 463 552.5 c 128,-1,34
254.5 782 m 128,-1,42
 238 799 238 799 238 828.5 c 128,-1,43
 238 858 238 858 261 878.5 c 128,-1,44
 284 899 284 899 315 899 c 0,45,46
 380 899 380 899 380 836 c 0,47,48
 380 808 380 808 356.5 786.5 c 128,-1,49
 333 765 333 765 302 765 c 128,-1,41
 271 765 271 765 254.5 782 c 128,-1,42
460 782 m 128,-1,51
 444 799 444 799 444 828.5 c 128,-1,52
 444 858 444 858 466.5 878.5 c 128,-1,53
 489 899 489 899 520 899 c 0,54,55
 586 899 586 899 586 836 c 0,56,57
 586 808 586 808 562 786.5 c 128,-1,58
 538 765 538 765 507 765 c 128,-1,50
 476 765 476 765 460 782 c 128,-1,51
EndSplineSet
EndChar

StartChar: multiply
Encoding: 215 215 153
Width: 493
GlyphClass: 2
Flags: W
LayerCount: 2
Fore
SplineSet
367 107 m 1,0,-1
 250 224 l 1,1,-1
 134 107 l 1,2,3
 89 144 89 144 73 166 c 1,4,-1
 190 284 l 1,5,-1
 73 402 l 1,6,7
 97 430 97 430 135 459 c 1,8,-1
 250 343 l 1,9,-1
 365 459 l 1,10,11
 404 430 404 430 428 402 c 1,12,-1
 310 283 l 1,13,-1
 427 166 l 1,14,15
 409 142 409 142 367 107 c 1,0,-1
EndSplineSet
EndChar

StartChar: Oslash
Encoding: 216 216 154
Width: 636
GlyphClass: 2
Flags: W
LayerCount: 2
Fore
SplineSet
601.5 582 m 128,-1,1
 631 517 631 517 631 451 c 128,-1,2
 631 385 631 385 619 324 c 128,-1,3
 607 263 607 263 579 202 c 128,-1,4
 551 141 551 141 511 94 c 128,-1,5
 471 47 471 47 410 17.5 c 128,-1,6
 349 -12 349 -12 276 -12 c 0,7,8
 258 -12 258 -12 242 -9 c 1,9,10
 215 -86 215 -86 210 -100 c 1,11,12
 181 -98 181 -98 168 -88 c 1,13,14
 156 -81 156 -81 142 -72 c 1,15,-1
 172 12 l 1,16,17
 113 43 113 43 82 110 c 128,-1,18
 51 177 51 177 51 279.5 c 128,-1,19
 51 382 51 382 93.5 482.5 c 128,-1,20
 136 583 136 583 215.5 646.5 c 128,-1,21
 295 710 295 710 392 710 c 0,22,23
 410 710 410 710 440 706 c 1,24,-1
 476 798 l 1,25,26
 528 790 528 790 539 780 c 0,27,28
 540 779 540 779 548 772 c 1,29,-1
 512 681 l 1,30,0
 572 647 572 647 601.5 582 c 128,-1,1
310 56 m 0,31,32
 353 56 353 56 386 97 c 128,-1,33
 419 138 419 138 436 204 c 0,34,35
 471 333 471 333 471 471 c 0,36,37
 471 526 471 526 463 559 c 1,38,39
 311 173 311 173 269 63 c 1,40,41
 284 56 284 56 310 56 c 0,31,32
377 642 m 0,42,43
 323 642 323 642 284 580 c 0,44,45
 211 463 211 463 211 256 c 0,46,47
 211 169 211 169 218 135 c 1,48,49
 253 227 253 227 412 635 c 1,50,51
 394 642 394 642 377 642 c 0,42,43
EndSplineSet
EndChar

StartChar: Ugrave
Encoding: 217 217 155
Width: 733
GlyphClass: 2
Flags: W
LayerCount: 2
Fore
SplineSet
327 354.5 m 128,-1,1
 278 193 278 193 278 148.5 c 128,-1,2
 278 104 278 104 319.5 104 c 128,-1,3
 361 104 361 104 433 165 c 1,4,5
 436 216 436 216 450 287 c 0,6,7
 492 510 492 510 552 610 c 128,-1,8
 612 710 612 710 692 710 c 0,9,10
 739 710 739 710 762.5 682.5 c 128,-1,11
 786 655 786 655 786 610 c 0,12,13
 786 468 786 468 592 228 c 1,14,15
 589 189 589 189 589 149 c 0,16,17
 589 66 589 66 617 66 c 0,18,19
 634 66 634 66 646 70 c 1,20,-1
 661 32 l 1,21,22
 599 -12 599 -12 537 -12 c 0,23,24
 447 -12 447 -12 434 93 c 1,25,26
 314 -12 314 -12 229 -12 c 0,27,28
 178 -12 178 -12 146.5 19.5 c 128,-1,29
 115 51 115 51 115 111 c 0,30,31
 115 146 115 146 138.5 224.5 c 128,-1,32
 162 303 162 303 166 317 c 1,33,34
 3 384 3 384 3 503 c 0,35,36
 3 585 3 585 79 647.5 c 128,-1,37
 155 710 155 710 248 710 c 0,38,39
 376 710 376 710 376 583 c 0,40,0
 376 516 376 516 327 354.5 c 128,-1,1
185 389 m 1,41,42
 220 511 220 511 220 571 c 128,-1,43
 220 631 220 631 177.5 631 c 128,-1,44
 135 631 135 631 100 593 c 128,-1,45
 65 555 65 555 65 509.5 c 128,-1,46
 65 464 65 464 100 433.5 c 128,-1,47
 135 403 135 403 185 389 c 1,41,42
322 915 m 0,48,49
 362 915 362 915 581 783 c 1,50,-1
 564 736 l 1,51,52
 469 764 469 764 258 819 c 1,53,54
 284 915 284 915 322 915 c 0,48,49
726 612 m 0,55,56
 726 639 726 639 706 639 c 0,57,58
 662 639 662 639 605 335 c 1,59,60
 650 394 650 394 688 476.5 c 128,-1,61
 726 559 726 559 726 612 c 0,55,56
EndSplineSet
EndChar

StartChar: Uacute
Encoding: 218 218 156
Width: 733
GlyphClass: 2
Flags: W
LayerCount: 2
Fore
SplineSet
327 354.5 m 128,-1,1
 278 193 278 193 278 148.5 c 128,-1,2
 278 104 278 104 319.5 104 c 128,-1,3
 361 104 361 104 433 165 c 1,4,5
 436 216 436 216 450 287 c 0,6,7
 492 510 492 510 552 610 c 128,-1,8
 612 710 612 710 692 710 c 0,9,10
 739 710 739 710 762.5 682.5 c 128,-1,11
 786 655 786 655 786 610 c 0,12,13
 786 468 786 468 592 228 c 1,14,15
 589 189 589 189 589 149 c 0,16,17
 589 66 589 66 617 66 c 0,18,19
 634 66 634 66 646 70 c 1,20,-1
 661 32 l 1,21,22
 599 -12 599 -12 537 -12 c 0,23,24
 447 -12 447 -12 434 93 c 1,25,26
 314 -12 314 -12 229 -12 c 0,27,28
 178 -12 178 -12 146.5 19.5 c 128,-1,29
 115 51 115 51 115 111 c 0,30,31
 115 146 115 146 138.5 224.5 c 128,-1,32
 162 303 162 303 166 317 c 1,33,34
 3 384 3 384 3 503 c 0,35,36
 3 585 3 585 79 647.5 c 128,-1,37
 155 710 155 710 248 710 c 0,38,39
 376 710 376 710 376 583 c 0,40,0
 376 516 376 516 327 354.5 c 128,-1,1
675 846 m 0,41,42
 675 818 675 818 638 802 c 1,43,44
 547 776 547 776 376 750 c 1,45,-1
 355 796 l 1,46,47
 565 891 565 891 638 931 c 1,48,49
 649 915 649 915 662 885.5 c 128,-1,50
 675 856 675 856 675 846 c 0,41,42
185 389 m 1,51,52
 220 511 220 511 220 571 c 128,-1,53
 220 631 220 631 177.5 631 c 128,-1,54
 135 631 135 631 100 593 c 128,-1,55
 65 555 65 555 65 509.5 c 128,-1,56
 65 464 65 464 100 433.5 c 128,-1,57
 135 403 135 403 185 389 c 1,51,52
726 612 m 0,58,59
 726 639 726 639 706 639 c 0,60,61
 662 639 662 639 605 335 c 1,62,63
 650 394 650 394 688 476.5 c 128,-1,64
 726 559 726 559 726 612 c 0,58,59
EndSplineSet
EndChar

StartChar: Ucircumflex
Encoding: 219 219 157
Width: 733
GlyphClass: 2
Flags: W
LayerCount: 2
Fore
SplineSet
327 354.5 m 128,-1,1
 278 193 278 193 278 148.5 c 128,-1,2
 278 104 278 104 319.5 104 c 128,-1,3
 361 104 361 104 433 165 c 1,4,5
 436 216 436 216 450 287 c 0,6,7
 492 510 492 510 552 610 c 128,-1,8
 612 710 612 710 692 710 c 0,9,10
 739 710 739 710 762.5 682.5 c 128,-1,11
 786 655 786 655 786 610 c 0,12,13
 786 468 786 468 592 228 c 1,14,15
 589 189 589 189 589 149 c 0,16,17
 589 66 589 66 617 66 c 0,18,19
 634 66 634 66 646 70 c 1,20,-1
 661 32 l 1,21,22
 599 -12 599 -12 537 -12 c 0,23,24
 447 -12 447 -12 434 93 c 1,25,26
 314 -12 314 -12 229 -12 c 0,27,28
 178 -12 178 -12 146.5 19.5 c 128,-1,29
 115 51 115 51 115 111 c 0,30,31
 115 146 115 146 138.5 224.5 c 128,-1,32
 162 303 162 303 166 317 c 1,33,34
 3 384 3 384 3 503 c 0,35,36
 3 585 3 585 79 647.5 c 128,-1,37
 155 710 155 710 248 710 c 0,38,39
 376 710 376 710 376 583 c 0,40,0
 376 516 376 516 327 354.5 c 128,-1,1
437 869 m 128,-1,42
 527 919 527 919 553.5 919 c 128,-1,43
 580 919 580 919 624 867.5 c 128,-1,44
 668 816 668 816 695 775 c 1,45,-1
 661 743 l 1,46,47
 554 797 554 797 522 804 c 1,48,49
 471 795 471 795 401.5 768.5 c 128,-1,50
 332 742 332 742 323 739 c 1,51,-1
 296 776 l 1,52,41
 347 819 347 819 437 869 c 128,-1,42
185 389 m 1,53,54
 220 511 220 511 220 571 c 128,-1,55
 220 631 220 631 177.5 631 c 128,-1,56
 135 631 135 631 100 593 c 128,-1,57
 65 555 65 555 65 509.5 c 128,-1,58
 65 464 65 464 100 433.5 c 128,-1,59
 135 403 135 403 185 389 c 1,53,54
726 612 m 0,60,61
 726 639 726 639 706 639 c 0,62,63
 662 639 662 639 605 335 c 1,64,65
 650 394 650 394 688 476.5 c 128,-1,66
 726 559 726 559 726 612 c 0,60,61
EndSplineSet
EndChar

StartChar: Udieresis
Encoding: 220 220 158
Width: 733
GlyphClass: 2
Flags: W
LayerCount: 2
Fore
SplineSet
327 354.5 m 128,-1,1
 278 193 278 193 278 148.5 c 128,-1,2
 278 104 278 104 319.5 104 c 128,-1,3
 361 104 361 104 433 165 c 1,4,5
 436 216 436 216 450 287 c 0,6,7
 492 510 492 510 552 610 c 128,-1,8
 612 710 612 710 692 710 c 0,9,10
 739 710 739 710 762.5 682.5 c 128,-1,11
 786 655 786 655 786 610 c 0,12,13
 786 468 786 468 592 228 c 1,14,15
 589 189 589 189 589 149 c 0,16,17
 589 66 589 66 617 66 c 0,18,19
 634 66 634 66 646 70 c 1,20,-1
 661 32 l 1,21,22
 599 -12 599 -12 537 -12 c 0,23,24
 447 -12 447 -12 434 93 c 1,25,26
 314 -12 314 -12 229 -12 c 0,27,28
 178 -12 178 -12 146.5 19.5 c 128,-1,29
 115 51 115 51 115 111 c 0,30,31
 115 146 115 146 138.5 224.5 c 128,-1,32
 162 303 162 303 166 317 c 1,33,34
 3 384 3 384 3 503 c 0,35,36
 3 585 3 585 79 647.5 c 128,-1,37
 155 710 155 710 248 710 c 0,38,39
 376 710 376 710 376 583 c 0,40,0
 376 516 376 516 327 354.5 c 128,-1,1
185 389 m 1,41,42
 220 511 220 511 220 571 c 128,-1,43
 220 631 220 631 177.5 631 c 128,-1,44
 135 631 135 631 100 593 c 128,-1,45
 65 555 65 555 65 509.5 c 128,-1,46
 65 464 65 464 100 433.5 c 128,-1,47
 135 403 135 403 185 389 c 1,41,42
538 782 m 128,-1,49
 522 799 522 799 522 828.5 c 128,-1,50
 522 858 522 858 544.5 878.5 c 128,-1,51
 567 899 567 899 598 899 c 0,52,53
 664 899 664 899 664 836 c 0,54,55
 664 808 664 808 640 786.5 c 128,-1,56
 616 765 616 765 585 765 c 128,-1,48
 554 765 554 765 538 782 c 128,-1,49
332.5 782 m 128,-1,58
 316 799 316 799 316 828.5 c 128,-1,59
 316 858 316 858 339 878.5 c 128,-1,60
 362 899 362 899 393 899 c 0,61,62
 458 899 458 899 458 836 c 0,63,64
 458 808 458 808 434.5 786.5 c 128,-1,65
 411 765 411 765 380 765 c 128,-1,57
 349 765 349 765 332.5 782 c 128,-1,58
726 612 m 0,66,67
 726 639 726 639 706 639 c 0,68,69
 662 639 662 639 605 335 c 1,70,71
 650 394 650 394 688 476.5 c 128,-1,72
 726 559 726 559 726 612 c 0,66,67
EndSplineSet
EndChar

StartChar: Yacute
Encoding: 221 221 159
Width: 754
GlyphClass: 2
Flags: W
LayerCount: 2
Fore
SplineSet
703 23 m 1,0,1
 691 -29 691 -29 681 -42 c 1,2,3
 617 -22 617 -22 538 -22 c 2,4,-1
 537 -22 l 1,5,6
 438 -224 438 -224 270 -224 c 0,7,8
 223 -224 223 -224 191 -196.5 c 128,-1,9
 159 -169 159 -169 159 -130.5 c 128,-1,10
 159 -92 159 -92 184 -61 c 128,-1,11
 209 -30 209 -30 250 -10 c 0,12,13
 324 25 324 25 405 39 c 1,14,-1
 425 113 l 1,15,16
 331 54 331 54 258 54 c 0,17,18
 212 54 212 54 184.5 81.5 c 128,-1,19
 157 109 157 109 157 168 c 0,20,21
 157 215 157 215 169 262 c 128,-1,22
 181 309 181 309 182 314 c 1,23,24
 113 335 113 335 60.5 386.5 c 128,-1,25
 8 438 8 438 8 517 c 128,-1,26
 8 596 8 596 79 653 c 128,-1,27
 150 710 150 710 234 710 c 128,-1,28
 318 710 318 710 358 667.5 c 128,-1,29
 398 625 398 625 398 564 c 128,-1,30
 398 503 398 503 355.5 375.5 c 128,-1,31
 313 248 313 248 313 215 c 0,32,33
 313 170 313 170 353 170 c 128,-1,34
 393 170 393 170 450 212 c 1,35,-1
 471 317 l 2,36,37
 508 502 508 502 525 546 c 128,-1,38
 542 590 542 590 558.5 621.5 c 128,-1,39
 575 653 575 653 593 670 c 0,40,41
 635 710 635 710 688 710 c 128,-1,42
 741 710 741 710 769 683 c 128,-1,43
 797 656 797 656 797 599.5 c 128,-1,44
 797 543 797 543 751.5 453 c 128,-1,45
 706 363 706 363 626 273 c 1,46,47
 602 138 602 138 563 38 c 1,48,-1
 572 38 l 1,49,50
 651 36 651 36 689 26 c 1,51,-1
 703 23 l 1,0,1
194 389 m 1,52,53
 232 506 232 506 232 573 c 128,-1,54
 232 640 232 640 181 640 c 0,55,56
 140 640 140 640 105 604.5 c 128,-1,57
 70 569 70 569 70 518 c 128,-1,58
 70 467 70 467 108 435 c 128,-1,59
 146 403 146 403 194 389 c 1,52,53
693 846 m 0,60,61
 693 818 693 818 656 802 c 1,62,63
 565 776 565 776 394 750 c 1,64,-1
 373 796 l 1,65,66
 583 891 583 891 656 931 c 1,67,68
 667 915 667 915 680 885.5 c 128,-1,69
 693 856 693 856 693 846 c 0,60,61
710 493.5 m 128,-1,71
 737 562 737 562 737 600 c 128,-1,72
 737 638 737 638 723 638 c 0,73,74
 711 638 711 638 696 610 c 0,75,76
 670 560 670 560 641 378 c 1,77,-1
 643 379 l 1,78,70
 683 425 683 425 710 493.5 c 128,-1,71
233 -119 m 0,79,80
 233 -143 233 -143 267 -143 c 128,-1,81
 301 -143 301 -143 335.5 -112.5 c 128,-1,82
 370 -82 370 -82 391 -31 c 1,83,84
 334 -36 334 -36 283.5 -63 c 128,-1,85
 233 -90 233 -90 233 -119 c 0,79,80
EndSplineSet
EndChar

StartChar: Thorn
Encoding: 222 222 160
Width: 549
GlyphClass: 2
Flags: W
LayerCount: 2
Fore
SplineSet
315 587 m 1,0,-1
 358 588 l 1,1,2
 569 588 569 588 569 420 c 0,3,4
 569 309 569 309 491 232 c 128,-1,5
 413 155 413 155 265 155 c 0,6,7
 239 155 239 155 225 156 c 1,8,9
 207 58 207 58 206 17 c 1,10,11
 170 -3 170 -3 54 -3 c 2,12,-1
 44 -3 l 1,13,14
 47 41 47 41 97.5 260 c 128,-1,15
 148 479 148 479 160 589 c 1,16,17
 160 605 160 605 150 627.5 c 128,-1,18
 140 650 140 650 130 664 c 2,19,-1
 119 678 l 1,20,-1
 122 693 l 1,21,22
 181 710 181 710 309 710 c 1,23,24
 321 690 321 690 321 657 c 128,-1,25
 321 624 321 624 315 587 c 1,0,-1
398.5 500 m 128,-1,27
 379 526 379 526 351 526 c 128,-1,28
 323 526 323 526 302 520 c 1,29,30
 293 473 293 473 269.5 370 c 128,-1,31
 246 267 246 267 237 222 c 1,32,-1
 249 222 l 2,33,34
 327 222 327 222 372.5 281 c 128,-1,35
 418 340 418 340 418 435 c 0,36,26
 418 474 418 474 398.5 500 c 128,-1,27
EndSplineSet
EndChar

StartChar: germandbls
Encoding: 223 223 161
Width: 614
GlyphClass: 2
Flags: W
LayerCount: 2
Fore
SplineSet
617 150 m 0,0,1
 617 79 617 79 557.5 33.5 c 128,-1,2
 498 -12 498 -12 413 -12 c 0,3,4
 352 -12 352 -12 314 12.5 c 128,-1,5
 276 37 276 37 276 57.5 c 128,-1,6
 276 78 276 78 311.5 120.5 c 128,-1,7
 347 163 347 163 370 170 c 1,8,9
 389 163 389 163 412.5 128.5 c 128,-1,10
 436 94 436 94 452 45 c 1,11,12
 484 47 484 47 484 86 c 128,-1,13
 484 125 484 125 460.5 164 c 128,-1,14
 437 203 437 203 408.5 231 c 128,-1,15
 380 259 380 259 356.5 299 c 128,-1,16
 333 339 333 339 333 370 c 128,-1,17
 333 401 333 401 345 419.5 c 128,-1,18
 357 438 357 438 374 453.5 c 128,-1,19
 391 469 391 469 408 487 c 0,20,21
 450 530 450 530 450 603 c 0,22,23
 450 635 450 635 433.5 653.5 c 128,-1,24
 417 672 417 672 386 672 c 0,25,26
 341 672 341 672 318 582.5 c 128,-1,27
 295 493 295 493 266 276 c 128,-1,28
 237 59 237 59 219 -20 c 128,-1,29
 201 -99 201 -99 170 -153 c 1,30,-1
 163 -153 l 2,31,32
 135 -153 135 -153 91 -144.5 c 128,-1,33
 47 -136 47 -136 28 -126 c 1,34,35
 93 66 93 66 130 374 c 1,36,37
 90 371 90 371 54 365 c 1,38,39
 53 374 53 374 53 392 c 128,-1,40
 53 410 53 410 57 431 c 1,41,-1
 137 431 l 1,42,-1
 138 436 l 1,43,44
 168 607 168 607 226.5 670 c 128,-1,45
 285 733 285 733 399 733 c 0,46,47
 476 733 476 733 531 703.5 c 128,-1,48
 586 674 586 674 586 611 c 0,49,50
 586 570 586 570 568 539.5 c 128,-1,51
 550 509 550 509 529 494 c 0,52,53
 472 455 472 455 472 423 c 0,54,55
 472 383 472 383 544 304 c 0,56,57
 572 274 572 274 594.5 231 c 128,-1,58
 617 188 617 188 617 150 c 0,0,1
EndSplineSet
EndChar

StartChar: agrave
Encoding: 224 224 162
Width: 480
GlyphClass: 2
Flags: W
LayerCount: 2
Fore
SplineSet
328 414 m 1,0,1
 330 416 330 416 339 440 c 1,2,3
 386 440 386 440 465 412 c 1,4,5
 440 329 440 329 425 238.5 c 128,-1,6
 410 148 410 148 410 109.5 c 128,-1,7
 410 71 410 71 418 71 c 0,8,9
 424 71 424 71 462 90 c 2,10,-1
 474 96 l 1,11,-1
 492 61 l 1,12,13
 483 53 483 53 468.5 41 c 128,-1,14
 454 29 454 29 414 8.5 c 128,-1,15
 374 -12 374 -12 342 -12 c 0,16,17
 280 -12 280 -12 270 44 c 1,18,19
 206 -12 206 -12 154.5 -12 c 128,-1,20
 103 -12 103 -12 67.5 28 c 128,-1,21
 32 68 32 68 32 154 c 0,22,23
 32 288 32 288 87 365.5 c 128,-1,24
 142 443 142 443 220 443 c 0,25,26
 276 443 276 443 328 414 c 1,0,1
214 73 m 0,27,28
 238 73 238 73 268 92 c 1,29,30
 275 233 275 233 315 371 c 1,31,32
 285 384 285 384 264 384 c 0,33,34
 228 384 228 384 202.5 313.5 c 128,-1,35
 177 243 177 243 177 158 c 128,-1,36
 177 73 177 73 214 73 c 0,27,28
203 693 m 0,37,38
 230 693 230 693 291 651 c 0,39,40
 307 640 307 640 319.5 631.5 c 128,-1,41
 332 623 332 623 351 609 c 128,-1,42
 370 595 370 595 382 586 c 0,43,44
 412 561 412 561 446 537 c 1,45,-1
 424 499 l 1,46,47
 301 546 301 546 132 600 c 1,48,49
 170 693 170 693 203 693 c 0,37,38
EndSplineSet
EndChar

StartChar: aacute
Encoding: 225 225 163
Width: 480
GlyphClass: 2
Flags: W
LayerCount: 2
Fore
SplineSet
328 414 m 1,0,1
 330 416 330 416 339 440 c 1,2,3
 386 440 386 440 465 412 c 1,4,5
 440 329 440 329 425 238.5 c 128,-1,6
 410 148 410 148 410 109.5 c 128,-1,7
 410 71 410 71 418 71 c 0,8,9
 424 71 424 71 462 90 c 2,10,-1
 474 96 l 1,11,-1
 492 61 l 1,12,13
 483 53 483 53 468.5 41 c 128,-1,14
 454 29 454 29 414 8.5 c 128,-1,15
 374 -12 374 -12 342 -12 c 0,16,17
 280 -12 280 -12 270 44 c 1,18,19
 206 -12 206 -12 154.5 -12 c 128,-1,20
 103 -12 103 -12 67.5 28 c 128,-1,21
 32 68 32 68 32 154 c 0,22,23
 32 288 32 288 87 365.5 c 128,-1,24
 142 443 142 443 220 443 c 0,25,26
 276 443 276 443 328 414 c 1,0,1
214 73 m 0,27,28
 238 73 238 73 268 92 c 1,29,30
 275 233 275 233 315 371 c 1,31,32
 285 384 285 384 264 384 c 0,33,34
 228 384 228 384 202.5 313.5 c 128,-1,35
 177 243 177 243 177 158 c 128,-1,36
 177 73 177 73 214 73 c 0,27,28
467 616 m 0,37,38
 467 588 467 588 431 571 c 0,39,40
 382 548 382 548 186 503 c 1,41,-1
 168 543 l 1,42,43
 262 592 262 592 338 643 c 128,-1,44
 414 694 414 694 432 705 c 1,45,46
 442 691 442 691 454.5 661 c 128,-1,47
 467 631 467 631 467 616 c 0,37,38
EndSplineSet
EndChar

StartChar: acircumflex
Encoding: 226 226 164
Width: 480
GlyphClass: 2
Flags: W
LayerCount: 2
Fore
SplineSet
328 414 m 1,0,1
 330 416 330 416 339 440 c 1,2,3
 386 440 386 440 465 412 c 1,4,5
 440 329 440 329 425 238.5 c 128,-1,6
 410 148 410 148 410 109.5 c 128,-1,7
 410 71 410 71 418 71 c 0,8,9
 424 71 424 71 462 90 c 2,10,-1
 474 96 l 1,11,-1
 492 61 l 1,12,13
 483 53 483 53 468.5 41 c 128,-1,14
 454 29 454 29 414 8.5 c 128,-1,15
 374 -12 374 -12 342 -12 c 0,16,17
 280 -12 280 -12 270 44 c 1,18,19
 206 -12 206 -12 154.5 -12 c 128,-1,20
 103 -12 103 -12 67.5 28 c 128,-1,21
 32 68 32 68 32 154 c 0,22,23
 32 288 32 288 87 365.5 c 128,-1,24
 142 443 142 443 220 443 c 0,25,26
 276 443 276 443 328 414 c 1,0,1
214 73 m 0,27,28
 238 73 238 73 268 92 c 1,29,30
 275 233 275 233 315 371 c 1,31,32
 285 384 285 384 264 384 c 0,33,34
 228 384 228 384 202.5 313.5 c 128,-1,35
 177 243 177 243 177 158 c 128,-1,36
 177 73 177 73 214 73 c 0,27,28
358 705 m 0,37,38
 391 705 391 705 485 536 c 1,39,-1
 454 507 l 1,40,41
 368 574 368 574 325 590 c 1,42,43
 244 568 244 568 136 503 c 1,44,-1
 109 540 l 1,45,46
 162 591 162 591 246.5 648 c 128,-1,47
 331 705 331 705 358 705 c 0,37,38
EndSplineSet
EndChar

StartChar: atilde
Encoding: 227 227 165
Width: 480
GlyphClass: 2
Flags: W
LayerCount: 2
Fore
SplineSet
328 414 m 1,0,1
 330 416 330 416 339 440 c 1,2,3
 386 440 386 440 465 412 c 1,4,5
 440 329 440 329 425 238.5 c 128,-1,6
 410 148 410 148 410 109.5 c 128,-1,7
 410 71 410 71 418 71 c 0,8,9
 424 71 424 71 462 90 c 2,10,-1
 474 96 l 1,11,-1
 492 61 l 1,12,13
 483 53 483 53 468.5 41 c 128,-1,14
 454 29 454 29 414 8.5 c 128,-1,15
 374 -12 374 -12 342 -12 c 0,16,17
 280 -12 280 -12 270 44 c 1,18,19
 206 -12 206 -12 154.5 -12 c 128,-1,20
 103 -12 103 -12 67.5 28 c 128,-1,21
 32 68 32 68 32 154 c 0,22,23
 32 288 32 288 87 365.5 c 128,-1,24
 142 443 142 443 220 443 c 0,25,26
 276 443 276 443 328 414 c 1,0,1
214 73 m 0,27,28
 238 73 238 73 268 92 c 1,29,30
 275 233 275 233 315 371 c 1,31,32
 285 384 285 384 264 384 c 0,33,34
 228 384 228 384 202.5 313.5 c 128,-1,35
 177 243 177 243 177 158 c 128,-1,36
 177 73 177 73 214 73 c 0,27,28
115 531 m 1,37,38
 129 673 129 673 216 673 c 0,39,40
 250 673 250 673 315.5 655.5 c 128,-1,41
 381 638 381 638 408 638 c 128,-1,42
 435 638 435 638 446 644 c 128,-1,43
 457 650 457 650 471 674 c 1,44,-1
 502 668 l 1,45,46
 498 622 498 622 486 591 c 0,47,48
 463 532 463 532 400 532 c 0,49,50
 377 532 377 532 314.5 549.5 c 128,-1,51
 252 567 252 567 221.5 567 c 128,-1,52
 191 567 191 567 176.5 558.5 c 128,-1,53
 162 550 162 550 147 524 c 1,54,-1
 115 531 l 1,37,38
EndSplineSet
EndChar

StartChar: adieresis
Encoding: 228 228 166
Width: 480
GlyphClass: 2
Flags: W
LayerCount: 2
Fore
SplineSet
328 414 m 1,0,1
 330 416 330 416 339 440 c 1,2,3
 386 440 386 440 465 412 c 1,4,5
 440 329 440 329 425 238.5 c 128,-1,6
 410 148 410 148 410 109.5 c 128,-1,7
 410 71 410 71 418 71 c 0,8,9
 424 71 424 71 462 90 c 2,10,-1
 474 96 l 1,11,-1
 492 61 l 1,12,13
 483 53 483 53 468.5 41 c 128,-1,14
 454 29 454 29 414 8.5 c 128,-1,15
 374 -12 374 -12 342 -12 c 0,16,17
 280 -12 280 -12 270 44 c 1,18,19
 206 -12 206 -12 154.5 -12 c 128,-1,20
 103 -12 103 -12 67.5 28 c 128,-1,21
 32 68 32 68 32 154 c 0,22,23
 32 288 32 288 87 365.5 c 128,-1,24
 142 443 142 443 220 443 c 0,25,26
 276 443 276 443 328 414 c 1,0,1
214 73 m 0,27,28
 238 73 238 73 268 92 c 1,29,30
 275 233 275 233 315 371 c 1,31,32
 285 384 285 384 264 384 c 0,33,34
 228 384 228 384 202.5 313.5 c 128,-1,35
 177 243 177 243 177 158 c 128,-1,36
 177 73 177 73 214 73 c 0,27,28
161 557 m 128,-1,38
 145 575 145 575 145 605 c 128,-1,39
 145 635 145 635 167.5 656.5 c 128,-1,40
 190 678 190 678 219 678 c 0,41,42
 282 678 282 678 282 613 c 0,43,44
 282 584 282 584 259 561.5 c 128,-1,45
 236 539 236 539 206.5 539 c 128,-1,37
 177 539 177 539 161 557 c 128,-1,38
356.5 556.5 m 128,-1,47
 341 574 341 574 341 604.5 c 128,-1,48
 341 635 341 635 363.5 656.5 c 128,-1,49
 386 678 386 678 416 678 c 128,-1,50
 446 678 446 678 462 660.5 c 128,-1,51
 478 643 478 643 478 613.5 c 128,-1,52
 478 584 478 584 455 561.5 c 128,-1,53
 432 539 432 539 402 539 c 128,-1,46
 372 539 372 539 356.5 556.5 c 128,-1,47
EndSplineSet
EndChar

StartChar: aring
Encoding: 229 229 167
Width: 480
GlyphClass: 2
Flags: W
LayerCount: 2
Fore
SplineSet
328 414 m 1,0,1
 330 416 330 416 339 440 c 1,2,3
 386 440 386 440 465 412 c 1,4,5
 440 329 440 329 425 238.5 c 128,-1,6
 410 148 410 148 410 109.5 c 128,-1,7
 410 71 410 71 418 71 c 0,8,9
 424 71 424 71 462 90 c 2,10,-1
 474 96 l 1,11,-1
 492 61 l 1,12,13
 483 53 483 53 468.5 41 c 128,-1,14
 454 29 454 29 414 8.5 c 128,-1,15
 374 -12 374 -12 342 -12 c 0,16,17
 280 -12 280 -12 270 44 c 1,18,19
 206 -12 206 -12 154.5 -12 c 128,-1,20
 103 -12 103 -12 67.5 28 c 128,-1,21
 32 68 32 68 32 154 c 0,22,23
 32 288 32 288 87 365.5 c 128,-1,24
 142 443 142 443 220 443 c 0,25,26
 276 443 276 443 328 414 c 1,0,1
214 73 m 0,27,28
 238 73 238 73 268 92 c 1,29,30
 275 233 275 233 315 371 c 1,31,32
 285 384 285 384 264 384 c 0,33,34
 228 384 228 384 202.5 313.5 c 128,-1,35
 177 243 177 243 177 158 c 128,-1,36
 177 73 177 73 214 73 c 0,27,28
203 627 m 128,-1,38
 203 673 203 673 231.5 702.5 c 128,-1,39
 260 732 260 732 313 732 c 128,-1,40
 366 732 366 732 394.5 702.5 c 128,-1,41
 423 673 423 673 423 627 c 128,-1,42
 423 581 423 581 394.5 551 c 128,-1,43
 366 521 366 521 313 521 c 128,-1,44
 260 521 260 521 231.5 551 c 128,-1,37
 203 581 203 581 203 627 c 128,-1,38
261 627 m 128,-1,46
 261 605 261 605 274.5 591.5 c 128,-1,47
 288 578 288 578 312.5 578 c 128,-1,48
 337 578 337 578 349.5 591.5 c 128,-1,49
 362 605 362 605 362 627 c 128,-1,50
 362 649 362 649 349.5 662.5 c 128,-1,51
 337 676 337 676 312.5 676 c 128,-1,52
 288 676 288 676 274.5 662.5 c 128,-1,45
 261 649 261 649 261 627 c 128,-1,46
EndSplineSet
EndChar

StartChar: ae
Encoding: 230 230 168
Width: 645
GlyphClass: 2
Flags: W
LayerCount: 2
Fore
SplineSet
220 443 m 0,0,1
 275 443 275 443 326 415 c 1,2,3
 332 430 332 430 339 440 c 1,4,5
 367 435 367 435 411 414 c 1,6,7
 464 443 464 443 521 443 c 128,-1,8
 578 443 578 443 616 414 c 128,-1,9
 654 385 654 385 654 336.5 c 128,-1,10
 654 288 654 288 629.5 255 c 128,-1,11
 605 222 605 222 570 204 c 0,12,13
 499 169 499 169 440 160 c 1,14,-1
 416 157 l 1,15,16
 423 63 423 63 493 63 c 0,17,18
 517 63 517 63 544 75 c 128,-1,19
 571 87 571 87 586 99 c 2,20,-1
 601 111 l 1,21,-1
 625 79 l 1,22,23
 617 68 617 68 593 50 c 128,-1,24
 569 32 569 32 548 20 c 0,25,26
 490 -12 490 -12 428 -12 c 0,27,28
 335 -12 335 -12 297 70 c 1,29,30
 273 39 273 39 227 13.5 c 128,-1,31
 181 -12 181 -12 149 -12 c 0,32,33
 103 -12 103 -12 67.5 28 c 128,-1,34
 32 68 32 68 32 154 c 0,35,36
 32 288 32 288 87 365.5 c 128,-1,37
 142 443 142 443 220 443 c 0,0,1
285 106 m 1,38,39
 278 126 278 126 278 206 c 128,-1,40
 278 286 278 286 308 374 c 1,41,42
 285 384 285 384 264 384 c 0,43,44
 228 384 228 384 202.5 313.5 c 128,-1,45
 177 243 177 243 177 158 c 128,-1,46
 177 73 177 73 214.5 73 c 128,-1,47
 252 73 252 73 285 106 c 1,38,39
496 249 m 128,-1,49
 526 283 526 283 526 337 c 128,-1,50
 526 391 526 391 494 391 c 0,51,52
 456 391 456 391 435.5 326.5 c 128,-1,53
 415 262 415 262 415 206 c 1,54,48
 466 215 466 215 496 249 c 128,-1,49
EndSplineSet
EndChar

StartChar: ccedilla
Encoding: 231 231 169
Width: 397
GlyphClass: 2
Flags: W
LayerCount: 2
Fore
SplineSet
260 393 m 0,0,1
 220 393 220 393 196 326.5 c 128,-1,2
 172 260 172 260 172 184 c 0,3,4
 172 64 172 64 246 64 c 0,5,6
 270 64 270 64 297 75.5 c 128,-1,7
 324 87 324 87 340 98 c 1,8,-1
 355 110 l 1,9,-1
 378 79 l 1,10,11
 371 72 371 72 359 60.5 c 128,-1,12
 347 49 347 49 309.5 26 c 128,-1,13
 272 3 272 3 234 -6 c 1,14,15
 209 -24 209 -24 190.5 -50 c 128,-1,16
 172 -76 172 -76 172 -100.5 c 128,-1,17
 172 -125 172 -125 196 -125 c 128,-1,18
 220 -125 220 -125 253 -106 c 1,19,-1
 264 -99 l 1,20,-1
 282 -127 l 1,21,22
 275 -134 275 -134 263 -144.5 c 128,-1,23
 251 -155 251 -155 215 -172.5 c 128,-1,24
 179 -190 179 -190 148 -190 c 128,-1,25
 117 -190 117 -190 98 -171.5 c 128,-1,26
 79 -153 79 -153 79 -123.5 c 128,-1,27
 79 -94 79 -94 104 -63.5 c 128,-1,28
 129 -33 129 -33 161 -11 c 1,29,30
 93 -4 93 -4 59.5 46 c 128,-1,31
 26 96 26 96 26 176 c 0,32,33
 26 295 26 295 91.5 369 c 128,-1,34
 157 443 157 443 260 443 c 0,35,36
 327 443 327 443 366.5 412.5 c 128,-1,37
 406 382 406 382 406 337.5 c 128,-1,38
 406 293 406 293 378 261 c 1,39,40
 353 261 353 261 320 272 c 128,-1,41
 287 283 287 283 270 299 c 1,42,-1
 285 387 l 1,43,44
 276 393 276 393 260 393 c 0,0,1
EndSplineSet
EndChar

StartChar: egrave
Encoding: 232 232 170
Width: 399
GlyphClass: 2
Flags: W
LayerCount: 2
Fore
SplineSet
26 173 m 0,0,1
 26 298 26 298 101.5 370.5 c 128,-1,2
 177 443 177 443 273 443 c 0,3,4
 332 443 332 443 370 414 c 128,-1,5
 408 385 408 385 408 336.5 c 128,-1,6
 408 288 408 288 383.5 255 c 128,-1,7
 359 222 359 222 324 204 c 0,8,9
 253 169 253 169 194 160 c 1,10,-1
 170 157 l 1,11,12
 177 63 177 63 247 63 c 0,13,14
 271 63 271 63 298 75 c 128,-1,15
 325 87 325 87 340 99 c 2,16,-1
 355 111 l 1,17,-1
 379 79 l 1,18,19
 371 68 371 68 347 50 c 128,-1,20
 323 32 323 32 302 20 c 0,21,22
 244 -12 244 -12 175 -12 c 128,-1,23
 106 -12 106 -12 66 37 c 128,-1,24
 26 86 26 86 26 173 c 0,0,1
250 249 m 128,-1,26
 280 283 280 283 280 337 c 128,-1,27
 280 391 280 391 248 391 c 0,28,29
 210 391 210 391 189.5 326.5 c 128,-1,30
 169 262 169 262 169 206 c 1,31,25
 220 215 220 215 250 249 c 128,-1,26
157 693 m 0,32,33
 184 693 184 693 245 651 c 0,34,35
 261 640 261 640 273.5 631.5 c 128,-1,36
 286 623 286 623 305 609 c 128,-1,37
 324 595 324 595 336 586 c 0,38,39
 366 561 366 561 400 537 c 1,40,-1
 378 499 l 1,41,42
 255 546 255 546 86 600 c 1,43,44
 124 693 124 693 157 693 c 0,32,33
EndSplineSet
EndChar

StartChar: eacute
Encoding: 233 233 171
Width: 399
GlyphClass: 2
Flags: W
LayerCount: 2
Fore
SplineSet
26 173 m 0,0,1
 26 298 26 298 101.5 370.5 c 128,-1,2
 177 443 177 443 273 443 c 0,3,4
 332 443 332 443 370 414 c 128,-1,5
 408 385 408 385 408 336.5 c 128,-1,6
 408 288 408 288 383.5 255 c 128,-1,7
 359 222 359 222 324 204 c 0,8,9
 253 169 253 169 194 160 c 1,10,-1
 170 157 l 1,11,12
 177 63 177 63 247 63 c 0,13,14
 271 63 271 63 298 75 c 128,-1,15
 325 87 325 87 340 99 c 2,16,-1
 355 111 l 1,17,-1
 379 79 l 1,18,19
 371 68 371 68 347 50 c 128,-1,20
 323 32 323 32 302 20 c 0,21,22
 244 -12 244 -12 175 -12 c 128,-1,23
 106 -12 106 -12 66 37 c 128,-1,24
 26 86 26 86 26 173 c 0,0,1
250 249 m 128,-1,26
 280 283 280 283 280 337 c 128,-1,27
 280 391 280 391 248 391 c 0,28,29
 210 391 210 391 189.5 326.5 c 128,-1,30
 169 262 169 262 169 206 c 1,31,25
 220 215 220 215 250 249 c 128,-1,26
411 616 m 0,32,33
 411 588 411 588 375 571 c 0,34,35
 326 548 326 548 130 503 c 1,36,-1
 112 543 l 1,37,38
 206 592 206 592 282 643 c 128,-1,39
 358 694 358 694 376 705 c 1,40,41
 386 691 386 691 398.5 661 c 128,-1,42
 411 631 411 631 411 616 c 0,32,33
EndSplineSet
EndChar

